g Body_34
v -0.235 0.91 0.06 0.627451 0.627451 0.643137
v -0.165 0.91 0.06 0.627451 0.627451 0.643137
v -0.165 0.91 0.18 0.627451 0.627451 0.643137
v -0.235 0.91 0.18 0.627451 0.627451 0.643137
v -0.235 0.915 0.18 0.627451 0.627451 0.643137
v -0.235 0.915 0.06 0.627451 0.627451 0.643137
v -0.165 0.915 0.18 0.627451 0.627451 0.643137
v -0.165 0.915 0.06 0.627451 0.627451 0.643137
v -0.232 0.918 0.063 0.627451 0.627451 0.643137
v -0.168 0.918 0.063 0.627451 0.627451 0.643137
v -0.168 0.918 0.177 0.627451 0.627451 0.643137
v -0.232 0.918 0.177 0.627451 0.627451 0.643137
vn -0 -1 -0
vn -1 0 0
vn 0 -0 1
vn 1 -0 -0
vn -0 0 -1
vn -0 0.707107 -0.707107
vn 0.707107 0.707107 0
vn 0 0.707107 0.707107
vn -0.707107 0.707107 -0
vn 0 1 0
vt 0 0.06
vt -0.07 0.06
vt -0.0699999 0.18
vt 0 0.18
vt -0.06 -0.013
vt 0.06 -0.013
vt 0.06 -0.008
vt -0.06 -0.008
vt -0.035 -0.008
vt -0.035 -0.013
vt 0.035 -0.013
vt 0.035 -0.008
vt 0.06 -0.013
vt -0.06 -0.013
vt -0.06 -0.008
vt 0.06 -0.008
vt -0.035 -0.013
vt -0.035 -0.008
vt 0.035 -0.008
vt 0.035 -0.013
vt 0 0.0113137
vt 0.003 0.00707107
vt 0.0669999 0.00707107
vt 0.07 0.0113137
vt 0.06 0.0113137
vt 0.063 0.00707107
vt 0.177 0.00707107
vt 0.18 0.0113137
vt 0.035 0
vt -0.035 0
vt -0.032 0.00424264
vt 0.032 0.00424264
vt -0.06 0
vt -0.057 0.00424264
vt 0.057 0.00424264
vt 0.06 0
vt -0.0669999 0.177
vt -0.0669999 0.063
vt -0.003 0.063
vt -0.003 0.177
f 1/1/1 2/2/1 3/3/1
f 3/3/1 4/4/1 1/1/1
f 1/5/2 4/6/2 5/7/2
f 5/7/2 6/8/2 1/5/2
f 5/9/3 4/10/3 3/11/3
f 3/11/3 7/12/3 5/9/3
f 3/13/4 2/14/4 8/15/4
f 8/15/4 7/16/4 3/13/4
f 1/17/5 6/18/5 8/19/5
f 8/19/5 2/20/5 1/17/5
f 6/21/6 9/22/6 10/23/6
f 10/23/6 8/24/6 6/21/6
f 8/25/7 10/26/7 11/27/7
f 11/27/7 7/28/7 8/25/7
f 5/29/8 7/30/8 11/31/8
f 11/31/8 12/32/8 5/29/8
f 5/33/9 12/34/9 9/35/9
f 9/35/9 6/36/9 5/33/9
f 11/37/10 10/38/10 9/39/10
f 9/39/10 12/40/10 11/37/10
