g Body_14_(4)
v 0.549333 0.3425 0.374 0.627451 0.627451 0.643137
v 0.549333 0.3095 0.374 0.627451 0.627451 0.643137
v 0.549333 0.3095 0.344 0.627451 0.627451 0.643137
v 0.549333 0.3425 0.344 0.627451 0.627451 0.643137
v 0.436333 0.3425 0.344 0.627451 0.627451 0.643137
v 0.436333 0.3095 0.344 0.627451 0.627451 0.643137
v 0.436333 0.3095 0.374 0.627451 0.627451 0.643137
v 0.436333 0.3425 0.374 0.627451 0.627451 0.643137
vn 1 -6.12323e-17 -0
vn 0 0 -1
vn -1 6.12323e-17 0
vn 6.12323e-17 1 0
vn 0 0 1
vn -6.12323e-17 -1 -0
vt -0.418833 0.405
vt -0.385833 0.405
vt -0.385833 0.375
vt -0.418833 0.375
vt -0.018 -0.097
vt -0.018 -0.21
vt 0.015 -0.21
vt 0.015 -0.097
vt -0.418833 0.375
vt -0.385833 0.375
vt -0.385833 0.405
vt -0.418833 0.405
vt -0.015 -0.097
vt -0.015 -0.21
vt 0.015 -0.21
vt 0.015 -0.097
vt -0.015 -0.097
vt -0.015 -0.21
vt 0.018 -0.21
vt 0.018 -0.097
vt -0.015 -0.097
vt -0.015 -0.21
vt 0.015 -0.21
vt 0.015 -0.097
f 1/1/1 2/2/1 3/3/1
f 3/3/1 4/4/1 1/1/1
f 5/5/2 4/6/2 3/7/2
f 3/7/2 6/8/2 5/5/2
f 5/9/3 6/10/3 7/11/3
f 7/11/3 8/12/3 5/9/3
f 8/13/4 1/14/4 4/15/4
f 4/15/4 5/16/4 8/13/4
f 7/17/5 2/18/5 1/19/5
f 1/19/5 8/20/5 7/17/5
f 6/21/6 3/22/6 2/23/6
f 2/23/6 7/24/6 6/21/6
