g Body_01_(1)
v 0.15 0.55 0.45 0.627451 0.627451 0.643137
v 0.15 0.2 0.45 0.627451 0.627451 0.643137
v 0.15 0.2 0.44 0.627451 0.627451 0.643137
v 0.15 0.55 0.44 0.627451 0.627451 0.643137
v -0.34 0.2 0.45 0.627451 0.627451 0.643137
v -0.34 0.2 0.44 0.627451 0.627451 0.643137
v -0.34 0.55 0.45 0.627451 0.627451 0.643137
v -0.34 0.55 0.44 0.627451 0.627451 0.643137
vn 1 -0 -0
vn -0 -1 0
vn 0 0 1
vn -1 -8.26762e-16 0
vn 0 1 0
vn -0 -0 -1
vt -0.891459 0.325
vt -0.891459 -0.025
vt -0.881459 -0.025
vt -0.881459 0.325
vt 0.26 -0.33
vt 0.27 -0.33
vt 0.27 -0.82
vt 0.26 -0.82
vt 0.15 0.55
vt -0.34 0.55
vt -0.34 0.2
vt 0.15 0.2
vt -0.585 -0.01
vt -0.235 -0.01
vt -0.235 0
vt -0.585 0
vt -0.4 -0.69
vt -0.39 -0.69
vt -0.39 -0.2
vt -0.4 -0.2
vt 0.15 0.55
vt 0.15 0.2
vt -0.34 0.2
vt -0.34 0.55
f 1/1/1 2/2/1 3/3/1
f 3/3/1 4/4/1 1/1/1
f 3/5/2 2/6/2 5/7/2
f 5/7/2 6/8/2 3/5/2
f 1/9/3 7/10/3 5/11/3
f 5/11/3 2/12/3 1/9/3
f 8/13/4 6/14/4 5/15/4
f 5/15/4 7/16/4 8/13/4
f 8/17/5 7/18/5 1/19/5
f 1/19/5 4/20/5 8/17/5
f 4/21/6 3/22/6 6/23/6
f 6/23/6 8/24/6 4/21/6
