g Body_34
v -0.145 0.91 0.2 0.627451 0.627451 0.643137
v -0.117402 0.91 0.33433 0.627451 0.627451 0.643137
v -0.12191 0.91 0.336082 0.627451 0.627451 0.643137
v -0.113025 0.91 0.33227 0.627451 0.627451 0.643137
v -0.126529 0.91 0.337519 0.627451 0.627451 0.643137
v -0.100891 0.91 0.324354 0.627451 0.627451 0.643137
v -0.10475 0.91 0.32727 0.627451 0.627451 0.643137
v -0.0774811 0.91 0.288471 0.627451 0.627451 0.643137
v -0.0789179 0.91 0.29309 0.627451 0.627451 0.643137
v -0.07558 0.91 0.278991 0.627451 0.627451 0.643137
v -0.0763666 0.91 0.283764 0.627451 0.627451 0.643137
v -0.108801 0.91 0.329913 0.627451 0.627451 0.643137
v -0.0972423 0.91 0.321178 0.627451 0.627451 0.643137
v -0.0850866 0.91 0.306199 0.627451 0.627451 0.643137
v -0.0877296 0.91 0.31025 0.627451 0.627451 0.643137
v -0.0806702 0.91 0.297598 0.627451 0.627451 0.643137
v -0.0827298 0.91 0.301975 0.627451 0.627451 0.643137
v -0.090646 0.91 0.314109 0.627451 0.627451 0.643137
v -0.093822 0.91 0.317758 0.627451 0.627451 0.643137
v -0.0751247 0.91 0.274176 0.627451 0.627451 0.643137
v -0.131236 0.91 0.338633 0.627451 0.627451 0.643137
v -0.136009 0.91 0.33942 0.627451 0.627451 0.643137
v -0.140824 0.91 0.339875 0.627451 0.627451 0.643137
v -0.0750001 0.91 0.27 0.627451 0.627451 0.643137
v -0.075 0.91 0.2 0.627451 0.627451 0.643137
v -0.145 0.91 0.34 0.627451 0.627451 0.643137
v -0.145 0.915 0.2 0.627451 0.627451 0.643137
v -0.145 0.915 0.34 0.627451 0.627451 0.643137
v -0.0751247 0.915 0.274176 0.627451 0.627451 0.643137
v -0.07558 0.915 0.278991 0.627451 0.627451 0.643137
v -0.0763666 0.915 0.283764 0.627451 0.627451 0.643137
v -0.0774811 0.915 0.288471 0.627451 0.627451 0.643137
v -0.0789179 0.915 0.29309 0.627451 0.627451 0.643137
v -0.0806702 0.915 0.297598 0.627451 0.627451 0.643137
v -0.0827298 0.915 0.301975 0.627451 0.627451 0.643137
v -0.0850866 0.915 0.306199 0.627451 0.627451 0.643137
v -0.0877296 0.915 0.31025 0.627451 0.627451 0.643137
v -0.090646 0.915 0.314109 0.627451 0.627451 0.643137
v -0.093822 0.915 0.317758 0.627451 0.627451 0.643137
v -0.0972423 0.915 0.321178 0.627451 0.627451 0.643137
v -0.100891 0.915 0.324354 0.627451 0.627451 0.643137
v -0.10475 0.915 0.32727 0.627451 0.627451 0.643137
v -0.108801 0.915 0.329913 0.627451 0.627451 0.643137
v -0.113025 0.915 0.33227 0.627451 0.627451 0.643137
v -0.117402 0.915 0.33433 0.627451 0.627451 0.643137
v -0.12191 0.915 0.336082 0.627451 0.627451 0.643137
v -0.126529 0.915 0.337519 0.627451 0.627451 0.643137
v -0.131236 0.915 0.338633 0.627451 0.627451 0.643137
v -0.136009 0.915 0.33942 0.627451 0.627451 0.643137
v -0.140824 0.915 0.339875 0.627451 0.627451 0.643137
v -0.0750001 0.915 0.27 0.627451 0.627451 0.643137
v -0.075 0.915 0.2 0.627451 0.627451 0.643137
v -0.142 0.918 0.203 0.627451 0.627451 0.643137
v -0.0780001 0.918 0.203 0.627451 0.627451 0.643137
v -0.0780001 0.918 0.27 0.627451 0.627451 0.643137
v -0.0781194 0.918 0.273997 0.627451 0.627451 0.643137
v -0.0785551 0.918 0.278606 0.627451 0.627451 0.643137
v -0.0793081 0.918 0.283174 0.627451 0.627451 0.643137
v -0.0803747 0.918 0.287679 0.627451 0.627451 0.643137
v -0.08175 0.918 0.2921 0.627451 0.627451 0.643137
v -0.0834272 0.918 0.296416 0.627451 0.627451 0.643137
v -0.0853985 0.918 0.300605 0.627451 0.627451 0.643137
v -0.0876544 0.918 0.304648 0.627451 0.627451 0.643137
v -0.090184 0.918 0.308525 0.627451 0.627451 0.643137
v -0.0929755 0.918 0.312219 0.627451 0.627451 0.643137
v -0.0960153 0.918 0.315711 0.627451 0.627451 0.643137
v -0.0992891 0.918 0.318985 0.627451 0.627451 0.643137
v -0.102781 0.918 0.322025 0.627451 0.627451 0.643137
v -0.106475 0.918 0.324816 0.627451 0.627451 0.643137
v -0.110352 0.918 0.327346 0.627451 0.627451 0.643137
v -0.114395 0.918 0.329602 0.627451 0.627451 0.643137
v -0.118584 0.918 0.331573 0.627451 0.627451 0.643137
v -0.1229 0.918 0.33325 0.627451 0.627451 0.643137
v -0.127321 0.918 0.334625 0.627451 0.627451 0.643137
v -0.131826 0.918 0.335692 0.627451 0.627451 0.643137
v -0.136394 0.918 0.336445 0.627451 0.627451 0.643137
v -0.141003 0.918 0.336881 0.627451 0.627451 0.643137
v -0.142 0.918 0.336933 0.627451 0.627451 0.643137
vn -0 -1 -0
vn -1 0 0
vn 0.998219 -0 0.0596548
vn 0.991716 -0 0.128449
vn 0.980478 -0 0.196631
vn 0.964557 -0 0.263873
vn 0.944032 -0 0.329855
vn 0.918998 -0 0.394263
vn 0.889576 -0 0.456787
vn 0.855906 -0 0.517131
vn 0.81815 -0 0.575005
vn 0.776487 -0 0.630134
vn 0.731116 -0 0.682253
vn 0.682254 -0 0.731115
vn 0.630134 -0 0.776486
vn 0.575006 -0 0.81815
vn 0.517131 -0 0.855906
vn 0.456788 -0 0.889576
vn 0.394263 -0 0.918998
vn 0.329856 -0 0.944031
vn 0.263874 -0 0.964557
vn 0.196631 -0 0.980478
vn 0.12845 -0 0.991716
vn 0.0596554 -0 0.998219
vn 1 0 7.93016e-16
vn 8.88357e-07 0 1
vn 4.44179e-07 0 1
vn 1 0 0
vn -0 0 -1
vn -0 0.707107 -0.707107
vn 0.707107 0.707107 -0
vn 0.705847 0.707107 0.0421823
vn 0.701249 0.707107 0.0908274
vn 0.693302 0.707107 0.139039
vn 0.682045 0.707107 0.186586
vn 0.667531 0.707107 0.233243
vn 0.64983 0.707107 0.278786
vn 0.629025 0.707107 0.322997
vn 0.605217 0.707107 0.365667
vn 0.578519 0.707107 0.40659
vn 0.549059 0.707107 0.445572
vn 0.516977 0.707107 0.482426
vn 0.482426 0.707107 0.516977
vn 0.445572 0.707107 0.549059
vn 0.40659 0.707107 0.578519
vn 0.365667 0.707107 0.605217
vn 0.322998 0.707107 0.629025
vn 0.278786 0.707107 0.649829
vn 0.233243 0.707107 0.667531
vn 0.186587 0.707107 0.682045
vn 0.139039 0.707107 0.693302
vn 0.0908278 0.707107 0.701249
vn 0.0421827 0.707107 0.705847
vn 0.0316624 0.707107 0.706398
vn 0.707107 0.707107 5.60747e-16
vn 6.28164e-07 0.707107 0.707107
vn -0.707107 0.707107 -0
vn 0 1 0
vt -0.09 0.2
vt -0.117598 0.33433
vt -0.11309 0.336082
vt -0.121975 0.33227
vt -0.108471 0.337519
vt -0.134109 0.324354
vt -0.13025 0.32727
vt -0.157519 0.288471
vt -0.156082 0.29309
vt -0.15942 0.278991
vt -0.158633 0.283764
vt -0.126199 0.329913
vt -0.137758 0.321178
vt -0.149913 0.306199
vt -0.14727 0.31025
vt -0.15433 0.297598
vt -0.15227 0.301975
vt -0.144354 0.314109
vt -0.141178 0.317758
vt -0.159875 0.274176
vt -0.103764 0.338633
vt -0.0989914 0.33942
vt -0.0941758 0.339875
vt -0.16 0.27
vt -0.16 0.2
vt -0.0899999 0.34
vt -0.07 -0.008
vt -0.07 -0.013
vt 0.07 -0.013
vt 0.07 -0.008
vt 1.63049 0.013
vt 1.63049 0.008
vt 1.6996 0.008
vt 1.6996 0.013
vt 1.76872 0.008
vt 1.76872 0.013
vt 1.83783 0.008
vt 1.83783 0.013
vt 1.90695 0.008
vt 1.90695 0.013
vt 1.97606 0.008
vt 1.97606 0.013
vt 2.04518 0.008
vt 2.04518 0.013
vt 2.11429 0.008
vt 2.11429 0.013
vt 2.18341 0.008
vt 2.18341 0.013
vt 2.25252 0.008
vt 2.25252 0.013
vt 2.32164 0.008
vt 2.32164 0.013
vt 2.39075 0.008
vt 2.39075 0.013
vt 2.45987 0.008
vt 2.45987 0.013
vt 2.52898 0.008
vt 2.52898 0.013
vt 2.5981 0.008
vt 2.5981 0.013
vt 2.66721 0.008
vt 2.66721 0.013
vt 2.73633 0.008
vt 2.73633 0.013
vt 2.80544 0.008
vt 2.80544 0.013
vt 2.87456 0.008
vt 2.87456 0.013
vt 2.94367 0.008
vt 2.94367 0.013
vt 3.01279 0.008
vt 3.01279 0.013
vt 3.0819 0.008
vt 1.5708 0.013
vt 1.5708 0.008
vt 3.0819 0.013
vt 3.14159 0.008
vt 3.14159 0.013
vt -0.035 -0.013
vt 0.035 -0.013
vt 0.035 -0.008
vt -0.035 -0.008
vt -0.035 -0.013
vt -0.035 -0.008
vt 0.035 -0.008
vt 0.035 -0.013
vt 0.09 0.0113137
vt 0.093 0.00707107
vt 0.157 0.00707107
vt 0.16 0.0113137
vt 0.035 0
vt -0.035 -2.93143e-08
vt -0.032 0.00424264
vt 0.035 0.00424264
vt 1.63049 0.00800001
vt 1.63049 0.005
vt 1.6996 0.005
vt 1.6996 0.00800001
vt 1.76872 0.005
vt 1.76872 0.00800001
vt 1.83783 0.005
vt 1.83783 0.00800001
vt 1.90695 0.005
vt 1.90695 0.00800001
vt 1.97606 0.005
vt 1.97606 0.00800001
vt 2.04518 0.005
vt 2.04518 0.00800001
vt 2.11429 0.005
vt 2.11429 0.00800001
vt 2.18341 0.005
vt 2.18341 0.00800001
vt 2.25252 0.005
vt 2.25252 0.00800001
vt 2.32164 0.005
vt 2.32164 0.00800001
vt 2.39075 0.005
vt 2.39075 0.00800001
vt 2.45987 0.005
vt 2.45987 0.00800001
vt 2.52898 0.005
vt 2.52898 0.00800001
vt 2.5981 0.005
vt 2.5981 0.00800001
vt 2.66721 0.005
vt 2.66721 0.00800001
vt 2.73633 0.005
vt 2.73633 0.00800001
vt 2.80544 0.005
vt 2.80544 0.00800001
vt 2.87456 0.005
vt 2.87456 0.00800001
vt 2.94367 0.005
vt 2.94367 0.00800001
vt 3.01279 0.005
vt 3.01279 0.00800001
vt 3.0819 0.005
vt 3.0819 0.00800001
vt 3.0968 0.005
vt 1.5708 0.008
vt 1.5708 0.005
vt 3.14159 0.008
vt 0.07 0
vt -0.07 -1.46572e-08
vt -0.0669328 0.00424264
vt 0.067 0.00424264
vt -0.093 0.203
vt -0.138985 0.315711
vt -0.142025 0.312219
vt -0.132219 0.322025
vt -0.135711 0.318985
vt -0.124648 0.327346
vt -0.128525 0.324816
vt -0.116416 0.331573
vt -0.120605 0.329602
vt -0.154625 0.287679
vt -0.155692 0.283174
vt -0.107679 0.334625
vt -0.1121 0.33325
vt -0.0986061 0.336445
vt -0.103174 0.335692
vt -0.15325 0.2921
vt -0.156445 0.278606
vt -0.149602 0.300605
vt -0.151573 0.296416
vt -0.144816 0.308525
vt -0.147346 0.304648
vt -0.0939968 0.336881
vt -0.156881 0.273997
vt -0.093 0.336933
vt -0.157 0.27
vt -0.157 0.203
f 1/1/1 2/2/1 3/3/1
f 1/1/1 4/4/1 2/2/1
f 3/3/1 5/5/1 1/1/1
f 1/1/1 6/6/1 7/7/1
f 1/1/1 8/8/1 9/9/1
f 1/1/1 10/10/1 11/11/1
f 1/1/1 12/12/1 4/4/1
f 1/1/1 13/13/1 6/6/1
f 1/1/1 14/14/1 15/15/1
f 1/1/1 16/16/1 17/17/1
f 11/11/1 8/8/1 1/1/1
f 7/7/1 12/12/1 1/1/1
f 1/1/1 18/18/1 19/19/1
f 17/17/1 14/14/1 1/1/1
f 1/1/1 20/20/1 10/10/1
f 19/19/1 13/13/1 1/1/1
f 9/9/1 16/16/1 1/1/1
f 1/1/1 21/21/1 22/22/1
f 15/15/1 18/18/1 1/1/1
f 5/5/1 21/21/1 1/1/1
f 22/22/1 23/23/1 1/1/1
f 1/1/1 24/24/1 20/20/1
f 1/1/1 25/25/1 24/24/1
f 23/23/1 26/26/1 1/1/1
f 27/27/2 1/28/2 26/29/2
f 26/29/2 28/30/2 27/27/2
f 20/31/3 29/32/3 30/33/4
f 10/34/4 30/33/4 31/35/5
f 11/36/5 31/35/5 32/37/6
f 8/38/6 32/37/6 33/39/7
f 9/40/7 33/39/7 34/41/8
f 16/42/8 34/41/8 35/43/9
f 17/44/9 35/43/9 36/45/10
f 14/46/10 36/45/10 37/47/11
f 15/48/11 37/47/11 38/49/12
f 18/50/12 38/49/12 39/51/13
f 19/52/13 39/51/13 40/53/14
f 13/54/14 40/53/14 41/55/15
f 6/56/15 41/55/15 42/57/16
f 7/58/16 42/57/16 43/59/17
f 12/60/17 43/59/17 44/61/18
f 4/62/18 44/61/18 45/63/19
f 2/64/19 45/63/19 46/65/20
f 3/66/20 46/65/20 47/67/21
f 5/68/21 47/67/21 48/69/22
f 21/70/22 48/69/22 49/71/23
f 22/72/23 49/71/23 50/73/24
f 24/74/25 51/75/25 29/32/3
f 23/76/24 50/73/24 28/77/26
f 28/77/26 26/78/27 23/76/24
f 29/32/3 20/31/3 24/74/25
f 50/73/24 23/76/24 22/72/23
f 49/71/23 22/72/23 21/70/22
f 48/69/22 21/70/22 5/68/21
f 47/67/21 5/68/21 3/66/20
f 46/65/20 3/66/20 2/64/19
f 45/63/19 2/64/19 4/62/18
f 44/61/18 4/62/18 12/60/17
f 43/59/17 12/60/17 7/58/16
f 42/57/16 7/58/16 6/56/15
f 41/55/15 6/56/15 13/54/14
f 40/53/14 13/54/14 19/52/13
f 39/51/13 19/52/13 18/50/12
f 38/49/12 18/50/12 15/48/11
f 37/47/11 15/48/11 14/46/10
f 36/45/10 14/46/10 17/44/9
f 35/43/9 17/44/9 16/42/8
f 34/41/8 16/42/8 9/40/7
f 33/39/7 9/40/7 8/38/6
f 32/37/6 8/38/6 11/36/5
f 31/35/5 11/36/5 10/34/4
f 30/33/4 10/34/4 20/31/3
f 24/79/28 25/80/28 52/81/28
f 52/81/28 51/82/28 24/79/28
f 1/83/29 27/84/29 52/85/29
f 52/85/29 25/86/29 1/83/29
f 27/87/30 53/88/30 54/89/30
f 54/89/30 52/90/30 27/87/30
f 51/91/31 52/92/31 54/93/31
f 54/93/31 55/94/31 51/91/31
f 29/95/32 56/96/32 57/97/33
f 30/98/33 57/97/33 58/99/34
f 31/100/34 58/99/34 59/101/35
f 32/102/35 59/101/35 60/103/36
f 33/104/36 60/103/36 61/105/37
f 34/106/37 61/105/37 62/107/38
f 35/108/38 62/107/38 63/109/39
f 36/110/39 63/109/39 64/111/40
f 37/112/40 64/111/40 65/113/41
f 38/114/41 65/113/41 66/115/42
f 39/116/42 66/115/42 67/117/43
f 40/118/43 67/117/43 68/119/44
f 41/120/44 68/119/44 69/121/45
f 42/122/45 69/121/45 70/123/46
f 43/124/46 70/123/46 71/125/47
f 44/126/47 71/125/47 72/127/48
f 45/128/48 72/127/48 73/129/49
f 46/130/49 73/129/49 74/131/50
f 47/132/50 74/131/50 75/133/51
f 48/134/51 75/133/51 76/135/52
f 49/136/52 76/135/52 77/137/53
f 50/138/53 77/137/53 78/139/54
f 29/95/32 51/140/55 55/141/55
f 55/141/55 56/96/32 29/95/32
f 78/139/54 28/142/56 50/138/53
f 77/137/53 50/138/53 49/136/52
f 76/135/52 49/136/52 48/134/51
f 75/133/51 48/134/51 47/132/50
f 74/131/50 47/132/50 46/130/49
f 73/129/49 46/130/49 45/128/48
f 72/127/48 45/128/48 44/126/47
f 71/125/47 44/126/47 43/124/46
f 70/123/46 43/124/46 42/122/45
f 69/121/45 42/122/45 41/120/44
f 68/119/44 41/120/44 40/118/43
f 67/117/43 40/118/43 39/116/42
f 66/115/42 39/116/42 38/114/41
f 65/113/41 38/114/41 37/112/40
f 64/111/40 37/112/40 36/110/39
f 63/109/39 36/110/39 35/108/38
f 62/107/38 35/108/38 34/106/37
f 61/105/37 34/106/37 33/104/36
f 60/103/36 33/104/36 32/102/35
f 59/101/35 32/102/35 31/100/34
f 58/99/34 31/100/34 30/98/33
f 57/97/33 30/98/33 29/95/32
f 27/143/57 28/144/57 78/145/57
f 78/145/57 53/146/57 27/143/57
f 53/147/58 66/148/58 65/149/58
f 53/147/58 68/150/58 67/151/58
f 53/147/58 70/152/58 69/153/58
f 53/147/58 72/154/58 71/155/58
f 53/147/58 59/156/58 58/157/58
f 67/151/58 66/148/58 53/147/58
f 71/155/58 70/152/58 53/147/58
f 53/147/58 74/158/58 73/159/58
f 53/147/58 76/160/58 75/161/58
f 53/147/58 60/162/58 59/156/58
f 69/153/58 68/150/58 53/147/58
f 75/161/58 74/158/58 53/147/58
f 58/157/58 57/163/58 53/147/58
f 53/147/58 62/164/58 61/165/58
f 53/147/58 64/166/58 63/167/58
f 73/159/58 72/154/58 53/147/58
f 61/165/58 60/162/58 53/147/58
f 65/149/58 64/166/58 53/147/58
f 63/167/58 62/164/58 53/147/58
f 53/147/58 77/168/58 76/160/58
f 57/163/58 56/169/58 53/147/58
f 53/147/58 78/170/58 77/168/58
f 56/169/58 55/171/58 53/147/58
f 55/171/58 54/172/58 53/147/58
