g Body_01_(1)
v -0.34 0.2 0.44 0.627451 0.627451 0.643137
v -0.34 0.2 0.45 0.627451 0.627451 0.643137
v 0.15 0.2 0.45 0.627451 0.627451 0.643137
v 0.15 0.2 0.44 0.627451 0.627451 0.643137
v -0.34 0 0.44 0.627451 0.627451 0.643137
v -0.34 0 0.45 0.627451 0.627451 0.643137
v 0.15 0 0.44 0.627451 0.627451 0.643137
v 0.15 0 0.45 0.627451 0.627451 0.643137
vn 0 1 -0
vn -1 -8.26762e-16 0
vn -0 -0 -1
vn 0 0 1
vn 1 -0 -0
vn 0 -1 0
vt 0.26 -0.82
vt 0.27 -0.82
vt 0.27 -0.33
vt 0.26 -0.33
vt -0.035 -0.01
vt -0.035 0
vt -0.235 0
vt -0.235 -0.01
vt -0.34 0
vt -0.34 0.2
vt 0.15 0.2
vt 0.15 0
vt 0.15 0.2
vt -0.34 0.2
vt -0.34 0
vt 0.15 0
vt 0.26 -0.1
vt 0.26 0.1
vt 0.27 0.1
vt 0.27 -0.1
vt -0.04 -0.7
vt -0.04 -0.21
vt -0.05 -0.21
vt -0.05 -0.7
f 1/1/1 2/2/1 3/3/1
f 3/3/1 4/4/1 1/1/1
f 5/5/2 6/6/2 2/7/2
f 2/7/2 1/8/2 5/5/2
f 5/9/3 1/10/3 4/11/3
f 4/11/3 7/12/3 5/9/3
f 3/13/4 2/14/4 6/15/4
f 6/15/4 8/16/4 3/13/4
f 7/17/5 4/18/5 3/19/5
f 3/19/5 8/20/5 7/17/5
f 5/21/6 7/22/6 8/23/6
f 8/23/6 6/24/6 5/21/6
