g Body_02
v -0.249807 0.5 0.272914 0.627451 0.627451 0.643137
v -0.25 0.5 0.267269 0.627451 0.627451 0.643137
v -0.25 0.55 0.267269 0.627451 0.627451 0.643137
v -0.249229 0.5 0.278534 0.627451 0.627451 0.643137
v -0.249807 0.55 0.272914 0.627451 0.627451 0.643137
v -0.24827 0.5 0.284101 0.627451 0.627451 0.643137
v -0.249229 0.55 0.278534 0.627451 0.627451 0.643137
v -0.246932 0.5 0.289589 0.627451 0.627451 0.643137
v -0.24827 0.55 0.284101 0.627451 0.627451 0.643137
v -0.245223 0.5 0.294974 0.627451 0.627451 0.643137
v -0.246932 0.55 0.289589 0.627451 0.627451 0.643137
v -0.243151 0.5 0.300229 0.627451 0.627451 0.643137
v -0.245223 0.55 0.294974 0.627451 0.627451 0.643137
v -0.240725 0.5 0.30533 0.627451 0.627451 0.643137
v -0.243151 0.55 0.300229 0.627451 0.627451 0.643137
v -0.237956 0.5 0.310254 0.627451 0.627451 0.643137
v -0.240725 0.55 0.30533 0.627451 0.627451 0.643137
v -0.234858 0.5 0.314978 0.627451 0.627451 0.643137
v -0.237956 0.55 0.310254 0.627451 0.627451 0.643137
v -0.231444 0.5 0.319479 0.627451 0.627451 0.643137
v -0.234858 0.55 0.314978 0.627451 0.627451 0.643137
v -0.227732 0.5 0.323737 0.627451 0.627451 0.643137
v -0.231444 0.55 0.319479 0.627451 0.627451 0.643137
v -0.223737 0.5 0.327732 0.627451 0.627451 0.643137
v -0.227732 0.55 0.323737 0.627451 0.627451 0.643137
v -0.219479 0.5 0.331444 0.627451 0.627451 0.643137
v -0.223737 0.55 0.327732 0.627451 0.627451 0.643137
v -0.214978 0.5 0.334858 0.627451 0.627451 0.643137
v -0.219479 0.55 0.331444 0.627451 0.627451 0.643137
v -0.210254 0.5 0.337956 0.627451 0.627451 0.643137
v -0.214978 0.55 0.334858 0.627451 0.627451 0.643137
v -0.20533 0.5 0.340725 0.627451 0.627451 0.643137
v -0.210254 0.55 0.337956 0.627451 0.627451 0.643137
v -0.200229 0.5 0.343151 0.627451 0.627451 0.643137
v -0.20533 0.55 0.340725 0.627451 0.627451 0.643137
v -0.194974 0.5 0.345223 0.627451 0.627451 0.643137
v -0.200229 0.55 0.343151 0.627451 0.627451 0.643137
v -0.189589 0.5 0.346932 0.627451 0.627451 0.643137
v -0.194974 0.55 0.345223 0.627451 0.627451 0.643137
v -0.184101 0.5 0.34827 0.627451 0.627451 0.643137
v -0.189589 0.55 0.346932 0.627451 0.627451 0.643137
v -0.178534 0.5 0.349229 0.627451 0.627451 0.643137
v -0.184101 0.55 0.34827 0.627451 0.627451 0.643137
v -0.172914 0.5 0.349807 0.627451 0.627451 0.643137
v -0.178534 0.55 0.349229 0.627451 0.627451 0.643137
v -0.167269 0.5 0.35 0.627451 0.627451 0.643137
v -0.172914 0.55 0.349807 0.627451 0.627451 0.643137
v -0.167269 0.55 0.35 0.627451 0.627451 0.643137
v -0.25 0.5 0.265 0.627451 0.627451 0.643137
v -0.25 0.55 0.265 0.627451 0.627451 0.643137
v -0.142731 0.55 0.35 0.627451 0.627451 0.643137
v -0.142731 0.5 0.35 0.627451 0.627451 0.643137
v -0.137086 0.5 0.349807 0.627451 0.627451 0.643137
v -0.131466 0.5 0.349229 0.627451 0.627451 0.643137
v -0.137086 0.55 0.349807 0.627451 0.627451 0.643137
v -0.125899 0.5 0.34827 0.627451 0.627451 0.643137
v -0.131466 0.55 0.349229 0.627451 0.627451 0.643137
v -0.120411 0.5 0.346932 0.627451 0.627451 0.643137
v -0.125899 0.55 0.34827 0.627451 0.627451 0.643137
v -0.115026 0.5 0.345223 0.627451 0.627451 0.643137
v -0.120411 0.55 0.346932 0.627451 0.627451 0.643137
v -0.109771 0.5 0.343151 0.627451 0.627451 0.643137
v -0.115026 0.55 0.345223 0.627451 0.627451 0.643137
v -0.10467 0.5 0.340725 0.627451 0.627451 0.643137
v -0.109771 0.55 0.343151 0.627451 0.627451 0.643137
v -0.0997455 0.5 0.337956 0.627451 0.627451 0.643137
v -0.10467 0.55 0.340725 0.627451 0.627451 0.643137
v -0.0950219 0.5 0.334858 0.627451 0.627451 0.643137
v -0.0997455 0.55 0.337956 0.627451 0.627451 0.643137
v -0.0905206 0.5 0.331444 0.627451 0.627451 0.643137
v -0.0950219 0.55 0.334858 0.627451 0.627451 0.643137
v -0.0862629 0.5 0.327732 0.627451 0.627451 0.643137
v -0.0905206 0.55 0.331444 0.627451 0.627451 0.643137
v -0.0822683 0.5 0.323737 0.627451 0.627451 0.643137
v -0.0862629 0.55 0.327732 0.627451 0.627451 0.643137
v -0.0785557 0.5 0.319479 0.627451 0.627451 0.643137
v -0.0822683 0.55 0.323737 0.627451 0.627451 0.643137
v -0.0751424 0.5 0.314978 0.627451 0.627451 0.643137
v -0.0785557 0.55 0.319479 0.627451 0.627451 0.643137
v -0.0720441 0.5 0.310254 0.627451 0.627451 0.643137
v -0.0751424 0.55 0.314978 0.627451 0.627451 0.643137
v -0.0692754 0.5 0.30533 0.627451 0.627451 0.643137
v -0.0720441 0.55 0.310254 0.627451 0.627451 0.643137
v -0.0668492 0.5 0.300229 0.627451 0.627451 0.643137
v -0.0692754 0.55 0.30533 0.627451 0.627451 0.643137
v -0.0647768 0.5 0.294974 0.627451 0.627451 0.643137
v -0.0668492 0.55 0.300229 0.627451 0.627451 0.643137
v -0.0630679 0.5 0.289589 0.627451 0.627451 0.643137
v -0.0647768 0.55 0.294974 0.627451 0.627451 0.643137
v -0.0617304 0.5 0.284101 0.627451 0.627451 0.643137
v -0.0630679 0.55 0.289589 0.627451 0.627451 0.643137
v -0.0607706 0.5 0.278534 0.627451 0.627451 0.643137
v -0.0617304 0.55 0.284101 0.627451 0.627451 0.643137
v -0.0601929 0.5 0.272914 0.627451 0.627451 0.643137
v -0.0607706 0.55 0.278534 0.627451 0.627451 0.643137
v -0.06 0.5 0.267269 0.627451 0.627451 0.643137
v -0.0601929 0.55 0.272914 0.627451 0.627451 0.643137
v -0.06 0.55 0.267269 0.627451 0.627451 0.643137
v -0.06 0.55 0.265 0.627451 0.627451 0.643137
v -0.06 0.5 0.265 0.627451 0.627451 0.643137
v 0.18 0.55 0.265 0.627451 0.627451 0.643137
v 0.18 0.5 0.265 0.627451 0.627451 0.643137
v 0.18 0.5 0.35 0.627451 0.627451 0.643137
v 0.18 0.55 0.35 0.627451 0.627451 0.643137
v 0.35 0.55 0.35 0.627451 0.627451 0.643137
v 0.35 0.5 0.35 0.627451 0.627451 0.643137
v 0.35 0.55 0.265 0.627451 0.627451 0.643137
v 0.35 0.5 0.265 0.627451 0.627451 0.643137
v 0.6 0.55 0.265 0.627451 0.627451 0.643137
v 0.55 0.5 0.265 0.627451 0.627451 0.643137
v 0.6 0.5 0.265 0.627451 0.627451 0.643137
v 0.6 0.55 0.4 0.627451 0.627451 0.643137
v 0.6 0.5 0.4 0.627451 0.627451 0.643137
v -0.29 0.5 0.45 0.627451 0.627451 0.643137
v -0.29 0.5 0.265 0.627451 0.627451 0.643137
v 0.55 0.5 0.45 0.627451 0.627451 0.643137
v 0.64 0.5 0.45 0.627451 0.627451 0.643137
v 0.64 0.5 0.4 0.627451 0.627451 0.643137
v -0.35 0.55 0.265 0.627451 0.627451 0.643137
v -0.35 0.5 0.265 0.627451 0.627451 0.643137
v -0.35 0.55 0.4 0.627451 0.627451 0.643137
v -0.35 0.5 0.4 0.627451 0.627451 0.643137
v -0.39 0.5 0.45 0.627451 0.627451 0.643137
v -0.39 0.5 0.4 0.627451 0.627451 0.643137
v -0.39 0.55 0.4 0.627451 0.627451 0.643137
v -0.39 0.55 0.45 0.627451 0.627451 0.643137
v 0.64 0.55 0.4 0.627451 0.627451 0.643137
v 0.64 0.55 0.45 0.627451 0.627451 0.643137
v -0.35 0.55 0.45 0.627451 0.627451 0.643137
v 0.6 0.55 0.45 0.627451 0.627451 0.643137
v 0.6 0.59 0.45 0.627451 0.627451 0.643137
v -0.35 0.59 0.45 0.627451 0.627451 0.643137
v 0.6 0.59 0.4 0.627451 0.627451 0.643137
v -0.35 0.59 0.4 0.627451 0.627451 0.643137
vn 0.997669 -0 -0.0682424
vn 1 -0 -1.83697e-16
vn 0.990686 -0 -0.136167
vn 0.997669 -0 -0.0682424
vn 0.979084 -0 -0.203456
vn 0.990686 -0 -0.136167
vn 0.962917 -0 -0.269797
vn 0.979084 -0 -0.203456
vn 0.942261 -0 -0.33488
vn 0.962917 -0 -0.269797
vn 0.917211 -0 -0.398401
vn 0.942261 -0 -0.33488
vn 0.887885 -0 -0.460065
vn 0.917211 -0 -0.398401
vn 0.854419 -0 -0.519584
vn 0.887885 -0 -0.460065
vn 0.81697 -0 -0.57668
vn 0.854419 -0 -0.519584
vn 0.775711 -0 -0.631088
vn 0.81697 -0 -0.57668
vn 0.730836 -0 -0.682553
vn 0.775711 -0 -0.631088
vn 0.682553 -0 -0.730836
vn 0.730836 -0 -0.682553
vn 0.631088 -0 -0.775711
vn 0.682553 -0 -0.730836
vn 0.57668 -0 -0.81697
vn 0.631088 -0 -0.775711
vn 0.519584 -0 -0.854419
vn 0.57668 -0 -0.81697
vn 0.460065 -0 -0.887885
vn 0.519584 -0 -0.854419
vn 0.398401 -0 -0.917211
vn 0.460065 -0 -0.887885
vn 0.33488 -0 -0.942261
vn 0.398401 -0 -0.917211
vn 0.269797 -0 -0.962917
vn 0.33488 -0 -0.942261
vn 0.203456 -0 -0.979084
vn 0.269797 -0 -0.962917
vn 0.136167 -0 -0.990686
vn 0.203456 -0 -0.979084
vn 0.0682424 -0 -0.997669
vn 0.136167 -0 -0.990686
vn -1.22465e-16 -0 -1
vn 0.0682424 -0 -0.997669
vn 1 -0 0
vn 0 0 -1
vn -0.0682424 -0 -0.997669
vn -0.136167 -0 -0.990686
vn -0.203456 -0 -0.979084
vn -0.269797 -0 -0.962917
vn -0.33488 -0 -0.942261
vn -0.398401 -0 -0.917211
vn -0.460065 -0 -0.887885
vn -0.519584 -0 -0.854419
vn -0.57668 -0 -0.81697
vn -0.631088 -0 -0.775711
vn -0.682553 -0 -0.730836
vn -0.730836 -0 -0.682553
vn -0.775711 -0 -0.631088
vn -0.81697 -0 -0.57668
vn -0.854419 -0 -0.519584
vn -0.887885 -0 -0.460065
vn -0.917211 -0 -0.398401
vn -0.942261 -0 -0.33488
vn -0.962917 -0 -0.269797
vn -0.979084 -0 -0.203456
vn -0.990686 -0 -0.136167
vn -0.997669 -0 -0.0682424
vn -1 -0 6.12323e-17
vn -0 -2.77556e-16 -1
vn 1 -0 0
vn -1 0 0
vn -0 -2.77556e-16 -1
vn 1 0 -0
vn 6.69962e-16 -1 -0
vn -0 -2.77556e-16 -1
vn 0 1 0
vn -1 -0 0
vn 6.69962e-16 -1 -0
vn -0 0 -1
vn -1 -0 0
vn 1 0 -0
vn 0 1 0
vn 0 0 1
vn 1 0 0
vn 0 1 0
vn -1 0 0
vn 0 0 -1
vt 4.64409 -0.12
vt 4.71239 -0.12
vt 4.71239 -0.17
vt 4.5758 -0.12
vt 4.64409 -0.17
vt 4.5075 -0.12
vt 4.5758 -0.17
vt 4.43921 -0.12
vt 4.5075 -0.17
vt 4.37091 -0.12
vt 4.43921 -0.17
vt 4.30262 -0.12
vt 4.37091 -0.17
vt 4.23432 -0.12
vt 4.30262 -0.17
vt 4.16603 -0.12
vt 4.23432 -0.17
vt 4.09773 -0.12
vt 4.16603 -0.17
vt 4.02943 -0.12
vt 4.09773 -0.17
vt 3.96114 -0.12
vt 4.02943 -0.17
vt 3.89284 -0.12
vt 3.96114 -0.17
vt 3.82455 -0.12
vt 3.89284 -0.17
vt 3.75625 -0.12
vt 3.82455 -0.17
vt 3.68796 -0.12
vt 3.75625 -0.17
vt 3.61966 -0.12
vt 3.68796 -0.17
vt 3.55137 -0.12
vt 3.61966 -0.17
vt 3.48307 -0.12
vt 3.55137 -0.17
vt 3.41477 -0.12
vt 3.48307 -0.17
vt 3.34648 -0.12
vt 3.41477 -0.17
vt 3.27818 -0.12
vt 3.34648 -0.17
vt 3.20989 -0.12
vt 3.27818 -0.17
vt 3.14159 -0.12
vt 3.20989 -0.17
vt 3.14159 -0.17
vt -0.065 0.12
vt -0.065 0.17
vt -0.0672685 0.17
vt -0.0672685 0.12
vt 0.0422685 0.12
vt 0.0422685 0.17
vt 0.0177315 0.17
vt 0.0177315 0.12
vt 3.0733 -0.12
vt 3.14159 -0.12
vt 3.14159 -0.17
vt 3.005 -0.12
vt 3.0733 -0.17
vt 2.93671 -0.12
vt 3.005 -0.17
vt 2.86841 -0.12
vt 2.93671 -0.17
vt 2.80012 -0.12
vt 2.86841 -0.17
vt 2.73182 -0.12
vt 2.80012 -0.17
vt 2.66352 -0.12
vt 2.73182 -0.17
vt 2.59523 -0.12
vt 2.66352 -0.17
vt 2.52693 -0.12
vt 2.59523 -0.17
vt 2.45864 -0.12
vt 2.52693 -0.17
vt 2.39034 -0.12
vt 2.45864 -0.17
vt 2.32205 -0.12
vt 2.39034 -0.17
vt 2.25375 -0.12
vt 2.32205 -0.17
vt 2.18546 -0.12
vt 2.25375 -0.17
vt 2.11716 -0.12
vt 2.18546 -0.17
vt 2.04886 -0.12
vt 2.11716 -0.17
vt 1.98057 -0.12
vt 2.04886 -0.17
vt 1.91227 -0.12
vt 1.98057 -0.17
vt 1.84398 -0.12
vt 1.91227 -0.17
vt 1.77568 -0.12
vt 1.84398 -0.17
vt 1.70739 -0.12
vt 1.77568 -0.17
vt 1.63909 -0.12
vt 1.70739 -0.17
vt 1.5708 -0.12
vt 1.63909 -0.17
vt 1.5708 -0.17
vt 0.065 0.17
vt 0.065 0.12
vt 0.0672685 0.12
vt 0.0672685 0.17
vt -0.45 -0.43
vt -0.45 -0.19
vt -0.4 -0.19
vt -0.4 -0.43
vt -0.15 0
vt -0.065 0
vt -0.065 0.05
vt -0.15 0.05
vt 0.095 0
vt 0.095 0.05
vt -0.075 0.05
vt -0.075 0
vt 0.15 0.05
vt 0.065 0.05
vt 0.065 0
vt 0.15 0
vt -0.45 -0.02
vt -0.45 0.23
vt -0.4 0.18
vt -0.4 0.23
vt -0.4 -0.02
vt 0 0.45
vt 0 0.4
vt 0.135 0.4
vt 0.135 0.45
vt 0.295 0.05
vt 0.228737 -0.0722683
vt 0.224479 -0.0685557
vt -0.175 -0.05
vt 0.100022 -0.0651424
vt 0.0955206 -0.0685557
vt 0.120026 -0.0547768
vt 0.114771 -0.0568492
vt 0.232732 -0.0762629
vt 0.239858 -0.0850219
vt 0.236444 -0.0805206
vt 0.0770441 -0.0897455
vt 0.0742754 -0.0946696
vt 0.0912629 -0.0722683
vt 0.125411 -0.0530679
vt 0.189101 -0.0517304
vt 0.183534 -0.0507706
vt 0.248151 -0.0997712
vt 0.245725 -0.0946696
vt -0.175 -0.135
vt 0.0651929 -0.127086
vt 0.065 -0.132731
vt 0.0657706 -0.121466
vt 0.0801424 -0.0850219
vt 0.0872683 -0.0762629
vt 0.0835557 -0.0805206
vt 0.104746 -0.0620441
vt 0.10967 -0.0592754
vt 0.194589 -0.0530679
vt 0.21033 -0.0592754
vt 0.205229 -0.0568492
vt 0.219978 -0.0651424
vt 0.242956 -0.0897455
vt 0.295 -0.135
vt 0.250223 -0.105026
vt 0.0718492 -0.0997712
vt 0.0697768 -0.105026
vt 0.130899 -0.0517304
vt 0.142086 -0.0501929
vt 0.136466 -0.0507706
vt 0.199974 -0.0547768
vt 0.215254 -0.0620441
vt 0.251932 -0.110411
vt 0.0667304 -0.115899
vt 0.0680679 -0.110411
vt 0.172269 -0.05
vt 0.147731 -0.05
vt 0.177914 -0.0501929
vt 0.255 -0.135
vt 0.255 -0.132731
vt 0.254229 -0.121466
vt 0.25327 -0.115899
vt 0.254807 -0.127086
vt -0.545 -0.135
vt -0.545 0.05
vt -0.345 -0.05
vt 0.065 -0.135
vt -0.345 -0.135
vt -0.635 -0.39
vt -0.545 -0.39
vt -0.595 -0.44
vt -0.545 -0.575
vt -0.595 -0.575
vt -0.635 -0.44
vt -0.45 -0.72
vt -0.45 -0.62
vt -0.4 -0.66
vt -0.4 -0.62
vt -0.4 -0.72
vt 0 -0.55
vt -0.0946696 -0.440725
vt -0.0997712 -0.443151
vt -0.0762629 -0.427732
vt -0.0805206 -0.431444
vt -0.0897455 -0.437956
vt -0.0850219 -0.434858
vt -0.0651424 -0.414978
vt -0.0685557 -0.419479
vt -0.0722683 -0.423737
vt -0.0620441 -0.410254
vt -0.105026 -0.445223
vt -0.110411 -0.446932
vt -0.0592754 -0.40533
vt -0.0547768 -0.394974
vt -0.0568492 -0.400229
vt -0.0530679 -0.389589
vt -0.0501929 -0.372914
vt -0.0507706 -0.378534
vt -0.05 -0.02
vt -0.0568492 -0.309771
vt -0.0547768 -0.315026
vt -0.0517304 -0.384101
vt -0.0501929 -0.337086
vt -0.05 -0.342731
vt -0.0517304 -0.325899
vt -0.0507706 -0.331466
vt -0.0530679 -0.320411
vt -0.0592754 -0.30467
vt -0.0651424 -0.295022
vt -0.0620441 -0.299746
vt -0.0722683 -0.286263
vt -0.0685557 -0.290521
vt -0.0850219 -0.275142
vt -0.0805206 -0.278556
vt -0.0946696 -0.269275
vt -0.0897455 -0.272044
vt -0.05 -0.367269
vt -0.0762629 -0.282268
vt -0.135 -0.02
vt -0.127086 -0.260193
vt -0.121466 -0.260771
vt -0.105026 -0.264777
vt -0.0997712 -0.266849
vt -0.135 -0.26
vt -0.132731 -0.26
vt -0.135 -0.55
vt -0.115899 -0.44827
vt -0.121466 -0.449229
vt -0.115899 -0.26173
vt -0.110411 -0.263068
vt -0.127086 -0.449807
vt -0.132731 -0.45
vt 0 0.4
vt -0.05 0.15
vt -0.135 0.4
vt -0.135 0.15
vt -0.135 -0.45
vt 0 0.575
vt 0.135 0.575
vt 0.135 0.525
vt 0 0.525
vt 0.295 -0.575
vt 0.295 -0.39
vt 0.355 -0.44
vt 0.395 -0.39
vt 0.395 -0.44
vt 0.355 -0.575
vt -0.04 0.625
vt -0.04 0.575
vt 0 0.575
vt 0 0.625
vt -0.55 0.45
vt -0.55 0.4
vt -0.5 0.4
vt -0.5 0.45
vt 0.04 0.3
vt 0 0.3
vt 0 0.25
vt 0.04 0.25
vt 0.55 0.45
vt 0.5 0.45
vt 0.5 0.4
vt 0.55 0.4
vt 0 -0.59
vt 0.05 -0.59
vt 0.05 -0.55
vt 0 -0.55
vt 0.05 0.44
vt 0 0.44
vt 0 0.4
vt 0.05 0.4
vt 0.6 0.59
vt -0.35 0.59
vt -0.29 0.5
vt 0.55 0.5
vt -0.39 0.5
vt -0.35 0.55
vt 0.6 0.55
vt 0.64 0.5
vt 0.64 0.55
vt -0.39 0.55
vt -0.025 0
vt -0.025 -0.04
vt 0.025 -0.04
vt 0.025 0
vt -0.6 0.4
vt 0.35 0.4
vt 0.35 0.45
vt -0.6 0.45
vt -0.025 0
vt -0.025 -0.04
vt 0.025 -0.04
vt 0.025 0
vt -0.475 0
vt -0.475 -0.04
vt 0.475 -0.04
vt 0.475 0
f 1/1/1 2/2/2 3/3/2
f 4/4/3 1/1/1 5/5/4
f 6/6/5 4/4/3 7/7/6
f 8/8/7 6/6/5 9/9/8
f 10/10/9 8/8/7 11/11/10
f 12/12/11 10/10/9 13/13/12
f 14/14/13 12/12/11 15/15/14
f 16/16/15 14/14/13 17/17/16
f 18/18/17 16/16/15 19/19/18
f 20/20/19 18/18/17 21/21/20
f 22/22/21 20/20/19 23/23/22
f 24/24/23 22/22/21 25/25/24
f 26/26/25 24/24/23 27/27/26
f 28/28/27 26/26/25 29/29/28
f 30/30/29 28/28/27 31/31/30
f 32/32/31 30/30/29 33/33/32
f 34/34/33 32/32/31 35/35/34
f 36/36/35 34/34/33 37/37/36
f 38/38/37 36/36/35 39/39/38
f 40/40/39 38/38/37 41/41/40
f 42/42/41 40/40/39 43/43/42
f 44/44/43 42/42/41 45/45/44
f 46/46/45 44/44/43 47/47/46
f 47/47/46 48/48/45 46/46/45
f 45/45/44 47/47/46 44/44/43
f 43/43/42 45/45/44 42/42/41
f 41/41/40 43/43/42 40/40/39
f 39/39/38 41/41/40 38/38/37
f 37/37/36 39/39/38 36/36/35
f 35/35/34 37/37/36 34/34/33
f 33/33/32 35/35/34 32/32/31
f 31/31/30 33/33/32 30/30/29
f 29/29/28 31/31/30 28/28/27
f 27/27/26 29/29/28 26/26/25
f 25/25/24 27/27/26 24/24/23
f 23/23/22 25/25/24 22/22/21
f 21/21/20 23/23/22 20/20/19
f 19/19/18 21/21/20 18/18/17
f 17/17/16 19/19/18 16/16/15
f 15/15/14 17/17/16 14/14/13
f 13/13/12 15/15/14 12/12/11
f 11/11/10 13/13/12 10/10/9
f 9/9/8 11/11/10 8/8/7
f 7/7/6 9/9/8 6/6/5
f 5/5/4 7/7/6 4/4/3
f 3/3/2 5/5/4 1/1/1
f 49/49/47 50/50/47 3/51/47
f 3/51/47 2/52/47 49/49/47
f 46/53/48 48/54/48 51/55/48
f 51/55/48 52/56/48 46/53/48
f 53/57/49 52/58/48 51/59/48
f 54/60/50 53/57/49 55/61/49
f 56/62/51 54/60/50 57/63/50
f 58/64/52 56/62/51 59/65/51
f 60/66/53 58/64/52 61/67/52
f 62/68/54 60/66/53 63/69/53
f 64/70/55 62/68/54 65/71/54
f 66/72/56 64/70/55 67/73/55
f 68/74/57 66/72/56 69/75/56
f 70/76/58 68/74/57 71/77/57
f 72/78/59 70/76/58 73/79/58
f 74/80/60 72/78/59 75/81/59
f 76/82/61 74/80/60 77/83/60
f 78/84/62 76/82/61 79/85/61
f 80/86/63 78/84/62 81/87/62
f 82/88/64 80/86/63 83/89/63
f 84/90/65 82/88/64 85/91/64
f 86/92/66 84/90/65 87/93/65
f 88/94/67 86/92/66 89/95/66
f 90/96/68 88/94/67 91/97/67
f 92/98/69 90/96/68 93/99/68
f 94/100/70 92/98/69 95/101/69
f 96/102/71 94/100/70 97/103/70
f 97/103/70 98/104/71 96/102/71
f 95/101/69 97/103/70 94/100/70
f 93/99/68 95/101/69 92/98/69
f 91/97/67 93/99/68 90/96/68
f 89/95/66 91/97/67 88/94/67
f 87/93/65 89/95/66 86/92/66
f 85/91/64 87/93/65 84/90/65
f 83/89/63 85/91/64 82/88/64
f 81/87/62 83/89/63 80/86/63
f 79/85/61 81/87/62 78/84/62
f 77/83/60 79/85/61 76/82/61
f 75/81/59 77/83/60 74/80/60
f 73/79/58 75/81/59 72/78/59
f 71/77/57 73/79/58 70/76/58
f 69/75/56 71/77/57 68/74/57
f 67/73/55 69/75/56 66/72/56
f 65/71/54 67/73/55 64/70/55
f 63/69/53 65/71/54 62/68/54
f 61/67/52 63/69/53 60/66/53
f 59/65/51 61/67/52 58/64/52
f 57/63/50 59/65/51 56/62/51
f 55/61/49 57/63/50 54/60/50
f 51/59/48 55/61/49 53/57/49
f 99/105/71 100/106/71 96/107/71
f 96/107/71 98/108/71 99/105/71
f 99/109/72 101/110/72 102/111/72
f 102/111/72 100/112/72 99/109/72
f 103/113/73 102/114/73 101/115/73
f 101/115/73 104/116/73 103/113/73
f 103/117/72 104/118/72 105/119/72
f 105/119/72 106/120/72 103/117/72
f 105/121/74 107/122/74 108/123/74
f 108/123/74 106/124/74 105/121/74
f 107/125/75 109/126/75 110/127/75
f 109/126/75 111/128/75 110/127/75
f 110/127/75 108/129/75 107/125/75
f 112/130/76 113/131/76 111/132/76
f 111/132/76 109/133/76 112/130/76
f 114/134/77 24/135/77 26/136/77
f 103/137/77 68/138/77 70/139/77
f 103/137/77 60/140/77 62/141/77
f 114/134/77 22/142/77 24/135/77
f 114/134/77 18/143/77 20/144/77
f 103/137/77 80/145/77 82/146/77
f 70/139/77 72/147/77 103/137/77
f 103/137/77 58/148/77 60/140/77
f 114/134/77 40/149/77 42/150/77
f 20/144/77 22/142/77 114/134/77
f 114/134/77 12/151/77 14/152/77
f 102/153/77 94/154/77 96/155/77
f 102/153/77 103/137/77 92/156/77
f 103/137/77 78/157/77 80/145/77
f 103/137/77 74/158/77 76/159/77
f 103/137/77 66/160/77 68/138/77
f 62/141/77 64/161/77 103/137/77
f 114/134/77 38/162/77 40/149/77
f 114/134/77 32/163/77 34/164/77
f 26/136/77 28/165/77 114/134/77
f 14/152/77 16/166/77 114/134/77
f 114/134/77 115/167/77 10/168/77
f 92/156/77 94/154/77 102/153/77
f 103/137/77 84/169/77 86/170/77
f 76/159/77 78/157/77 103/137/77
f 64/161/77 66/160/77 103/137/77
f 114/134/77 56/171/77 58/148/77
f 114/134/77 53/172/77 54/173/77
f 114/134/77 36/174/77 38/162/77
f 114/134/77 30/175/77 32/163/77
f 16/166/77 18/143/77 114/134/77
f 115/167/77 8/176/77 10/168/77
f 103/137/77 90/177/77 92/156/77
f 86/170/77 88/178/77 103/137/77
f 72/147/77 74/158/77 103/137/77
f 54/173/77 56/171/77 114/134/77
f 114/134/77 46/179/77 52/180/77
f 34/164/77 36/174/77 114/134/77
f 10/168/77 12/151/77 114/134/77
f 88/178/77 90/177/77 103/137/77
f 58/148/77 103/137/77 114/134/77
f 114/134/77 44/181/77 46/179/77
f 28/165/77 30/175/77 114/134/77
f 115/167/77 49/182/77 2/183/77
f 82/146/77 84/169/77 103/137/77
f 42/150/77 44/181/77 114/134/77
f 115/167/77 4/184/77 6/185/77
f 2/183/77 1/186/77 115/167/77
f 110/187/77 116/188/77 106/189/77
f 116/188/77 114/134/77 103/137/77
f 52/180/77 53/172/77 114/134/77
f 1/186/77 4/184/77 115/167/77
f 103/137/77 106/189/77 116/188/77
f 6/185/77 8/176/77 115/167/77
f 96/155/77 100/190/77 102/153/77
f 106/189/77 108/191/77 110/187/77
f 117/192/77 116/193/77 113/194/77
f 110/195/77 111/196/77 113/194/77
f 113/194/77 116/193/77 110/195/77
f 113/194/77 118/197/77 117/192/77
f 119/198/78 50/199/78 115/200/78
f 50/199/78 49/201/78 115/200/78
f 115/200/78 120/202/78 119/198/78
f 121/203/79 17/204/79 15/205/79
f 121/203/79 25/206/79 23/207/79
f 121/203/79 19/208/79 17/204/79
f 23/207/79 21/209/79 121/203/79
f 21/209/79 19/208/79 121/203/79
f 121/203/79 31/210/79 29/211/79
f 121/203/79 27/212/79 25/206/79
f 121/203/79 33/213/79 31/210/79
f 29/211/79 27/212/79 121/203/79
f 121/203/79 13/214/79 11/215/79
f 121/203/79 35/216/79 33/213/79
f 121/203/79 39/217/79 37/218/79
f 15/205/79 13/214/79 121/203/79
f 121/203/79 41/219/79 39/217/79
f 121/203/79 47/220/79 45/221/79
f 104/222/79 65/223/79 63/224/79
f 37/218/79 35/216/79 121/203/79
f 45/221/79 43/225/79 121/203/79
f 121/203/79 55/226/79 51/227/79
f 121/203/79 59/228/79 57/229/79
f 104/222/79 61/230/79 59/228/79
f 104/222/79 67/231/79 65/223/79
f 104/222/79 71/232/79 69/233/79
f 104/222/79 75/234/79 73/235/79
f 104/222/79 81/236/79 79/237/79
f 104/222/79 85/238/79 83/239/79
f 43/225/79 41/219/79 121/203/79
f 51/227/79 48/240/79 121/203/79
f 59/228/79 121/203/79 104/222/79
f 69/233/79 67/231/79 104/222/79
f 104/222/79 77/241/79 75/234/79
f 83/239/79 81/236/79 104/222/79
f 101/242/79 97/243/79 95/244/79
f 48/240/79 47/220/79 121/203/79
f 63/224/79 61/230/79 104/222/79
f 79/237/79 77/241/79 104/222/79
f 104/222/79 89/245/79 87/246/79
f 95/244/79 104/222/79 101/242/79
f 101/242/79 99/247/79 98/248/79
f 119/249/79 9/250/79 7/251/79
f 57/229/79 55/226/79 121/203/79
f 87/246/79 85/238/79 104/222/79
f 104/222/79 93/252/79 91/253/79
f 98/248/79 97/243/79 101/242/79
f 119/249/79 5/254/79 3/255/79
f 119/249/79 11/215/79 9/250/79
f 73/235/79 71/232/79 104/222/79
f 95/244/79 93/252/79 104/222/79
f 7/251/79 5/254/79 119/249/79
f 91/253/79 89/245/79 104/222/79
f 11/215/79 119/249/79 121/203/79
f 112/256/79 105/257/79 104/222/79
f 104/222/79 121/203/79 112/256/79
f 109/258/79 107/259/79 105/257/79
f 105/257/79 112/256/79 109/258/79
f 3/255/79 50/260/79 119/249/79
f 121/261/80 119/262/80 120/263/80
f 120/263/80 122/264/80 121/261/80
f 115/265/81 114/266/81 122/267/81
f 123/268/81 124/269/81 122/267/81
f 122/267/81 114/266/81 123/268/81
f 122/267/81 120/270/81 115/265/81
f 121/271/82 122/272/82 124/273/82
f 124/273/82 125/274/82 121/271/82
f 126/275/83 125/276/83 124/277/83
f 124/277/83 123/278/83 126/275/83
f 112/279/82 127/280/82 118/281/82
f 118/281/82 113/282/82 112/279/82
f 128/283/84 117/284/84 118/285/84
f 118/285/84 127/286/84 128/283/84
f 125/287/85 126/288/85 129/289/85
f 129/289/85 121/290/85 125/287/85
f 128/291/85 127/292/85 112/293/85
f 112/293/85 130/294/85 128/291/85
f 131/295/86 132/296/86 114/297/86
f 114/297/86 116/298/86 131/295/86
f 123/299/86 114/297/86 129/300/86
f 132/296/86 129/300/86 114/297/86
f 116/298/86 130/301/86 131/295/86
f 117/302/86 128/303/86 130/301/86
f 130/301/86 116/298/86 117/302/86
f 129/300/86 126/304/86 123/299/86
f 131/305/87 130/306/87 112/307/87
f 112/307/87 133/308/87 131/305/87
f 133/309/88 134/310/88 132/311/88
f 132/311/88 131/312/88 133/309/88
f 134/313/89 121/314/89 129/315/89
f 129/315/89 132/316/89 134/313/89
f 133/317/90 112/318/90 121/319/90
f 121/319/90 134/320/90 133/317/90
