g Body_02
v -0.29 0.45 0.265 0.627451 0.627451 0.643137
v -0.35 0.45 0.265 0.627451 0.627451 0.643137
v -0.35 0.5 0.265 0.627451 0.627451 0.643137
v -0.29 0.5 0.265 0.627451 0.627451 0.643137
v -0.35 0.45 0.35 0.627451 0.627451 0.643137
v -0.29 0.45 0.35 0.627451 0.627451 0.643137
v -0.35 0.3 0.35 0.627451 0.627451 0.643137
v -0.29 0.3 0.35 0.627451 0.627451 0.643137
v -0.35 0.3 0.265 0.627451 0.627451 0.643137
v -0.29 0.3 0.265 0.627451 0.627451 0.643137
v -0.35 0.15 0.265 0.627451 0.627451 0.643137
v -0.29 0.15 0.265 0.627451 0.627451 0.643137
v -0.35 0.15 0.35 0.627451 0.627451 0.643137
v -0.29 0.15 0.35 0.627451 0.627451 0.643137
v -0.35 0 0.35 0.627451 0.627451 0.643137
v -0.29 0 0.35 0.627451 0.627451 0.643137
v -0.29 0.5 0.45 0.627451 0.627451 0.643137
v -0.29 0 0.45 0.627451 0.627451 0.643137
v -0.35 0 0.4 0.627451 0.627451 0.643137
v -0.35 0.5 0.4 0.627451 0.627451 0.643137
v -0.39 0 0.45 0.627451 0.627451 0.643137
v -0.39 0 0.4 0.627451 0.627451 0.643137
v -0.39 0.5 0.45 0.627451 0.627451 0.643137
v -0.39 0.5 0.4 0.627451 0.627451 0.643137
vn -0 -2.77556e-16 -1
vn 0 -1 0
vn 0 1 0
vn -0 -2.77556e-16 -1
vn 0 -1 0
vn 1 8.26762e-16 -0
vn -1 -0 0
vn 0 -1 0
vn -6.69962e-16 1 0
vn -1 -0 0
vn 0 0 1
vn -0 0 -1
vt -0.35 -0.66
vt -0.35 -0.72
vt -0.4 -0.72
vt -0.4 -0.66
vt -0.15 -0.1
vt -0.065 -0.1
vt -0.065 -0.04
vt -0.15 -0.04
vt 0.1 -0.075
vt 0.1 0.075
vt 0.04 0.075
vt 0.04 -0.075
vt 0.065 -0.1
vt 0.15 -0.1
vt 0.15 -0.04
vt 0.065 -0.04
vt -0.05 -0.72
vt -0.2 -0.72
vt -0.2 -0.66
vt -0.05 -0.66
vt -0.15 -0.17
vt -0.065 -0.17
vt -0.065 -0.11
vt -0.15 -0.11
vt 0.17 -0.075
vt 0.17 0.075
vt 0.11 0.075
vt 0.11 -0.075
vt -0.535 -0.135
vt -0.535 0.05
vt -0.485 -0.05
vt -0.185 -0.05
vt -0.335 -0.05
vt -0.185 -0.135
vt -0.335 -0.135
vt -0.035 0.05
vt -0.035 -0.05
vt -0.485 -0.135
vt 0 0.025
vt 0.05 0.325
vt 0.05 0.175
vt 0.135 0.325
vt 0.135 0.175
vt 0 0.525
vt 0.05 0.475
vt 0.135 0.525
vt 0.135 0.475
vt 0.05 0.025
vt 0.05 -0.65
vt -0.05 -0.65
vt -0 -0.71
vt -0.05 -0.75
vt -0 -0.75
vt 0.05 -0.71
vt 0.395 -0.39
vt 0.295 -0.39
vt 0.355 -0.44
vt 0.295 -0.575
vt 0.355 -0.575
vt 0.395 -0.44
vt 0 0.45
vt -0.5 0.45
vt -0.5 0.4
vt 0 0.4
vt -0.39 0
vt -0.29 0
vt -0.29 0.5
vt -0.39 0.5
vt -0.04 0.075
vt 0 0.075
vt 0 0.575
vt -0.04 0.575
f 1/1/1 2/2/1 3/3/1
f 3/3/1 4/4/1 1/1/1
f 5/5/2 2/6/2 1/7/2
f 1/7/2 6/8/2 5/5/2
f 7/9/1 5/10/1 6/11/1
f 6/11/1 8/12/1 7/9/1
f 9/13/3 7/14/3 8/15/3
f 8/15/3 10/16/3 9/13/3
f 11/17/4 9/18/4 10/19/4
f 10/19/4 12/20/4 11/17/4
f 13/21/5 11/22/5 12/23/5
f 12/23/5 14/24/5 13/21/5
f 15/25/4 13/26/4 14/27/4
f 14/27/4 16/28/4 15/25/4
f 4/29/6 17/30/6 6/31/6
f 17/30/6 14/32/6 8/33/6
f 8/33/6 6/31/6 17/30/6
f 8/33/6 14/32/6 12/34/6
f 12/34/6 10/35/6 8/33/6
f 18/36/6 16/37/6 14/32/6
f 14/32/6 17/30/6 18/36/6
f 6/31/6 1/38/6 4/29/6
f 19/39/7 7/40/7 13/41/7
f 7/40/7 9/42/7 11/43/7
f 11/43/7 13/41/7 7/40/7
f 20/44/7 5/45/7 7/40/7
f 7/40/7 19/39/7 20/44/7
f 3/46/7 2/47/7 5/45/7
f 5/45/7 20/44/7 3/46/7
f 13/41/7 15/48/7 19/39/7
f 16/49/8 18/50/8 19/51/8
f 21/52/8 22/53/8 19/51/8
f 19/51/8 18/50/8 21/52/8
f 19/51/8 15/54/8 16/49/8
f 23/55/9 17/56/9 20/57/9
f 4/58/9 3/59/9 20/57/9
f 20/57/9 17/56/9 4/58/9
f 20/57/9 24/60/9 23/55/9
f 21/61/10 23/62/10 24/63/10
f 24/63/10 22/64/10 21/61/10
f 21/65/11 18/66/11 17/67/11
f 17/67/11 23/68/11 21/65/11
f 19/69/12 22/70/12 24/71/12
f 24/71/12 20/72/12 19/69/12
