g Body_01_(1)
v 0.41 0.5 0.45 0.627451 0.627451 0.643137
v 0.41 0.5 0.44 0.627451 0.627451 0.643137
v 0.55 0.5 0.44 0.627451 0.627451 0.643137
v 0.55 0.5 0.45 0.627451 0.627451 0.643137
v 0.41 0.25 0.44 0.627451 0.627451 0.643137
v 0.41 0.25 0.45 0.627451 0.627451 0.643137
v -0.34 0.25 0.44 0.627451 0.627451 0.643137
v 0.15 0.25 0.45 0.627451 0.627451 0.643137
v -0.34 0.25 0.45 0.627451 0.627451 0.643137
v -0.34 0.54 0.45 0.627451 0.627451 0.643137
v 0.55 0.54 0.45 0.627451 0.627451 0.643137
v -0.34 0.54 0.44 0.627451 0.627451 0.643137
v 0.55 0.54 0.44 0.627451 0.627451 0.643137
vn 1.58603e-15 -1 0
vn 1 -0 -0
vn 0 0 1
vn -0 -0 -1
vn 1 0 -0
vn -1 -8.26762e-16 0
vn -1.38778e-15 1 0
vt -0.07 0.06
vt -0.07 0.05
vt 0.07 0.05
vt 0.07 0.06
vt 0.05 -0.1
vt 0.05 0.15
vt 0.06 0.15
vt 0.06 -0.1
vt -0.4 -0.69
vt -0.4 0.06
vt -0.39 -0.2
vt -0.39 0.06
vt -0.39 -0.69
vt -0.34 0.54
vt -0.34 0.25
vt 0.15 0.25
vt 0.55 0.54
vt 0.41 0.5
vt 0.41 0.25
vt 0.55 0.5
vt -0.34 0.25
vt -0.34 0.54
vt 0.41 0.5
vt 0.55 0.54
vt 0.55 0.5
vt 0.41 0.25
vt 0.01 0.4
vt 0.01 0.44
vt 0 0.44
vt -5.55112e-17 0.4
vt -0.575 -0.01
vt -0.285 -0.01
vt -0.285 0
vt -0.575 0
vt -0.39 0
vt -0.39 -0.01
vt 0.5 -0.01
vt 0.5 0
f 1/1/1 2/2/1 3/3/1
f 3/3/1 4/4/1 1/1/1
f 5/5/2 2/6/2 1/7/2
f 1/7/2 6/8/2 5/5/2
f 7/9/1 5/10/1 8/11/1
f 5/10/1 6/12/1 8/11/1
f 8/11/1 9/13/1 7/9/1
f 10/14/3 9/15/3 8/16/3
f 11/17/3 10/14/3 1/18/3
f 8/16/3 1/18/3 10/14/3
f 8/16/3 6/19/3 1/18/3
f 1/18/3 4/20/3 11/17/3
f 7/21/4 12/22/4 2/23/4
f 13/24/4 3/25/4 2/23/4
f 2/23/4 12/22/4 13/24/4
f 2/23/4 5/26/4 7/21/4
f 3/27/5 13/28/5 11/29/5
f 11/29/5 4/30/5 3/27/5
f 12/31/6 7/32/6 9/33/6
f 9/33/6 10/34/6 12/31/6
f 11/35/7 13/36/7 12/37/7
f 12/37/7 10/38/7 11/35/7
