g Body_01
v -0.34 0.25 0 0.627451 0.627451 0.643137
v 0.55 0.25 0 0.627451 0.627451 0.643137
v 0.15 0.25 0.01 0.627451 0.627451 0.643137
v 0.55 0.25 0.01 0.627451 0.627451 0.643137
v -0.34 0.25 0.01 0.627451 0.627451 0.643137
v 0.55 0.54 0.01 0.627451 0.627451 0.643137
v 0.55 0.54 0 0.627451 0.627451 0.643137
v -0.34 0.54 0 0.627451 0.627451 0.643137
v -0.34 0.54 0.01 0.627451 0.627451 0.643137
vn -0 -1 -0
vn 1 0 -0
vn -1 -8.26762e-16 0
vn 0 0 1
vn -0 -0 -1
vn -1.38778e-15 1 0
vt -0.4 -0.69
vt -0.4 0.2
vt -0.39 -0.2
vt -0.39 0.2
vt -0.39 -0.69
vt 0 0.44
vt 0 0.15
vt 0.01 0.15
vt 0.01 0.44
vt -0.575 -0.01
vt -0.285 -0.01
vt -0.285 0
vt -0.575 0
vt -0.34 0.54
vt -0.34 0.25
vt 0.15 0.25
vt 0.55 0.54
vt 0.55 0.25
vt 0.55 0.54
vt 0.55 0.25
vt -0.34 0.25
vt -0.34 0.54
vt -0.39 0
vt -0.39 -0.01
vt 0.5 -0.01
vt 0.5 0
f 1/1/1 2/2/1 3/3/1
f 2/2/1 4/4/1 3/3/1
f 3/3/1 5/5/1 1/1/1
f 6/6/2 4/7/2 2/8/2
f 2/8/2 7/9/2 6/6/2
f 8/10/3 1/11/3 5/12/3
f 5/12/3 9/13/3 8/10/3
f 9/14/4 5/15/4 3/16/4
f 3/16/4 6/17/4 9/14/4
f 3/16/4 4/18/4 6/17/4
f 7/19/5 2/20/5 1/21/5
f 1/21/5 8/22/5 7/19/5
f 6/23/6 7/24/6 8/25/6
f 8/25/6 9/26/6 6/23/6
