g Body_01_(2)
v -0.3 -0.26 0.35 0.627451 0.627451 0.643137
v -0.28 -0.26 0.35 0.627451 0.627451 0.643137
v -0.28 -0.26 0.25 0.627451 0.627451 0.643137
v -0.3 -0.26 0.25 0.627451 0.627451 0.643137
v -0.28 -0.2 0.25 0.627451 0.627451 0.643137
v -0.3 -0.2 0.25 0.627451 0.627451 0.643137
v -0.28 -0.2 0.35 0.627451 0.627451 0.643137
v -0.3 -0.2 0.35 0.627451 0.627451 0.643137
v -0.3 -0.2975 0.405 0.627451 0.627451 0.643137
v -0.3 -0.04 0.405 0.627451 0.627451 0.643137
v -0.3 -0.04 0.205 0.627451 0.627451 0.643137
v -0.3 -0.2975 0.205 0.627451 0.627451 0.643137
v -0.07 -0.04 0.405 0.627451 0.627451 0.643137
v -0.07 -0.04 0.205 0.627451 0.627451 0.643137
v -0.07 -0.055 0.405 0.627451 0.627451 0.643137
v -0.07 -0.055 0.205 0.627451 0.627451 0.643137
v -0.185 -0.055 0.405 0.627451 0.627451 0.643137
v -0.185 -0.055 0.205 0.627451 0.627451 0.643137
v -0.185 -0.08 0.405 0.627451 0.627451 0.643137
v -0.185 -0.08 0.205 0.627451 0.627451 0.643137
v -0.2 -0.08 0.405 0.627451 0.627451 0.643137
v -0.2 -0.08 0.205 0.627451 0.627451 0.643137
v -0.2 -0.055 0.405 0.627451 0.627451 0.643137
v -0.2 -0.055 0.205 0.627451 0.627451 0.643137
v -0.28 -0.055 0.405 0.627451 0.627451 0.643137
v -0.28 -0.055 0.205 0.627451 0.627451 0.643137
v -0.28 -0.15 0.405 0.627451 0.627451 0.643137
v -0.28 -0.15 0.205 0.627451 0.627451 0.643137
v -0.2 -0.15 0.405 0.627451 0.627451 0.643137
v -0.2 -0.15 0.205 0.627451 0.627451 0.643137
v -0.2 -0.13 0.405 0.627451 0.627451 0.643137
v -0.2 -0.13 0.205 0.627451 0.627451 0.643137
v -0.185 -0.13 0.405 0.627451 0.627451 0.643137
v -0.185 -0.13 0.205 0.627451 0.627451 0.643137
v -0.185 -0.16 0.405 0.627451 0.627451 0.643137
v -0.185 -0.16 0.205 0.627451 0.627451 0.643137
v -0.28 -0.16 0.405 0.627451 0.627451 0.643137
v -0.28 -0.16 0.205 0.627451 0.627451 0.643137
v -0.28 -0.28 0.405 0.627451 0.627451 0.643137
v -0.28 -0.28 0.205 0.627451 0.627451 0.643137
v -0.07 -0.2975 0.205 0.627451 0.627451 0.643137
v -0.09 -0.28 0.205 0.627451 0.627451 0.643137
v -0.07 -0.12 0.205 0.627451 0.627451 0.643137
v -0.09 -0.12 0.205 0.627451 0.627451 0.643137
v -0.07 -0.2975 0.405 0.627451 0.627451 0.643137
v -0.09 -0.28 0.405 0.627451 0.627451 0.643137
v -0.07 -0.12 0.405 0.627451 0.627451 0.643137
v -0.09 -0.12 0.405 0.627451 0.627451 0.643137
v -0.245 -0.2975 0.35 0.627451 0.627451 0.643137
v -0.19 -0.2975 0.35 0.627451 0.627451 0.643137
v -0.245 -0.2975 0.25 0.627451 0.627451 0.643137
v -0.18 -0.2975 0.25 0.627451 0.627451 0.643137
v -0.19 -0.2975 0.25 0.627451 0.627451 0.643137
v -0.18 -0.2975 0.35 0.627451 0.627451 0.643137
v -0.125 -0.2975 0.35 0.627451 0.627451 0.643137
v -0.125 -0.2975 0.25 0.627451 0.627451 0.643137
v -0.19 -0.28 0.25 0.627451 0.627451 0.643137
v -0.18 -0.28 0.25 0.627451 0.627451 0.643137
v -0.19 -0.28 0.35 0.627451 0.627451 0.643137
v -0.18 -0.28 0.35 0.627451 0.627451 0.643137
v -0.245 -0.28 0.25 0.627451 0.627451 0.643137
v -0.245 -0.28 0.35 0.627451 0.627451 0.643137
v -0.125 -0.28 0.35 0.627451 0.627451 0.643137
v -0.125 -0.28 0.25 0.627451 0.627451 0.643137
vn 2.23911e-16 1 -0
vn 2.58949e-32 1.15648e-16 1
vn -2.23911e-16 -1 -0
vn -0 0 -1
vn -1 2.23911e-16 0
vn 0 1 0
vn 1 1.85037e-15 0
vn -0 -1 -0
vn -1 -0 -0
vn 1 0 0
vn -0 1 -0
vn -1 -0 -0
vn 1 0 0
vn -0 -1 -0
vn -0 -0 -1
vn 0 0 1
vn -1 -0 -0
vn -0 1 -0
vn 1 -0 -0
vn -2.20194e-16 -1 0
vn -0 1 -0
vn 0 0 1
vn 1 -2.20194e-16 0
vn 0 -0 -1
vn -1 2.20194e-16 0
vn 0 0 1
vn 1 -2.20194e-16 0
vn 0 -0 -1
vn -1 2.20194e-16 0
vt -0.05 0.05
vt -0.03 0.05
vt -0.03 -0.05
vt -0.05 -0.05
vt -0.03 -0.05
vt -0.03 -0.03
vt 0.03 -0.03
vt 0.03 -0.05
vt 0.05 -0.05
vt 0.03 -0.05
vt 0.03 0.05
vt 0.05 0.05
vt -0.05 0.03
vt -0.03 0.03
vt -0.03 -0.03
vt -0.05 -0.03
vt -0.2975 -0.2
vt -0.04 -0.2
vt -0.2 -0.145
vt -0.04 0
vt -0.2 -0.045
vt -0.2975 -0
vt -0.26 -0.045
vt -0.26 -0.145
vt 0 -0.22
vt 0.2 -0.22
vt 0.2 0.01
vt 0 0.01
vt -0.0075 0
vt 0.0075 0
vt 0.0075 0.2
vt -0.0075 0.2
vt 0 -0.0075
vt 0.2 -0.0075
vt 0.2 -0.1225
vt 0 -0.1225
vt 0 -0.0125
vt 0.2 -0.0125
vt 0.2 0.0125
vt 0 0.0125
vt 0 0.0075
vt 0.2 0.0075
vt 0.2 -0.0075
vt 0 -0.0075
vt 0 0.0125
vt 0.2 0.0125
vt 0.2 -0.0125
vt 0 -0.0125
vt 0 0.0875
vt 0.2 0.0875
vt 0.2 0.0075
vt 0 0.0075
vt 0 -0.1025
vt 0.2 -0.1025
vt 0.2 -0.0075
vt 0 -0.0075
vt 0 -0.04
vt -0.2 -0.04
vt -0.2 0.04
vt 0 0.04
vt 0 0.0039671
vt 0.2 0.0039671
vt 0.2 -0.0160329
vt 0 -0.0160329
vt 0.0075 0
vt 0.0075 0.2
vt -0.0075 0.2
vt -0.0075 0
vt 0 -0.0260329
vt 0.2 -0.0260329
vt 0.2 0.0039671
vt 0 0.0039671
vt 0 0.0475
vt 0.2 0.0475
vt 0.2 -0.0475
vt 0 -0.0475
vt 0 -0.2325
vt 0.055 -0.2125
vt 0.055 -0.1525
vt 0.2 -0.2325
vt 0.155 -0.2125
vt 0.2 -0.1125
vt 0.155 -0.1525
vt 0 -0.1125
vt -0.3 -0.2975
vt -0.28 -0.15
vt -0.28 -0.16
vt -0.185 -0.13
vt -0.185 -0.16
vt -0.2 -0.15
vt -0.07 -0.2975
vt -0.28 -0.28
vt -0.09 -0.28
vt -0.3 -0.04
vt -0.28 -0.055
vt -0.185 -0.055
vt -0.2 -0.055
vt -0.2 -0.08
vt -0.185 -0.08
vt -0.07 -0.04
vt -0.07 -0.055
vt -0.07 -0.12
vt -0.2 -0.13
vt -0.09 -0.12
vt -0.2 -0.08
vt -0.185 -0.08
vt -0.185 -0.055
vt -0.3 -0.04
vt -0.28 -0.055
vt -0.2 -0.055
vt -0.28 -0.16
vt -0.28 -0.15
vt -0.185 -0.16
vt -0.2 -0.15
vt -0.185 -0.13
vt -0.2 -0.13
vt -0.3 -0.2975
vt -0.28 -0.28
vt -0.07 -0.2975
vt -0.09 -0.28
vt -0.07 -0.12
vt -0.09 -0.12
vt -0.07 -0.04
vt -0.07 -0.055
vt 0 0.08
vt 0.2 0.08
vt 0.2 -0.08
vt 0 -0.08
vt 0 -0.01
vt -0.2 -0.01
vt -0.2 0.01
vt 0 0.01
vt 0 -0.08875
vt -0.2 -0.08875
vt -0.2 0.08875
vt 0 0.08875
vt 0.3 -0.2
vt 0.245 -0.145
vt 0.19 -0.145
vt 0.3 0
vt 0.245 -0.045
vt 0.18 -0.045
vt 0.19 -0.045
vt 0.07 -0.2
vt 0.18 -0.145
vt 0.125 -0.145
vt 0.07 0
vt 0.125 -0.045
vt -0.2 -0.095
vt -0.155 0.005
vt -0.155 -0.005
vt -0.055 0.005
vt -0.055 -0.005
vt -0.2 0.095
vt -0.155 0.06
vt 0 0.095
vt -0.055 0.06
vt 0 -0.095
vt -0.055 -0.06
vt -0.155 -0.06
vt -0.0275 -0.0825
vt -0.0275 -0.1
vt 0.0275 -0.1
vt 0.0275 -0.0825
vt -0.1 -0.05
vt -0.0825 -0.05
vt -0.0825 0.05
vt -0.1 0.05
vt 0.0275 -0.1
vt 0.0275 -0.0825
vt -0.0275 -0.0825
vt -0.0275 -0.1
vt 0.0825 0.05
vt 0.0825 -0.05
vt 0.1 -0.05
vt 0.1 0.05
vt 0.0275 -0.0825
vt -0.0275 -0.0825
vt -0.0275 -0.1
vt 0.0275 -0.1
vt -0.1 -0.05
vt -0.0825 -0.05
vt -0.0825 0.05
vt -0.1 0.05
vt -0.0275 -0.0825
vt -0.0275 -0.1
vt 0.0275 -0.1
vt 0.0275 -0.0825
vt 0.0825 0.05
vt 0.0825 -0.05
vt 0.1 -0.05
vt 0.1 0.05
f 1/1/1 2/2/1 3/3/1
f 3/3/1 4/4/1 1/1/1
f 4/5/2 3/6/2 5/7/2
f 5/7/2 6/8/2 4/5/2
f 6/9/3 5/10/3 7/11/3
f 7/11/3 8/12/3 6/9/3
f 8/13/4 7/14/4 2/15/4
f 2/15/4 1/16/4 8/13/4
f 9/17/5 10/18/5 8/19/5
f 11/20/5 6/21/5 8/19/5
f 8/19/5 10/18/5 11/20/5
f 12/22/5 4/23/5 6/21/5
f 6/21/5 11/20/5 12/22/5
f 12/22/5 9/17/5 1/24/5
f 1/24/5 4/23/5 12/22/5
f 8/19/5 1/24/5 9/17/5
f 13/25/6 14/26/6 11/27/6
f 11/27/6 10/28/6 13/25/6
f 13/29/7 15/30/7 16/31/7
f 16/31/7 14/32/7 13/29/7
f 17/33/8 18/34/8 16/35/8
f 16/35/8 15/36/8 17/33/8
f 19/37/7 20/38/7 18/39/7
f 18/39/7 17/40/7 19/37/7
f 21/41/8 22/42/8 20/43/8
f 20/43/8 19/44/8 21/41/8
f 23/45/9 24/46/9 22/47/9
f 22/47/9 21/48/9 23/45/9
f 25/49/8 26/50/8 24/51/8
f 24/51/8 23/52/8 25/49/8
f 27/53/10 28/54/10 26/55/10
f 26/55/10 25/56/10 27/53/10
f 29/57/11 30/58/11 28/59/11
f 28/59/11 27/60/11 29/57/11
f 31/61/12 32/62/12 30/63/12
f 30/63/12 29/64/12 31/61/12
f 33/65/11 34/66/11 32/67/11
f 32/67/11 31/68/11 33/65/11
f 35/69/13 36/70/13 34/71/13
f 34/71/13 33/72/13 35/69/13
f 37/73/14 38/74/14 36/75/14
f 36/75/14 35/76/14 37/73/14
f 39/77/13 2/78/13 7/79/13
f 40/80/13 3/81/13 2/78/13
f 2/78/13 39/77/13 40/80/13
f 40/80/13 38/82/13 5/83/13
f 38/82/13 37/84/13 7/79/13
f 5/83/13 3/81/13 40/80/13
f 7/79/13 37/84/13 39/77/13
f 7/79/13 5/83/13 38/82/13
f 12/85/15 28/86/15 38/87/15
f 34/88/15 36/89/15 30/90/15
f 41/91/15 12/85/15 40/92/15
f 28/86/15 30/90/15 38/87/15
f 36/89/15 38/87/15 30/90/15
f 38/87/15 40/92/15 12/85/15
f 40/92/15 42/93/15 41/91/15
f 11/94/15 26/95/15 28/86/15
f 11/94/15 18/96/15 24/97/15
f 22/98/15 24/97/15 18/96/15
f 28/86/15 12/85/15 11/94/15
f 18/96/15 20/99/15 22/98/15
f 24/97/15 26/95/15 11/94/15
f 14/100/15 16/101/15 18/96/15
f 43/102/15 41/91/15 42/93/15
f 18/96/15 11/94/15 14/100/15
f 30/90/15 32/103/15 34/88/15
f 42/93/15 44/104/15 43/102/15
f 21/105/16 19/106/16 17/107/16
f 10/108/16 25/109/16 23/110/16
f 23/110/16 17/107/16 10/108/16
f 10/108/16 37/111/16 27/112/16
f 27/112/16 25/109/16 10/108/16
f 37/111/16 35/113/16 29/114/16
f 29/114/16 27/112/16 37/111/16
f 33/115/16 31/116/16 29/114/16
f 29/114/16 35/113/16 33/115/16
f 9/117/16 39/118/16 37/111/16
f 37/111/16 10/108/16 9/117/16
f 45/119/16 46/120/16 39/118/16
f 39/118/16 9/117/16 45/119/16
f 47/121/16 48/122/16 46/120/16
f 13/123/16 10/108/16 17/107/16
f 46/120/16 45/119/16 47/121/16
f 17/107/16 23/110/16 21/105/16
f 17/107/16 15/124/16 13/123/16
f 48/125/17 44/126/17 42/127/17
f 42/127/17 46/128/17 48/125/17
f 47/129/18 43/130/18 44/131/18
f 44/131/18 48/132/18 47/129/18
f 45/133/19 41/134/19 43/135/19
f 43/135/19 47/136/19 45/133/19
f 9/137/20 49/138/20 50/139/20
f 12/140/20 51/141/20 49/138/20
f 49/138/20 9/137/20 12/140/20
f 12/140/20 52/142/20 53/143/20
f 45/144/20 50/139/20 54/145/20
f 53/143/20 52/142/20 54/145/20
f 53/143/20 51/141/20 12/140/20
f 54/145/20 50/139/20 53/143/20
f 54/145/20 55/146/20 45/144/20
f 41/147/20 56/148/20 52/142/20
f 52/142/20 12/140/20 41/147/20
f 41/147/20 45/144/20 55/146/20
f 55/146/20 56/148/20 41/147/20
f 50/139/20 45/144/20 9/137/20
f 42/149/21 57/150/21 58/151/21
f 57/150/21 59/152/21 60/153/21
f 40/154/21 61/155/21 57/150/21
f 40/154/21 39/156/21 62/157/21
f 60/153/21 58/151/21 57/150/21
f 46/158/21 63/159/21 60/153/21
f 62/157/21 61/155/21 40/154/21
f 39/156/21 46/158/21 59/152/21
f 60/153/21 59/152/21 46/158/21
f 59/152/21 62/157/21 39/156/21
f 42/149/21 64/160/21 63/159/21
f 57/150/21 42/149/21 40/154/21
f 58/151/21 64/160/21 42/149/21
f 63/159/21 46/158/21 42/149/21
f 61/161/22 51/162/22 53/163/22
f 53/163/22 57/164/22 61/161/22
f 51/165/23 61/166/23 62/167/23
f 62/167/23 49/168/23 51/165/23
f 49/169/24 62/170/24 59/171/24
f 59/171/24 50/172/24 49/169/24
f 59/173/25 57/174/25 53/175/25
f 53/175/25 50/176/25 59/173/25
f 64/177/26 58/178/26 52/179/26
f 52/179/26 56/180/26 64/177/26
f 52/181/27 58/182/27 60/183/27
f 60/183/27 54/184/27 52/181/27
f 63/185/28 55/186/28 54/187/28
f 54/187/28 60/188/28 63/185/28
f 63/189/29 64/190/29 56/191/29
f 56/191/29 55/192/29 63/189/29
