g Body_76
v -0.236643 -0.240016 0.777136 0.627451 0.627451 0.643137
v -0.233643 -0.240016 0.777136 0.627451 0.627451 0.643137
v -0.233643 -0.24 0.7784 0.627451 0.627451 0.643137
v -0.236643 -0.24 0.7784 0.627451 0.627451 0.643137
v -0.236643 -0.239776 0.777136 0.627451 0.627451 0.643137
v -0.233643 -0.239776 0.777136 0.627451 0.627451 0.643137
v -0.236643 -0.21955 0.766177 0.627451 0.627451 0.643137
v -0.233643 -0.21955 0.766177 0.627451 0.627451 0.643137
v -0.236643 -0.192017 0.753377 0.627451 0.627451 0.643137
v -0.233643 -0.192017 0.753377 0.627451 0.627451 0.643137
v -0.236643 -0.162703 0.742129 0.627451 0.627451 0.643137
v -0.233643 -0.162703 0.742129 0.627451 0.627451 0.643137
v -0.236643 -0.131728 0.732625 0.627451 0.627451 0.643137
v -0.233643 -0.131728 0.732625 0.627451 0.627451 0.643137
v -0.236643 -0.0993075 0.725057 0.627451 0.627451 0.643137
v -0.233643 -0.0993075 0.725057 0.627451 0.627451 0.643137
v -0.236643 -0.0657535 0.719598 0.627451 0.627451 0.643137
v -0.233643 -0.0657535 0.719598 0.627451 0.627451 0.643137
v -0.233643 -0.0314673 0.716376 0.627451 0.627451 0.643137
v -0.236643 0.00308148 0.715456 0.627451 0.627451 0.643137
v -0.233643 0.00308148 0.715456 0.627451 0.627451 0.643137
v -0.236643 0.0340657 0.716592 0.627451 0.627451 0.643137
v -0.233643 0.0340657 0.716592 0.627451 0.627451 0.643137
v -0.236643 0.0677845 0.719954 0.627451 0.627451 0.643137
v -0.233643 0.0677845 0.719954 0.627451 0.627451 0.643137
v -0.236643 0.100422 0.725383 0.627451 0.627451 0.643137
v -0.233643 0.100422 0.725383 0.627451 0.627451 0.643137
v -0.233643 0.131631 0.732686 0.627451 0.627451 0.643137
v -0.236643 0.161156 0.74164 0.627451 0.627451 0.643137
v -0.233643 0.161156 0.74164 0.627451 0.627451 0.643137
v -0.236643 0.188836 0.752021 0.627451 0.627451 0.643137
v -0.233643 0.188836 0.752021 0.627451 0.627451 0.643137
v -0.236643 0.21456 0.763597 0.627451 0.627451 0.643137
v -0.233643 0.21456 0.763597 0.627451 0.627451 0.643137
v -0.233643 0.24 0.777136 0.627451 0.627451 0.643137
v -0.236643 0.24 0.777136 0.627451 0.627451 0.643137
v -0.236643 0.131631 0.732686 0.627451 0.627451 0.643137
v -0.236643 -0.0314673 0.716376 0.627451 0.627451 0.643137
v -0.236643 0.24 0.778415 0.627451 0.627451 0.643137
v -0.233643 0.24 0.778415 0.627451 0.627451 0.643137
v -0.236643 0.2407 0.78 0.627451 0.627451 0.643137
v -0.233643 0.2407 0.78 0.627451 0.627451 0.643137
v -0.236643 0.24 0.78 0.627451 0.627451 0.643137
v -0.233643 0.24 0.78 0.627451 0.627451 0.643137
v -0.233643 0.188836 0.754885 0.627451 0.627451 0.643137
v -0.233643 0.21456 0.766461 0.627451 0.627451 0.643137
v -0.233643 0.161156 0.744504 0.627451 0.627451 0.643137
v -0.233643 0.131631 0.73555 0.627451 0.627451 0.643137
v -0.233643 0.0340657 0.719456 0.627451 0.627451 0.643137
v -0.233643 0.00308148 0.71832 0.627451 0.627451 0.643137
v -0.233643 0.100422 0.728247 0.627451 0.627451 0.643137
v -0.233643 0.0677845 0.722818 0.627451 0.627451 0.643137
v -0.233643 -0.0314673 0.719241 0.627451 0.627451 0.643137
v -0.233643 -0.0657535 0.722462 0.627451 0.627451 0.643137
v -0.233643 -0.0993075 0.727921 0.627451 0.627451 0.643137
v -0.233643 -0.131728 0.735489 0.627451 0.627451 0.643137
v -0.233643 -0.21955 0.769041 0.627451 0.627451 0.643137
v -0.233643 -0.192017 0.756241 0.627451 0.627451 0.643137
v -0.233643 -0.162703 0.744993 0.627451 0.627451 0.643137
v -0.233643 -0.239776 0.78 0.627451 0.627451 0.643137
v -0.233643 -0.240705 0.78 0.627451 0.627451 0.643137
v -0.236643 0.21456 0.766461 0.627451 0.627451 0.643137
v -0.236643 0.188836 0.754885 0.627451 0.627451 0.643137
v -0.236643 0.161156 0.744504 0.627451 0.627451 0.643137
v -0.236643 0.131631 0.73555 0.627451 0.627451 0.643137
v -0.236643 0.100422 0.728247 0.627451 0.627451 0.643137
v -0.236643 0.0340657 0.719456 0.627451 0.627451 0.643137
v -0.236643 0.0677845 0.722818 0.627451 0.627451 0.643137
v -0.236643 0.00308148 0.71832 0.627451 0.627451 0.643137
v -0.236643 -0.0314673 0.719241 0.627451 0.627451 0.643137
v -0.236643 -0.0657535 0.722462 0.627451 0.627451 0.643137
v -0.236643 -0.0993075 0.727921 0.627451 0.627451 0.643137
v -0.236643 -0.131728 0.735489 0.627451 0.627451 0.643137
v -0.236643 -0.162703 0.744993 0.627451 0.627451 0.643137
v -0.236643 -0.21955 0.769041 0.627451 0.627451 0.643137
v -0.236643 -0.192017 0.756241 0.627451 0.627451 0.643137
v -0.236643 -0.239776 0.78 0.627451 0.627451 0.643137
v -0.236643 -0.240705 0.78 0.627451 0.627451 0.643137
vn 7.69763e-19 -0.999921 0.0125712
vn -6.12323e-17 -0 -1
vn 0 -0.452696 -0.891665
vn 0 -0.499918 -0.866073
vn 0 -0.390301 -0.920687
vn 0 -0.326125 -0.945327
vn 0 -0.260584 -0.965451
vn 0 -0.194107 -0.98098
vn 0 -0.127126 -0.991887
vn 0 -0.0600474 -0.998196
vn -0 0.00674918 -0.999977
vn -0 0.0664965 -0.997787
vn -0 0.131937 -0.991258
vn -0 0.196309 -0.980542
vn -0 0.259422 -0.965764
vn -0 0.321111 -0.947041
vn -0 0.381227 -0.924482
vn -0 0.439544 -0.898221
vn -0 0.5 -0.866025
vn -0 0.259422 -0.965764
vn 0 -0.0600474 -0.998196
vn 0 -0.499918 -0.866073
vn 0 1 -0
vn -2.47332e-17 0.914792 -0.403924
vn 6.12323e-17 0 1
vn 1 -0 -6.12323e-17
vn -1 0 6.12323e-17
vn 0 -0.439544 0.898221
vn 0 -0.5 0.866025
vn 0 -0.381227 0.924482
vn 0 -0.321111 0.947041
vn 0 -0.259422 0.965764
vn 0 -0.196309 0.980542
vn 0 -0.131937 0.991258
vn 0 -0.0664965 0.997787
vn 0 -0.00674918 0.999977
vn -0 0.0600474 0.998196
vn -0 0.127126 0.991887
vn -0 0.194107 0.98098
vn -0 0.260584 0.965451
vn -0 0.326125 0.945327
vn -0 0.390301 0.920687
vn -0 0.452696 0.891665
vn -0 0.499918 0.866073
vn -0 0.390301 0.920687
vn -0 0.0600474 0.998196
vn 0 -0.131937 0.991258
vn 0 -0.321111 0.947041
vn 0 -0.5 0.866025
vn 6.12323e-17 0 1
vn -2.46834e-17 -0.915152 -0.40311
vt 0.000632167 1.46937e-39
vt 0.000632167 0.003
vt -0.000632167 0.003
vt -0.000632167 -1.46937e-39
vt 0 0.000119932
vt 0.003 0.000119932
vt 0.003 -0.000119932
vt 0 -0.000119932
vt 0.954613 0
vt 0.954613 1
vt 1 1
vt 0.894665 0
vt 0.894665 1
vt 0.832681 0
vt 0.832681 1
vt 0.76876 0
vt 0.76876 1
vt 0.703127 0
vt 0.703127 1
vt 0.636131 0
vt 0.636131 1
vt 0.568238 1
vt 0.5 0
vt 0.5 1
vt 0.438627 0
vt 0.438627 1
vt 0.371292 0
vt 0.371292 1
vt 0.305196 0
vt 0.305196 1
vt 0.24075 1
vt 0.178255 0
vt 0.178255 1
vt 0.117895 0
vt 0.117895 1
vt 0.0598252 0
vt 0.0598252 1
vt 0 1
vt 0 0
vt 0.24075 0
vt 0.568238 0
vt 1 0
vt 0.00063945 0
vt 0.00063945 0.003
vt -0.00063945 0.003
vt -0.00063945 0
vt -0.000866499 3.14468e-34
vt -0.000866499 0.003
vt 0.000866499 0.003
vt 0.000866499 3.12964e-34
vt 0 -0.00035
vt 0.003 -0.00035
vt 0.003 0.00035
vt 0 0.00035
vt -0.188836 0.754885
vt -0.188836 0.752021
vt -0.21456 0.763597
vt -0.21456 0.766461
vt -0.24 0.777136
vt -0.161156 0.744504
vt -0.24 0.778415
vt -0.131631 0.73555
vt -0.131631 0.732686
vt -0.161156 0.74164
vt -0.0340657 0.716592
vt -0.0340657 0.719456
vt -0.00308148 0.71832
vt -0.0677845 0.719954
vt -0.100422 0.728247
vt -0.100422 0.725383
vt 0.0314673 0.716376
vt -0.00308148 0.715456
vt -0.0677845 0.722818
vt 0.0657535 0.719598
vt 0.0314673 0.719241
vt 0.0993075 0.725057
vt 0.0657535 0.722462
vt 0.0993075 0.727921
vt 0.131728 0.735489
vt 0.131728 0.732625
vt 0.162703 0.742129
vt 0.239776 0.777136
vt 0.21955 0.766177
vt 0.21955 0.769041
vt 0.192017 0.756241
vt 0.162703 0.744993
vt 0.192017 0.753377
vt -0.2407 0.78
vt -0.24 0.78
vt 0.239776 0.78
vt 0.24 0.7784
vt 0.240705 0.78
vt 0.240016 0.777136
vt -0.21456 0.766461
vt -0.24 0.778415
vt -0.24 0.777136
vt -0.188836 0.754885
vt -0.21456 0.763597
vt -0.188836 0.752021
vt -0.161156 0.74164
vt -0.161156 0.744504
vt -0.131631 0.73555
vt -0.131631 0.732686
vt -0.100422 0.728247
vt -0.0340657 0.719456
vt -0.0677845 0.722818
vt -0.0677845 0.719954
vt -0.0340657 0.716592
vt -0.00308148 0.715456
vt -0.00308148 0.71832
vt -0.100422 0.725383
vt 0.0314673 0.716376
vt 0.0314673 0.719241
vt 0.0657535 0.719598
vt 0.0657535 0.722462
vt 0.0993075 0.725057
vt 0.0993075 0.727921
vt 0.131728 0.732625
vt 0.131728 0.735489
vt 0.162703 0.742129
vt 0.162703 0.744993
vt 0.192017 0.753377
vt 0.21955 0.766177
vt 0.21955 0.769041
vt 0.192017 0.756241
vt 0.239776 0.777136
vt 0.239776 0.78
vt 0.240016 0.777136
vt 0.24 0.7784
vt -0.24 0.78
vt -0.2407 0.78
vt 0.240705 0.78
vt 0.0598252 0
vt 0.0598252 1
vt 0 1
vt 0.117895 1
vt 0.178255 1
vt 0.117895 0
vt 0.24075 0
vt 0.24075 1
vt 0.305196 0
vt 0.305196 1
vt 0.371292 1
vt 0.438627 0
vt 0.438627 1
vt 0.5 1
vt 0.568238 1
vt 0.5 0
vt 0.636131 0
vt 0.636131 1
vt 0.703127 0
vt 0.703127 1
vt 0.76876 0
vt 0.76876 1
vt 0.832681 0
vt 0.832681 1
vt 0.894665 1
vt 0.954613 0
vt 0.954613 1
vt 1 0
vt 1 1
vt 0.894665 0
vt 0.568238 0
vt 0.371292 0
vt 0.178255 0
vt 0 0
vt 0 -0.000464372
vt 0.003 -0.000464372
vt 0.003 0.000464372
vt 0 0.000464372
vt 0.000874172 5.53705e-34
vt 0.000874172 0.003
vt -0.000874172 0.003
vt -0.000874172 5.50696e-34
f 1/1/1 2/2/1 3/3/1
f 3/3/1 4/4/1 1/1/1
f 5/5/2 6/6/2 2/7/2
f 2/7/2 1/8/2 5/5/2
f 7/9/3 8/10/3 6/11/4
f 9/12/5 10/13/5 8/10/3
f 11/14/6 12/15/6 10/13/5
f 13/16/7 14/17/7 12/15/6
f 15/18/8 16/19/8 14/17/7
f 17/20/9 18/21/9 16/19/8
f 19/22/10 18/21/9 17/20/9
f 20/23/11 21/24/11 19/22/10
f 22/25/12 23/26/12 21/24/11
f 24/27/13 25/28/13 23/26/12
f 26/29/14 27/30/14 25/28/13
f 28/31/15 27/30/14 26/29/14
f 29/32/16 30/33/16 28/31/15
f 31/34/17 32/35/17 30/33/16
f 33/36/18 34/37/18 32/35/17
f 35/38/19 34/37/18 33/36/18
f 33/36/18 36/39/19 35/38/19
f 32/35/17 31/34/17 33/36/18
f 30/33/16 29/32/16 31/34/17
f 28/31/15 37/40/20 29/32/16
f 26/29/14 37/40/20 28/31/15
f 25/28/13 24/27/13 26/29/14
f 23/26/12 22/25/12 24/27/13
f 21/24/11 20/23/11 22/25/12
f 19/22/10 38/41/21 20/23/11
f 17/20/9 38/41/21 19/22/10
f 16/19/8 15/18/8 17/20/9
f 14/17/7 13/16/7 15/18/8
f 12/15/6 11/14/6 13/16/7
f 10/13/5 9/12/5 11/14/6
f 8/10/3 7/9/3 9/12/5
f 6/11/4 5/42/22 7/9/3
f 39/43/23 40/44/23 35/45/23
f 35/45/23 36/46/23 39/43/23
f 41/47/24 42/48/24 40/49/24
f 40/49/24 39/50/24 41/47/24
f 43/51/25 44/52/25 42/53/25
f 42/53/25 41/54/25 43/51/25
f 45/55/26 32/56/26 34/57/26
f 46/58/26 34/57/26 35/59/26
f 32/56/26 45/55/26 47/60/26
f 35/59/26 40/61/26 46/58/26
f 48/62/26 28/63/26 30/64/26
f 34/57/26 46/58/26 45/55/26
f 23/65/26 49/66/26 50/67/26
f 49/66/26 23/65/26 25/68/26
f 51/69/26 27/70/26 28/63/26
f 47/60/26 30/64/26 32/56/26
f 19/71/26 21/72/26 50/67/26
f 25/68/26 52/73/26 49/66/26
f 27/70/26 51/69/26 52/73/26
f 30/64/26 47/60/26 48/62/26
f 50/67/26 21/72/26 23/65/26
f 28/63/26 48/62/26 51/69/26
f 18/74/26 19/71/26 53/75/26
f 52/73/26 25/68/26 27/70/26
f 16/76/26 18/74/26 54/77/26
f 50/67/26 53/75/26 19/71/26
f 55/78/26 56/79/26 14/80/26
f 53/75/26 54/77/26 18/74/26
f 12/81/26 14/80/26 56/79/26
f 54/77/26 55/78/26 16/76/26
f 6/82/26 8/83/26 57/84/26
f 58/85/26 57/84/26 8/83/26
f 59/86/26 58/85/26 10/87/26
f 14/80/26 16/76/26 55/78/26
f 8/83/26 10/87/26 58/85/26
f 56/79/26 59/86/26 12/81/26
f 40/61/26 42/88/26 44/89/26
f 10/87/26 12/81/26 59/86/26
f 6/82/26 60/90/26 3/91/26
f 57/84/26 60/90/26 6/82/26
f 60/90/26 61/92/26 3/91/26
f 3/91/26 2/93/26 6/82/26
f 44/89/26 46/58/26 40/61/26
f 62/94/27 39/95/27 36/96/27
f 63/97/27 62/94/27 33/98/27
f 33/98/27 31/99/27 63/97/27
f 31/99/27 29/100/27 64/101/27
f 64/101/27 63/97/27 31/99/27
f 65/102/27 64/101/27 29/100/27
f 29/100/27 37/103/27 65/102/27
f 66/104/27 65/102/27 37/103/27
f 67/105/27 68/106/27 24/107/27
f 22/108/27 20/109/27 69/110/27
f 37/103/27 26/111/27 66/104/27
f 26/111/27 24/107/27 68/106/27
f 69/110/27 67/105/27 22/108/27
f 38/112/27 70/113/27 69/110/27
f 68/106/27 66/104/27 26/111/27
f 69/110/27 20/109/27 38/112/27
f 24/107/27 22/108/27 67/105/27
f 17/114/27 71/115/27 70/113/27
f 70/113/27 38/112/27 17/114/27
f 15/116/27 72/117/27 71/115/27
f 71/115/27 17/114/27 15/116/27
f 72/117/27 15/116/27 13/118/27
f 13/118/27 73/119/27 72/117/27
f 11/120/27 74/121/27 73/119/27
f 73/119/27 13/118/27 11/120/27
f 74/121/27 11/120/27 9/122/27
f 7/123/27 75/124/27 76/125/27
f 5/126/27 77/127/27 75/124/27
f 9/122/27 76/125/27 74/121/27
f 75/124/27 7/123/27 5/126/27
f 5/126/27 1/128/27 4/129/27
f 76/125/27 9/122/27 7/123/27
f 39/95/27 62/94/27 43/130/27
f 4/129/27 77/127/27 5/126/27
f 43/130/27 41/131/27 39/95/27
f 36/96/27 33/98/27 62/94/27
f 4/129/27 78/132/27 77/127/27
f 62/133/28 46/134/28 44/135/29
f 45/136/30 46/134/28 62/133/28
f 47/137/31 45/136/30 63/138/30
f 65/139/32 48/140/32 47/137/31
f 66/141/33 51/142/33 48/140/32
f 52/143/34 51/142/33 66/141/33
f 67/144/35 49/145/35 52/143/34
f 50/146/36 49/145/35 67/144/35
f 53/147/37 50/146/36 69/148/36
f 71/149/38 54/150/38 53/147/37
f 72/151/39 55/152/39 54/150/38
f 73/153/40 56/154/40 55/152/39
f 74/155/41 59/156/41 56/154/40
f 58/157/42 59/156/41 74/155/41
f 75/158/43 57/159/43 58/157/42
f 77/160/44 60/161/44 57/159/43
f 57/159/43 75/158/43 77/160/44
f 58/157/42 76/162/45 75/158/43
f 74/155/41 76/162/45 58/157/42
f 56/154/40 73/153/40 74/155/41
f 55/152/39 72/151/39 73/153/40
f 54/150/38 71/149/38 72/151/39
f 53/147/37 70/163/46 71/149/38
f 69/148/36 70/163/46 53/147/37
f 67/144/35 69/148/36 50/146/36
f 52/143/34 68/164/47 67/144/35
f 66/141/33 68/164/47 52/143/34
f 48/140/32 65/139/32 66/141/33
f 47/137/31 64/165/48 65/139/32
f 63/138/30 64/165/48 47/137/31
f 62/133/28 63/138/30 45/136/30
f 44/135/29 43/166/49 62/133/28
f 78/167/50 61/168/50 60/169/50
f 60/169/50 77/170/50 78/167/50
f 4/171/51 3/172/51 61/173/51
f 61/173/51 78/174/51 4/171/51
