g Body_30
v 0.07 -0.22 0.105 0.627451 0.627451 0.643137
v 0.07 -0.23 0.105 0.627451 0.627451 0.643137
v 0.07 -0.23 0.095 0.627451 0.627451 0.643137
v 0.07 -0.22 0.095 0.627451 0.627451 0.643137
v 0.015 -0.22 0.095 0.627451 0.627451 0.643137
v 0.015 -0.23 0.095 0.627451 0.627451 0.643137
v 0.015 -0.22 0.105 0.627451 0.627451 0.643137
v 0.015 -0.23 0.105 0.627451 0.627451 0.643137
vn 1 0 0
vn 0 -0 -1
vn -1 -0 -0
vn -0 1 -0
vn -0 0 1
vn 0 -1 0
vt 0.22 0.105
vt 0.23 0.105
vt 0.23 0.095
vt 0.22 0.095
vt 0 0.005
vt 0.055 0.005
vt 0.055 -0.005
vt 0 -0.005
vt 0.22 0.105
vt 0.22 0.095
vt 0.23 0.095
vt 0.23 0.105
vt -0.005 0
vt -0.005 0.055
vt 0.005 0.055
vt 0.005 0
vt 0 -0.005
vt 0.055 -0.005
vt 0.055 0.005
vt 0 0.005
vt 0.005 0
vt 0.005 0.055
vt -0.005 0.055
vt -0.005 0
f 1/1/1 2/2/1 3/3/1
f 3/3/1 4/4/1 1/1/1
f 5/5/2 4/6/2 3/7/2
f 3/7/2 6/8/2 5/5/2
f 7/9/3 5/10/3 6/11/3
f 6/11/3 8/12/3 7/9/3
f 7/13/4 1/14/4 4/15/4
f 4/15/4 5/16/4 7/13/4
f 8/17/5 2/18/5 1/19/5
f 1/19/5 7/20/5 8/17/5
f 6/21/6 3/22/6 2/23/6
f 2/23/6 8/24/6 6/21/6
