g Body_01_(4)
v 0.28 -0.2 0.45 0.627451 0.627451 0.643137
v 0.28 -0.26 0.45 0.627451 0.627451 0.643137
v 0.3 -0.26 0.45 0.627451 0.627451 0.643137
v 0.3 -0.2 0.45 0.627451 0.627451 0.643137
v 0.28 -0.26 0.55 0.627451 0.627451 0.643137
v 0.3 -0.26 0.55 0.627451 0.627451 0.643137
v 0.28 -0.2 0.55 0.627451 0.627451 0.643137
v 0.3 -0.2 0.55 0.627451 0.627451 0.643137
v 0.3 -0.2975 0.605 0.627451 0.627451 0.643137
v 0.3 -0.2975 0.405 0.627451 0.627451 0.643137
v 0.3 -0.04 0.405 0.627451 0.627451 0.643137
v 0.3 -0.04 0.605 0.627451 0.627451 0.643137
v 0.07 -0.04 0.405 0.627451 0.627451 0.643137
v 0.07 -0.04 0.605 0.627451 0.627451 0.643137
v 0.07 -0.055 0.405 0.627451 0.627451 0.643137
v 0.07 -0.055 0.605 0.627451 0.627451 0.643137
v 0.185 -0.055 0.405 0.627451 0.627451 0.643137
v 0.185 -0.055 0.605 0.627451 0.627451 0.643137
v 0.185 -0.08 0.405 0.627451 0.627451 0.643137
v 0.185 -0.08 0.605 0.627451 0.627451 0.643137
v 0.2 -0.08 0.405 0.627451 0.627451 0.643137
v 0.2 -0.08 0.605 0.627451 0.627451 0.643137
v 0.2 -0.055 0.405 0.627451 0.627451 0.643137
v 0.2 -0.055 0.605 0.627451 0.627451 0.643137
v 0.28 -0.055 0.405 0.627451 0.627451 0.643137
v 0.28 -0.055 0.605 0.627451 0.627451 0.643137
v 0.28 -0.15 0.405 0.627451 0.627451 0.643137
v 0.28 -0.15 0.605 0.627451 0.627451 0.643137
v 0.2 -0.15 0.405 0.627451 0.627451 0.643137
v 0.2 -0.15 0.605 0.627451 0.627451 0.643137
v 0.2 -0.13 0.405 0.627451 0.627451 0.643137
v 0.2 -0.13 0.605 0.627451 0.627451 0.643137
v 0.185 -0.13 0.405 0.627451 0.627451 0.643137
v 0.185 -0.13 0.605 0.627451 0.627451 0.643137
v 0.185 -0.16 0.405 0.627451 0.627451 0.643137
v 0.185 -0.16 0.605 0.627451 0.627451 0.643137
v 0.28 -0.16 0.405 0.627451 0.627451 0.643137
v 0.28 -0.16 0.605 0.627451 0.627451 0.643137
v 0.28 -0.28 0.405 0.627451 0.627451 0.643137
v 0.28 -0.28 0.605 0.627451 0.627451 0.643137
v 0.07 -0.2975 0.405 0.627451 0.627451 0.643137
v 0.09 -0.28 0.405 0.627451 0.627451 0.643137
v 0.07 -0.12 0.405 0.627451 0.627451 0.643137
v 0.09 -0.12 0.405 0.627451 0.627451 0.643137
v 0.07 -0.12 0.605 0.627451 0.627451 0.643137
v 0.07 -0.2975 0.605 0.627451 0.627451 0.643137
v 0.09 -0.28 0.605 0.627451 0.627451 0.643137
v 0.09 -0.12 0.605 0.627451 0.627451 0.643137
v 0.125 -0.2975 0.55 0.627451 0.627451 0.643137
v 0.18 -0.2975 0.55 0.627451 0.627451 0.643137
v 0.125 -0.2975 0.45 0.627451 0.627451 0.643137
v 0.18 -0.2975 0.45 0.627451 0.627451 0.643137
v 0.245 -0.2975 0.45 0.627451 0.627451 0.643137
v 0.19 -0.2975 0.45 0.627451 0.627451 0.643137
v 0.19 -0.2975 0.55 0.627451 0.627451 0.643137
v 0.245 -0.2975 0.55 0.627451 0.627451 0.643137
v 0.125 -0.28 0.45 0.627451 0.627451 0.643137
v 0.18 -0.28 0.45 0.627451 0.627451 0.643137
v 0.19 -0.28 0.45 0.627451 0.627451 0.643137
v 0.125 -0.28 0.55 0.627451 0.627451 0.643137
v 0.245 -0.28 0.45 0.627451 0.627451 0.643137
v 0.245 -0.28 0.55 0.627451 0.627451 0.643137
v 0.18 -0.28 0.55 0.627451 0.627451 0.643137
v 0.19 -0.28 0.55 0.627451 0.627451 0.643137
vn -2.58949e-32 1.15648e-16 1
vn -2.23911e-16 1 0
vn 0 0 -1
vn 2.23911e-16 -1 0
vn 1 2.23911e-16 0
vn 0 1 0
vn -1 1.85037e-15 0
vn -0 -1 -0
vn 1 -0 -0
vn -1 0 0
vn -0 1 -0
vn 1 -0 -0
vn -1 0 0
vn -0 -1 -0
vn -0 -0 -1
vn 0 0 1
vn 1 -0 -0
vn -0 1 -0
vn -1 -0 -0
vn 2.20194e-16 -1 0
vn -0 1 -0
vn 1 -2.20194e-16 5.55112e-16
vn -5.04647e-16 1.1112e-31 -1
vn -1 2.20194e-16 -0
vn -0 0 1
vn 1 -2.20194e-16 -0
vn -0 -0 -1
vn -1 2.20194e-16 -0
vn -2.52323e-16 5.55602e-32 1
vt -0.03 0.03
vt 0.03 0.03
vt 0.03 0.05
vt -0.03 0.05
vt -0.03 -0.05
vt -0.03 0.05
vt -0.05 0.05
vt -0.05 -0.05
vt -0.03 -0.03
vt -0.03 0.03
vt -0.05 0.03
vt -0.05 -0.03
vt 0.03 0.05
vt 0.03 -0.05
vt 0.05 -0.05
vt 0.05 0.05
vt -0.2975 0.2
vt -0.26 0.145
vt -0.2 0.145
vt -0.2975 0
vt -0.26 0.045
vt -0.04 0
vt -0.2 0.045
vt -0.04 0.2
vt 0 -0.01
vt 0.2 -0.01
vt 0.2 0.22
vt -0 0.22
vt -0.0075 0
vt -0.0075 -0.2
vt 0.0075 -0.2
vt 0.0075 0
vt 0 0.1225
vt 0.2 0.1225
vt 0.2 0.0075
vt 0 0.0075
vt 0 -0.0125
vt 0.2 -0.0125
vt 0.2 0.0125
vt 0 0.0125
vt -0 0.0075
vt 0.2 0.0075
vt 0.2 -0.0075
vt 0 -0.0075
vt 0 0.0125
vt 0.2 0.0125
vt 0.2 -0.0125
vt 0 -0.0125
vt 0 -0.0075
vt 0.2 -0.0075
vt 0.2 -0.0875
vt 0 -0.0875
vt 0 0.0075
vt 0.2 0.0075
vt 0.2 0.1025
vt 0 0.1025
vt 0 -0.04
vt -0.2 -0.04
vt -0.2 0.04
vt 0 0.04
vt 0 0.0160329
vt 0.2 0.0160329
vt 0.2 -0.0039671
vt 0 -0.0039671
vt -0.0075 0
vt -0.0075 -0.2
vt 0.0075 -0.2
vt 0.0075 0
vt 0 -0.0039671
vt 0.2 -0.0039671
vt 0.2 0.0260329
vt 0 0.0260329
vt -0 0.0475
vt 0.2 0.0475
vt 0.2 -0.0475
vt 0 -0.0475
vt 0.2 0.2325
vt 0.155 0.2125
vt 0.155 0.1525
vt 0 0.2325
vt 0.055 0.2125
vt 0 0.1125
vt 0.055 0.1525
vt 0.2 0.1125
vt -0.2 0.08
vt -0.185 0.08
vt -0.185 0.055
vt -0.3 0.04
vt -0.28 0.055
vt -0.2 0.055
vt -0.07 0.04
vt -0.28 0.16
vt -0.28 0.15
vt -0.185 0.16
vt -0.2 0.15
vt -0.185 0.13
vt -0.2 0.13
vt -0.3 0.2975
vt -0.28 0.28
vt -0.07 0.2975
vt -0.09 0.28
vt -0.07 0.12
vt -0.09 0.12
vt -0.07 0.055
vt -0.07 0.12
vt -0.07 0.2975
vt -0.09 0.28
vt -0.3 0.2975
vt -0.28 0.28
vt -0.28 0.15
vt -0.28 0.16
vt -0.185 0.13
vt -0.185 0.16
vt -0.2 0.15
vt -0.09 0.12
vt -0.3 0.04
vt -0.28 0.055
vt -0.185 0.055
vt -0.2 0.055
vt -0.2 0.08
vt -0.185 0.08
vt -0.07 0.04
vt -0.07 0.055
vt -0.2 0.13
vt 0 0.08
vt 0.2 0.08
vt 0.2 -0.08
vt 0 -0.08
vt 0 -0.01
vt -0.2 -0.01
vt -0.2 0.01
vt 0 0.01
vt 0 -0.08875
vt -0.2 -0.08875
vt -0.2 0.08875
vt 0 0.08875
vt 0.07 0.2
vt 0.125 0.145
vt 0.18 0.145
vt 0.07 0
vt 0.125 0.045
vt 0.3 0
vt 0.18 0.045
vt 0.245 0.045
vt 0.19 0.045
vt 0.19 0.145
vt 0.3 0.2
vt 0.245 0.145
vt -0.2 0.095
vt -0.155 0.06
vt -0.155 0.005
vt -0.155 -0.005
vt 0 0.095
vt -0.055 0.06
vt -0.2 -0.095
vt -0.155 -0.06
vt -0.055 -0.06
vt 0 -0.095
vt -0.055 0.005
vt -0.055 -0.005
vt -0.05 -0.0825
vt 0.05 -0.0825
vt 0.05 -0.1
vt -0.05 -0.1
vt 0.0275 -0.0825
vt 0.0275 -0.1
vt -0.0275 -0.1
vt -0.0275 -0.0825
vt -0.0825 0.05
vt -0.0825 -0.05
vt -0.1 -0.05
vt -0.1 0.05
vt -0.0275 -0.0825
vt 0.0275 -0.0825
vt 0.0275 -0.1
vt -0.0275 -0.1
vt 0.0825 -0.05
vt 0.0825 0.05
vt 0.1 0.05
vt 0.1 -0.05
vt 0.0275 -0.1
vt -0.0275 -0.1
vt -0.0275 -0.0825
vt 0.0275 -0.0825
vt -0.0825 0.05
vt -0.0825 -0.05
vt -0.1 -0.05
vt -0.1 0.05
vt -0.0275 -0.0825
vt 0.0275 -0.0825
vt 0.0275 -0.1
vt -0.0275 -0.1
f 1/1/1 2/2/1 3/3/1
f 3/3/1 4/4/1 1/1/1
f 2/5/2 5/6/2 6/7/2
f 6/7/2 3/8/2 2/5/2
f 5/9/3 7/10/3 8/11/3
f 8/11/3 6/12/3 5/9/3
f 7/13/4 1/14/4 4/15/4
f 4/15/4 8/16/4 7/13/4
f 9/17/5 6/18/5 8/19/5
f 10/20/5 3/21/5 6/18/5
f 6/18/5 9/17/5 10/20/5
f 10/20/5 11/22/5 4/23/5
f 4/23/5 3/21/5 10/20/5
f 11/22/5 12/24/5 8/19/5
f 8/19/5 4/23/5 11/22/5
f 8/19/5 12/24/5 9/17/5
f 12/25/6 11/26/6 13/27/6
f 13/27/6 14/28/6 12/25/6
f 14/29/7 13/30/7 15/31/7
f 15/31/7 16/32/7 14/29/7
f 16/33/8 15/34/8 17/35/8
f 17/35/8 18/36/8 16/33/8
f 18/37/7 17/38/7 19/39/7
f 19/39/7 20/40/7 18/37/7
f 20/41/8 19/42/8 21/43/8
f 21/43/8 22/44/8 20/41/8
f 22/45/9 21/46/9 23/47/9
f 23/47/9 24/48/9 22/45/9
f 24/49/8 23/50/8 25/51/8
f 25/51/8 26/52/8 24/49/8
f 26/53/10 25/54/10 27/55/10
f 27/55/10 28/56/10 26/53/10
f 28/57/11 27/58/11 29/59/11
f 29/59/11 30/60/11 28/57/11
f 30/61/12 29/62/12 31/63/12
f 31/63/12 32/64/12 30/61/12
f 32/65/11 31/66/11 33/67/11
f 33/67/11 34/68/11 32/65/11
f 34/69/13 33/70/13 35/71/13
f 35/71/13 36/72/13 34/69/13
f 36/73/14 35/74/14 37/75/14
f 37/75/14 38/76/14 36/73/14
f 39/77/13 2/78/13 1/79/13
f 39/77/13 40/80/13 5/81/13
f 5/81/13 2/78/13 39/77/13
f 40/80/13 38/82/13 7/83/13
f 37/84/13 1/79/13 7/83/13
f 7/83/13 5/81/13 40/80/13
f 1/79/13 37/84/13 39/77/13
f 7/83/13 38/82/13 37/84/13
f 21/85/15 19/86/15 17/87/15
f 11/88/15 25/89/15 23/90/15
f 13/91/15 11/88/15 17/87/15
f 23/90/15 17/87/15 11/88/15
f 17/87/15 23/90/15 21/85/15
f 11/88/15 37/92/15 27/93/15
f 27/93/15 25/89/15 11/88/15
f 37/92/15 35/94/15 29/95/15
f 29/95/15 27/93/15 37/92/15
f 33/96/15 31/97/15 29/95/15
f 29/95/15 35/94/15 33/96/15
f 10/98/15 39/99/15 37/92/15
f 41/100/15 42/101/15 39/99/15
f 43/102/15 44/103/15 42/101/15
f 37/92/15 11/88/15 10/98/15
f 42/101/15 41/100/15 43/102/15
f 39/99/15 10/98/15 41/100/15
f 17/87/15 15/104/15 13/91/15
f 45/105/16 46/106/16 47/107/16
f 46/106/16 9/108/16 40/109/16
f 9/108/16 28/110/16 38/111/16
f 34/112/16 36/113/16 30/114/16
f 40/109/16 47/107/16 46/106/16
f 28/110/16 30/114/16 38/111/16
f 36/113/16 38/111/16 30/114/16
f 38/111/16 40/109/16 9/108/16
f 47/107/16 48/115/16 45/105/16
f 12/116/16 26/117/16 28/110/16
f 12/116/16 18/118/16 24/119/16
f 22/120/16 24/119/16 18/118/16
f 28/110/16 9/108/16 12/116/16
f 18/118/16 20/121/16 22/120/16
f 24/119/16 26/117/16 12/116/16
f 14/122/16 16/123/16 18/118/16
f 18/118/16 12/116/16 14/122/16
f 30/114/16 32/124/16 34/112/16
f 47/125/17 42/126/17 44/127/17
f 44/127/17 48/128/17 47/125/17
f 48/129/18 44/130/18 43/131/18
f 43/131/18 45/132/18 48/129/18
f 45/133/19 43/134/19 41/135/19
f 41/135/19 46/136/19 45/133/19
f 46/137/20 49/138/20 50/139/20
f 41/140/20 51/141/20 49/138/20
f 41/140/20 10/142/20 52/143/20
f 10/142/20 53/144/20 54/145/20
f 50/139/20 55/146/20 46/137/20
f 52/143/20 51/141/20 41/140/20
f 54/145/20 52/143/20 10/142/20
f 10/142/20 9/147/20 56/148/20
f 49/138/20 46/137/20 41/140/20
f 56/148/20 53/144/20 10/142/20
f 9/147/20 46/137/20 55/146/20
f 54/145/20 50/139/20 52/143/20
f 50/139/20 54/145/20 55/146/20
f 55/146/20 56/148/20 9/147/20
f 42/149/21 57/150/21 58/151/21
f 58/151/21 59/152/21 42/149/21
f 42/149/21 47/153/21 60/154/21
f 39/155/21 61/156/21 62/157/21
f 39/155/21 42/149/21 59/152/21
f 60/154/21 57/150/21 42/149/21
f 47/153/21 40/158/21 63/159/21
f 59/152/21 61/156/21 39/155/21
f 63/159/21 60/154/21 47/153/21
f 40/158/21 62/157/21 64/160/21
f 58/151/21 64/160/21 59/152/21
f 64/160/21 63/159/21 40/158/21
f 64/160/21 58/151/21 63/159/21
f 62/157/21 40/158/21 39/155/21
f 59/161/22 64/162/22 55/163/22
f 55/163/22 54/164/22 59/161/22
f 62/165/23 56/166/23 55/167/23
f 55/167/23 64/168/23 62/165/23
f 62/169/24 61/170/24 53/171/24
f 53/171/24 56/172/24 62/169/24
f 61/173/25 59/174/25 54/175/25
f 54/175/25 53/176/25 61/173/25
f 57/177/26 60/178/26 49/179/26
f 49/179/26 51/180/26 57/177/26
f 50/181/27 49/182/27 60/183/27
f 60/183/27 63/184/27 50/181/27
f 63/185/28 58/186/28 52/187/28
f 52/187/28 50/188/28 63/185/28
f 58/189/29 57/190/29 51/191/29
f 51/191/29 52/192/29 58/189/29
