g Body_01
v 0.02 -0.12 0.005 0.627451 0.627451 0.643137
v -0.02 -0.12 0.005 0.627451 0.627451 0.643137
v -0.02 -0.24 0.005 0.627451 0.627451 0.643137
v 0.02 -0.24 0.005 0.627451 0.627451 0.643137
v 0.28 0.04 0.005 0.627451 0.627451 0.643137
v 0.06 -0.12 0.005 0.627451 0.627451 0.643137
v -0.06 -0.29 0.005 0.627451 0.627451 0.643137
v 0.06 -0.29 0.005 0.627451 0.627451 0.643137
v 0.28 -0.04 0.005 0.627451 0.627451 0.643137
v 0.3 0.2975 0.005 0.627451 0.627451 0.643137
v -0.185 0.08 0.005 0.627451 0.627451 0.643137
v -0.185 0.117934 0.005 0.627451 0.627451 0.643137
v -0.2 0.117934 0.005 0.627451 0.627451 0.643137
v -0.09 0.28 0.005 0.627451 0.627451 0.643137
v -0.185 0.16 0.005 0.627451 0.627451 0.643137
v 0.3 -0.2975 0.005 0.627451 0.627451 0.643137
v 0.3 -0.04 0.005 0.627451 0.627451 0.643137
v 0.07 -0.12 0.005 0.627451 0.627451 0.643137
v -0.06 -0.12 0.005 0.627451 0.627451 0.643137
v -0.07 0.04 0.005 0.627451 0.627451 0.643137
v -0.28 -0.04 0.005 0.627451 0.627451 0.643137
v -0.07 -0.12 0.005 0.627451 0.627451 0.643137
v -0.09 0.12 0.005 0.627451 0.627451 0.643137
v -0.07 0.12 0.005 0.627451 0.627451 0.643137
v -0.07 0.055 0.005 0.627451 0.627451 0.643137
v -0.2 0.08 0.005 0.627451 0.627451 0.643137
v -0.28 0.28 0.005 0.627451 0.627451 0.643137
v -0.28 0.16 0.005 0.627451 0.627451 0.643137
v -0.185 0.055 0.005 0.627451 0.627451 0.643137
v -0.05 0.29 0.005 0.627451 0.627451 0.643137
v 0.05 0.29 0.005 0.627451 0.627451 0.643137
v 0.05 0.2975 0.005 0.627451 0.627451 0.643137
v 0.3 0.04 0.005 0.627451 0.627451 0.643137
v -0.3 -0.2975 0.005 0.627451 0.627451 0.643137
v -0.07 -0.2975 0.005 0.627451 0.627451 0.643137
v 0.07 0.29 0.005 0.627451 0.627451 0.643137
v -0.07 0.29 0.005 0.627451 0.627451 0.643137
v -0.28 0.055 0.005 0.627451 0.627451 0.643137
v -0.3 -0.04 0.005 0.627451 0.627451 0.643137
v 0.07 0.2975 0.005 0.627451 0.627451 0.643137
v -0.2 0.055 0.005 0.627451 0.627451 0.643137
v -0.28 0.04 0.005 0.627451 0.627451 0.643137
v -0.05 0.2975 0.005 0.627451 0.627451 0.643137
v -0.28 0.15 0.005 0.627451 0.627451 0.643137
v 0.07 -0.2975 0.005 0.627451 0.627451 0.643137
v -0.2 0.15 0.005 0.627451 0.627451 0.643137
v -0.3 -0.2975 0 0.627451 0.627451 0.643137
v 0.3 -0.2975 0 0.627451 0.627451 0.643137
v 0.05 0.2975 6.93889e-18 0.627451 0.627451 0.643137
v -0.05 0.2975 -4.77049e-18 0.627451 0.627451 0.643137
v 0.3 -0.04 0.605 0.627451 0.627451 0.643137
v 0.3 0.04 0.605 0.627451 0.627451 0.643137
v 0.3 0.2975 0 0.627451 0.627451 0.643137
v 0.28 -0.04 0.605 0.627451 0.627451 0.643137
v 0.28 0.04 0.605 0.627451 0.627451 0.643137
v 0.07 0.29 0.605 0.627451 0.627451 0.643137
v 0.07 0.2975 0.605 0.627451 0.627451 0.643137
v -0.07 0.2975 0.605 0.627451 0.627451 0.643137
v -0.07 0.29 0.605 0.627451 0.627451 0.643137
v -0.07 0.2975 0.005 0.627451 0.627451 0.643137
v -0.3 0.2975 0.005 0.627451 0.627451 0.643137
v -0.3 0.04 0.005 0.627451 0.627451 0.643137
v -0.3 0.2975 0 0.627451 0.627451 0.643137
v -0.3 0.04 0.605 0.627451 0.627451 0.643137
v -0.3 -0.04 0.605 0.627451 0.627451 0.643137
v -0.28 -0.04 0.605 0.627451 0.627451 0.643137
v -0.28 0.04 0.605 0.627451 0.627451 0.643137
v 0.05 0.29 0.14 0.627451 0.627451 0.643137
v 0.05 0.3055 0.14 0.627451 0.627451 0.643137
v 0.05 0.3055 1.38778e-17 0.627451 0.627451 0.643137
v -0.05 0.3055 -1.38778e-17 0.627451 0.627451 0.643137
v -0.05 0.3055 0.14 0.627451 0.627451 0.643137
v -0.05 0.29 0.14 0.627451 0.627451 0.643137
v 0.06 0.2975 6.93889e-18 0.627451 0.627451 0.643137
v 0.06 0.3055 1.38778e-17 0.627451 0.627451 0.643137
v -0.06 0.2975 0 0.627451 0.627451 0.643137
v -0.06 0.3055 0 0.627451 0.627451 0.643137
v 0.06 0.3055 0.14 0.627451 0.627451 0.643137
v 0.06 0.2975 0.14 0.627451 0.627451 0.643137
v 0.05 0.3055 0.15 0.627451 0.627451 0.643137
v 0.05 0.2975 0.15 0.627451 0.627451 0.643137
v -0.06 0.3055 0.14 0.627451 0.627451 0.643137
v -0.05 0.3055 0.15 0.627451 0.627451 0.643137
v -0.05 0.2975 0.15 0.627451 0.627451 0.643137
v -0.06 0.2975 0.14 0.627451 0.627451 0.643137
v 0.02 0.2975 0.55 0.627451 0.627451 0.643137
v 0.02 0.2975 0.35 0.627451 0.627451 0.643137
v 0.02 0.2975 0.45 0.627451 0.627451 0.643137
v -0.02 0.2975 0.45 0.627451 0.627451 0.643137
v 0.02 0.2975 0.25 0.627451 0.627451 0.643137
v -0.02 0.2975 0.35 0.627451 0.627451 0.643137
v -0.02 0.2975 0.55 0.627451 0.627451 0.643137
v -0.02 0.2975 0.25 0.627451 0.627451 0.643137
v 0.02 0.29 0.55 0.627451 0.627451 0.643137
v 0.02 0.29 0.45 0.627451 0.627451 0.643137
v 0.02 0.29 0.35 0.627451 0.627451 0.643137
v -0.02 0.29 0.55 0.627451 0.627451 0.643137
v 0.02 0.29 0.25 0.627451 0.627451 0.643137
v -0.02 0.29 0.45 0.627451 0.627451 0.643137
v -0.02 0.29 0.25 0.627451 0.627451 0.643137
v -0.02 0.29 0.35 0.627451 0.627451 0.643137
vn 0 0 1
vn 1.10097e-16 -1 0
vn -2.20194e-16 1 0
vn 1 2.23911e-16 -0
vn 0 0 1
vn 0 -1 0
vn -1 0 0
vn 0 1 0
vn 1 0 -0
vn 0 0 1
vn -1 0 0
vn -0 -1 -0
vn -0 1 -0
vn 1 -0 -0
vn -1 -2.20194e-16 0
vn -0 0 -1
vn 1 2.20194e-16 -0
vn 0.707107 1.55701e-16 0.707107
vn -2.20194e-16 1 0
vn -0.707107 -1.55701e-16 0.707107
vn 0 0 1
vn -1 -2.20194e-16 -0
vn -2.20194e-16 1 0
vn 0 -1 0
vn 0 -0 1
vn -1 -2.20194e-16 0
vn -0 0 -1
vn 1 2.20194e-16 0
vn 0 -0 1
vn -1 -2.20194e-16 0
vn -0 0 -1
vn 1 2.20194e-16 0
vt 0.02 -0.12
vt -0.02 -0.12
vt -0.02 -0.24
vt 0.02 -0.24
vt 0.28 0.04
vt 0.02 -0.12
vt 0.06 -0.12
vt -0.06 -0.29
vt 0.06 -0.29
vt 0.02 -0.24
vt 0.28 -0.04
vt -0.02 -0.24
vt 0.3 0.2975
vt -0.185 0.08
vt -0.185 0.117934
vt -0.2 0.117934
vt -0.09 0.28
vt -0.185 0.16
vt 0.3 -0.2975
vt 0.3 -0.04
vt 0.07 -0.12
vt -0.06 -0.12
vt -0.07 0.04
vt -0.28 -0.04
vt -0.07 -0.12
vt -0.09 0.12
vt -0.07 0.12
vt -0.07 0.055
vt -0.2 0.08
vt -0.28 0.28
vt -0.28 0.16
vt -0.185 0.055
vt -0.05 0.29
vt 0.05 0.29
vt 0.05 0.2975
vt 0.3 0.04
vt -0.3 -0.2975
vt -0.07 -0.2975
vt -0.02 -0.12
vt 0.07 0.29
vt -0.07 0.29
vt -0.28 0.055
vt -0.3 -0.04
vt 0.07 0.2975
vt -0.2 0.055
vt -0.28 0.04
vt -0.05 0.2975
vt -0.28 0.15
vt 0.07 -0.2975
vt -0.2 0.15
vt -0.07 -0.12
vt -0.07 -0.2975
vt -0.06 -0.29
vt 0.07 -0.2975
vt 0.06 -0.29
vt 0.07 -0.12
vt 0.06 -0.12
vt -0.06 -0.12
vt -0.3 -0.005
vt 0.3 -0.005
vt 0.07 0
vt -0.07 0
vt 0.3 0
vt -0.3 0
vt -0.05 -0.005
vt 0.05 -0.005
vt 0.05 -8.67362e-19
vt -0.05 1.30104e-17
vt -0.2975 -0.005
vt 0.04 0
vt -0.04 0
vt -0.04 0.6
vt 0.04 0.6
vt 0.2975 -0.005
vt 0.2975 0
vt -0.2975 0
vt -0.04 -0.28
vt -0.04 -0.3
vt 0.04 -0.3
vt 0.04 -0.28
vt -0 -0.005
vt 0.6 -0.005
vt 0.6 0.015
vt 0 0.015
vt 0 0.04
vt -0.6 0.04
vt -0.6 -0.04
vt 0 -0.04
vt 0 0.015
vt -0.6 0.015
vt -0.6 -0.005
vt 0 -0.005
vt -0 -0.00375
vt 0.6 -0.00375
vt 0.6 0.00375
vt 0 0.00375
vt -0.07 -0.2975
vt 0.07 -0.2975
vt 0.07 -0.29
vt -0.07 -0.29
vt 0 0.00375
vt -0.6 0.00375
vt -0.6 -0.00375
vt 0 -0.00375
vt -0.3 0.2975
vt -0.28 0.15
vt -0.28 0.16
vt -0.185 0.117934
vt -0.185 0.16
vt -0.2 0.15
vt -0.07 0.2975
vt -0.28 0.28
vt -0.28 0.055
vt -0.3 0.04
vt -0.28 0.04
vt -0.09 0.28
vt -0.185 0.055
vt -0.2 0.055
vt -0.2 0.08
vt -0.185 0.08
vt -0.07 0.12
vt -0.07 0.29
vt -0.07 0.04
vt -0.07 0.055
vt -0.09 0.12
vt -0.2 0.117934
vt -0.2975 -0.005
vt 0.04 0
vt -0.04 2.60209e-18
vt -0.04 0.6
vt 0.04 0.6
vt 0.2975 -0.005
vt 0.2975 0
vt -0.2975 0
vt -0.04 0.28
vt 0.04 0.28
vt 0.04 0.3
vt -0.04 0.3
vt 0 -0.015
vt -0.6 -0.015
vt -0.6 0.005
vt 0 0.005
vt 0 0.005
vt 0.6 0.005
vt 0.6 -0.015
vt -0 -0.015
vt 0 -0.04
vt -0.6 -0.04
vt -0.6 0.04
vt 0 0.04
vt -0.0425 0.0625
vt -0.058 0.0625
vt -0.05 -0.0725
vt -0.058 -0.0775
vt -0.05 -0.0775
vt -0.0425 -0.0725
vt 0.058 -0.0775
vt 0.058 0.0625
vt 0.05 -0.0725
vt 0.0425 0.0625
vt 0.0425 -0.0725
vt 0.05 -0.0775
vt 0.05 0.0425
vt 0.05 0.058
vt -0.05 0.058
vt -0.05 0.0425
vt 0.3 -0.2975
vt 0.05 0.2975
vt 0.06 0.2975
vt 0.06 0.3055
vt 0.05 0.3055
vt -0.06 0.2975
vt -0.05 0.2975
vt -0.05 0.3055
vt -0.06 0.3055
vt -0.3 -0.2975
vt -0.3 0.2975
vt 0.3 0.2975
vt -0.008 -0.0775
vt 0 -0.0775
vt 0 0.0625
vt -0.008 0.0625
vt 0.008 1.24561e-18
vt 0 0
vt -2.20194e-18 0.0141421
vt 0.008 0.0141421
vt 0.05 -1.38778e-17
vt 0.06 0
vt 0.06 0.14
vt 0.05 0.15
vt 0.05 0.14
vt -0.05 0.15
vt -0.05 0.14
vt -0.05 1.38778e-17
vt -0.06 0.14
vt -0.06 1.38778e-17
vt 0.008 1.24561e-18
vt 0 -0
vt -2.20194e-18 0.0141421
vt 0.008 0.0141421
vt -0.05 0
vt -0.05 -0.008
vt 0.05 -0.008
vt 0.05 0
vt 0 -0.0775
vt 0.008 -0.0775
vt 0.008 0.0625
vt 0 0.0625
vt 0.07 0.6
vt -0.07 0.6
vt -0.02 0.545
vt -0.02 0.345
vt -0.02 0.445
vt 0.02 0.445
vt -0.06 0.135
vt -0.02 0.245
vt -0.07 0
vt -0.06 -0.005
vt 0.02 0.345
vt 0.02 0.545
vt -0.3 -0.005
vt -0.05 0.145
vt 0.05 0.145
vt 0.02 0.245
vt -0.3 0
vt 0.07 0
vt 0.06 0.135
vt 0.06 -0.005
vt 0.3 -0.005
vt 0.3 0
vt 0 0.07
vt 0.055 0.02
vt 0.155 0.02
vt 0.6 0.07
vt 0.465 0.05
vt 0.255 0.02
vt -0 -0.07
vt 0.055 -0.02
vt 0.465 -0.05
vt 0.355 0.02
vt 0.6 -0.07
vt 0.155 -0.02
vt 0.355 -0.02
vt 0.255 -0.02
vt 0.6 -0.05
vt 0.6 0.05
vt -0.02 0.03
vt -0.02 0.0225
vt 0.02 0.0225
vt 0.02 0.03
vt -0.0225 -0.05
vt -0.0225 0.05
vt -0.03 0.05
vt -0.03 -0.05
vt 0.02 0.0225
vt 0.02 0.03
vt -0.02 0.03
vt -0.02 0.0225
vt 0.0225 0.05
vt 0.0225 -0.05
vt 0.03 -0.05
vt 0.03 0.05
vt -0.02 0.03
vt -0.02 0.0225
vt 0.02 0.0225
vt 0.02 0.03
vt -0.0225 -0.05
vt -0.0225 0.05
vt -0.03 0.05
vt -0.03 -0.05
vt 0.02 0.0225
vt 0.02 0.03
vt -0.02 0.03
vt -0.02 0.0225
vt 0.0225 0.05
vt 0.0225 -0.05
vt 0.03 -0.05
vt 0.03 0.05
f 1/1/1 2/2/1 3/3/1
f 3/3/1 4/4/1 1/1/1
f 5/5/1 1/6/1 6/7/1
f 7/8/1 8/9/1 4/10/1
f 6/7/1 9/11/1 5/5/1
f 6/7/1 1/6/1 4/10/1
f 4/10/1 3/12/1 7/8/1
f 4/10/1 8/9/1 6/7/1
f 5/5/1 10/13/1 1/6/1
f 11/14/1 12/15/1 13/16/1
f 14/17/1 15/18/1 12/15/1
f 16/19/1 17/20/1 18/21/1
f 3/12/1 19/22/1 7/8/1
f 20/23/1 21/24/1 22/25/1
f 23/26/1 14/17/1 11/14/1
f 12/15/1 11/14/1 14/17/1
f 1/6/1 24/27/1 25/28/1
f 25/28/1 24/27/1 23/26/1
f 17/20/1 6/7/1 18/21/1
f 6/7/1 17/20/1 9/11/1
f 19/22/1 25/28/1 20/23/1
f 13/16/1 26/29/1 11/14/1
f 27/30/1 28/31/1 15/18/1
f 23/26/1 29/32/1 25/28/1
f 30/33/1 31/34/1 32/35/1
f 5/5/1 33/36/1 10/13/1
f 22/25/1 19/22/1 20/23/1
f 34/37/1 35/38/1 22/25/1
f 15/18/1 14/17/1 27/30/1
f 25/28/1 3/12/1 2/39/1
f 30/33/1 1/6/1 31/34/1
f 1/6/1 10/13/1 36/40/1
f 19/22/1 3/12/1 25/28/1
f 22/25/1 21/24/1 34/37/1
f 25/28/1 2/39/1 1/6/1
f 30/33/1 37/41/1 24/27/1
f 36/40/1 31/34/1 1/6/1
f 38/42/1 26/29/1 13/16/1
f 21/24/1 39/43/1 34/37/1
f 24/27/1 1/6/1 30/33/1
f 10/13/1 40/44/1 36/40/1
f 38/42/1 41/45/1 26/29/1
f 20/23/1 42/46/1 21/24/1
f 32/35/1 43/47/1 30/33/1
f 13/16/1 44/48/1 38/42/1
f 11/14/1 29/32/1 23/26/1
f 18/21/1 45/49/1 16/19/1
f 13/16/1 46/50/1 44/48/1
f 22/51/1 35/52/1 7/53/1
f 35/52/1 45/54/1 8/55/1
f 8/55/1 7/53/1 35/52/1
f 18/56/1 6/57/1 8/55/1
f 8/55/1 45/54/1 18/56/1
f 7/53/1 19/58/1 22/51/1
f 47/59/2 48/60/2 45/61/2
f 45/61/2 35/62/2 47/59/2
f 48/60/2 16/63/2 45/61/2
f 35/62/2 34/64/2 47/59/2
f 49/65/3 50/66/3 43/67/3
f 43/67/3 32/68/3 49/65/3
f 48/69/4 33/70/4 17/71/4
f 51/72/4 17/71/4 33/70/4
f 33/70/4 52/73/4 51/72/4
f 53/74/4 10/75/4 33/70/4
f 33/70/4 48/69/4 53/74/4
f 17/71/4 16/76/4 48/69/4
f 54/77/5 51/78/5 52/79/5
f 52/79/5 55/80/5 54/77/5
f 54/81/6 9/82/6 17/83/6
f 17/83/6 51/84/6 54/81/6
f 55/85/7 5/86/7 9/87/7
f 9/87/7 54/88/7 55/85/7
f 52/89/8 33/90/8 5/91/8
f 5/91/8 55/92/8 52/89/8
f 56/93/9 36/94/9 40/95/9
f 40/95/9 57/96/9 56/93/9
f 57/97/10 58/98/10 59/99/10
f 59/99/10 56/100/10 57/97/10
f 58/101/11 60/102/11 37/103/11
f 37/103/11 59/104/11 58/101/11
f 61/105/10 44/106/10 28/107/10
f 12/108/10 15/109/10 46/110/10
f 60/111/10 61/105/10 27/112/10
f 44/106/10 46/110/10 28/107/10
f 15/109/10 28/107/10 46/110/10
f 28/107/10 27/112/10 61/105/10
f 38/113/10 62/114/10 42/115/10
f 27/112/10 14/116/10 60/111/10
f 62/114/10 38/113/10 44/106/10
f 42/115/10 29/117/10 41/118/10
f 26/119/10 41/118/10 29/117/10
f 44/106/10 61/105/10 62/114/10
f 29/117/10 11/120/10 26/119/10
f 24/121/10 37/122/10 14/116/10
f 42/115/10 41/118/10 38/113/10
f 20/123/10 25/124/10 29/117/10
f 14/116/10 23/125/10 24/121/10
f 29/117/10 42/115/10 20/123/10
f 46/110/10 13/126/10 12/108/10
f 37/122/10 60/111/10 14/116/10
f 63/127/11 39/128/11 62/129/11
f 64/130/11 62/129/11 39/128/11
f 39/128/11 65/131/11 64/130/11
f 47/132/11 34/133/11 39/128/11
f 39/128/11 63/127/11 47/132/11
f 62/129/11 61/134/11 63/127/11
f 66/135/10 67/136/10 64/137/10
f 64/137/10 65/138/10 66/135/10
f 65/139/12 39/140/12 21/141/12
f 21/141/12 66/142/12 65/139/12
f 67/143/13 42/144/13 62/145/13
f 62/145/13 64/146/13 67/143/13
f 66/147/14 21/148/14 42/149/14
f 42/149/14 67/150/14 66/147/14
f 68/151/15 69/152/15 32/153/15
f 70/154/15 49/155/15 32/153/15
f 32/153/15 69/152/15 70/154/15
f 32/153/15 31/156/15 68/151/15
f 71/157/14 72/158/14 43/159/14
f 73/160/14 30/161/14 43/159/14
f 43/159/14 72/158/14 73/160/14
f 43/159/14 50/162/14 71/157/14
f 73/163/16 72/164/16 69/165/16
f 69/165/16 68/166/16 73/163/16
f 48/167/16 49/168/16 74/169/16
f 75/170/16 74/169/16 49/168/16
f 49/168/16 70/171/16 75/170/16
f 48/167/16 76/172/16 50/173/16
f 50/173/16 49/168/16 48/167/16
f 71/174/16 50/173/16 76/172/16
f 76/172/16 77/175/16 71/174/16
f 47/176/16 63/177/16 76/172/16
f 76/172/16 48/167/16 47/176/16
f 74/169/16 53/178/16 48/167/16
f 74/179/17 75/180/17 78/181/17
f 78/181/17 79/182/17 74/179/17
f 79/183/18 78/184/18 80/185/18
f 80/185/18 81/186/18 79/183/18
f 71/187/19 77/188/19 82/189/19
f 82/189/19 83/190/19 72/191/19
f 80/192/19 69/193/19 72/191/19
f 70/194/19 69/193/19 78/195/19
f 72/191/19 83/190/19 80/192/19
f 78/195/19 75/196/19 70/194/19
f 69/193/19 80/192/19 78/195/19
f 82/189/19 72/191/19 71/187/19
f 84/197/20 83/198/20 82/199/20
f 82/199/20 85/200/20 84/197/20
f 83/201/21 84/202/21 81/203/21
f 81/203/21 80/204/21 83/201/21
f 77/205/22 76/206/22 85/207/22
f 85/207/22 82/208/22 77/205/22
f 58/209/23 57/210/23 86/211/23
f 57/210/23 87/212/23 88/213/23
f 88/213/23 86/211/23 57/210/23
f 89/214/23 88/213/23 87/212/23
f 79/215/23 90/216/23 87/212/23
f 40/217/23 74/218/23 79/215/23
f 87/212/23 91/219/23 89/214/23
f 58/209/23 92/220/23 89/214/23
f 53/221/23 74/218/23 40/217/23
f 79/215/23 57/210/23 40/217/23
f 81/222/23 84/223/23 93/224/23
f 89/214/23 91/219/23 58/209/23
f 87/212/23 57/210/23 79/215/23
f 93/224/23 90/216/23 81/222/23
f 40/217/23 10/225/23 53/221/23
f 90/216/23 79/215/23 81/222/23
f 60/226/23 58/209/23 85/227/23
f 85/227/23 58/209/23 91/219/23
f 84/223/23 85/227/23 93/224/23
f 91/219/23 93/224/23 85/227/23
f 85/227/23 76/228/23 60/226/23
f 63/229/23 61/230/23 60/226/23
f 60/226/23 76/228/23 63/229/23
f 86/211/23 92/220/23 58/209/23
f 56/231/24 94/232/24 95/233/24
f 36/234/24 56/231/24 68/235/24
f 68/235/24 56/231/24 96/236/24
f 95/233/24 96/236/24 56/231/24
f 59/237/24 97/238/24 94/232/24
f 73/239/24 68/235/24 98/240/24
f 96/236/24 98/240/24 68/235/24
f 94/232/24 56/231/24 59/237/24
f 59/237/24 37/241/24 99/242/24
f 73/239/24 100/243/24 101/244/24
f 37/241/24 30/245/24 73/239/24
f 68/235/24 31/246/24 36/234/24
f 99/242/24 97/238/24 59/237/24
f 73/239/24 99/242/24 37/241/24
f 95/233/24 101/244/24 96/236/24
f 101/244/24 99/242/24 73/239/24
f 101/244/24 95/233/24 99/242/24
f 98/240/24 100/243/24 73/239/24
f 89/247/25 99/248/25 95/249/25
f 95/249/25 88/250/25 89/247/25
f 95/251/26 94/252/26 86/253/26
f 86/253/26 88/254/26 95/251/26
f 97/255/27 92/256/27 86/257/27
f 86/257/27 94/258/27 97/255/27
f 97/259/28 99/260/28 89/261/28
f 89/261/28 92/262/28 97/259/28
f 93/263/29 100/264/29 98/265/29
f 98/265/29 90/266/29 93/263/29
f 98/267/30 96/268/30 87/269/30
f 87/269/30 90/270/30 98/267/30
f 101/271/31 91/272/31 87/273/31
f 87/273/31 96/274/31 101/271/31
f 101/275/32 100/276/32 93/277/32
f 93/277/32 91/278/32 101/275/32
