g Body_01_(2)
v -0.07 -0.2975 0.605 0.627451 0.627451 0.643137
v -0.07 -0.2975 0.405 0.627451 0.627451 0.643137
v 0.07 -0.2975 0.405 0.627451 0.627451 0.643137
v 0.07 -0.2975 0.605 0.627451 0.627451 0.643137
v -0.07 -0.12 0.605 0.627451 0.627451 0.643137
v -0.07 -0.12 0.405 0.627451 0.627451 0.643137
v -0.06 -0.12 0.605 0.627451 0.627451 0.643137
v -0.06 -0.12 0.405 0.627451 0.627451 0.643137
v 0.07 -0.12 0.405 0.627451 0.627451 0.643137
v 0.07 -0.12 0.605 0.627451 0.627451 0.643137
v 0.06 -0.12 0.405 0.627451 0.627451 0.643137
v 0.06 -0.12 0.605 0.627451 0.627451 0.643137
v 0.06 -0.29 0.405 0.627451 0.627451 0.643137
v -0.06 -0.29 0.405 0.627451 0.627451 0.643137
v -0.06 -0.29 0.605 0.627451 0.627451 0.643137
v 0.06 -0.29 0.605 0.627451 0.627451 0.643137
vn 1.10097e-16 -1 0
vn -1 4.69108e-16 -0
vn -0 1 -0
vn 1 4.69108e-16 -0
vn -0 -0 -1
vn 0 0 1
vn -1 -0 0
vn -0 1 -0
vn 1 -0 -0
vt -0.07 0.2
vt -0.07 0
vt 0.07 0
vt 0.07 0.2
vt 0.08875 0
vt 0.08875 -0.2
vt -0.08875 -0.2
vt -0.08875 0
vt 0 0.005
vt 0.2 0.005
vt 0.2 -0.005
vt -0 -0.005
vt 0.08875 0
vt 0.08875 -0.2
vt -0.08875 -0.2
vt -0.08875 0
vt 0 0.005
vt 0.2 0.005
vt 0.2 -0.005
vt -0 -0.005
vt 0.07 -0.12
vt 0.07 -0.2975
vt 0.06 -0.29
vt -0.07 -0.2975
vt -0.06 -0.29
vt -0.07 -0.12
vt -0.06 -0.12
vt 0.06 -0.12
vt 0.07 0.12
vt 0.07 0.2975
vt 0.06 0.29
vt -0.07 0.2975
vt -0.06 0.29
vt -0.07 0.12
vt -0.06 0.12
vt 0.06 0.12
vt 0 0.085
vt 0.2 0.085
vt 0.2 -0.085
vt -0 -0.085
vt 0 0.06
vt 0.2 0.06
vt 0.2 -0.06
vt -0 -0.06
vt 0 -0.085
vt -0.2 -0.085
vt -0.2 0.085
vt 0 0.085
f 1/1/1 2/2/1 3/3/1
f 3/3/1 4/4/1 1/1/1
f 5/5/2 6/6/2 2/7/2
f 2/7/2 1/8/2 5/5/2
f 7/9/3 8/10/3 6/11/3
f 6/11/3 5/12/3 7/9/3
f 4/13/4 3/14/4 9/15/4
f 9/15/4 10/16/4 4/13/4
f 10/17/3 9/18/3 11/19/3
f 11/19/3 12/20/3 10/17/3
f 9/21/5 3/22/5 13/23/5
f 3/22/5 2/24/5 14/25/5
f 14/25/5 13/23/5 3/22/5
f 6/26/5 8/27/5 14/25/5
f 14/25/5 2/24/5 6/26/5
f 13/23/5 11/28/5 9/21/5
f 5/29/6 1/30/6 15/31/6
f 1/30/6 4/32/6 16/33/6
f 16/33/6 15/31/6 1/30/6
f 10/34/6 12/35/6 16/33/6
f 16/33/6 4/32/6 10/34/6
f 15/31/6 7/36/6 5/29/6
f 12/37/7 11/38/7 13/39/7
f 13/39/7 16/40/7 12/37/7
f 16/41/8 13/42/8 14/43/8
f 14/43/8 15/44/8 16/41/8
f 15/45/9 14/46/9 8/47/9
f 8/47/9 7/48/9 15/45/9
