g Body_01_(2)
v 0.015 -0.24 0.405 0.627451 0.627451 0.643137
v -0.015 -0.24 0.405 0.627451 0.627451 0.643137
v -0.015 -0.12 0.405 0.627451 0.627451 0.643137
v 0.015 -0.12 0.405 0.627451 0.627451 0.643137
v 0.015 -0.24 0.605 0.627451 0.627451 0.643137
v -0.015 -0.24 0.605 0.627451 0.627451 0.643137
v 0.015 -0.12 0.605 0.627451 0.627451 0.643137
v -0.015 -0.12 0.605 0.627451 0.627451 0.643137
vn -0 -0 -1
vn 0 -1 0
vn 0 1 0
vn 0 0 1
vn -1 0 0
vn 1 0 -0
vt 0.015 -0.24
vt -0.015 -0.24
vt -0.015 -0.12
vt 0.015 -0.12
vt 0 0.015
vt -0 -0.015
vt 0.2 -0.015
vt 0.2 0.015
vt 0 0.015
vt -0.2 0.015
vt -0.2 -0.015
vt 0 -0.015
vt -0.015 0.12
vt 0.015 0.12
vt 0.015 0.24
vt -0.015 0.24
vt 0 0.06
vt -0.2 0.06
vt -0.2 -0.06
vt 0 -0.06
vt 0 0.06
vt -0 -0.06
vt 0.2 -0.06
vt 0.2 0.06
f 1/1/1 2/2/1 3/3/1
f 3/3/1 4/4/1 1/1/1
f 5/5/2 6/6/2 2/7/2
f 2/7/2 1/8/2 5/5/2
f 7/9/3 4/10/3 3/11/3
f 3/11/3 8/12/3 7/9/3
f 7/13/4 8/14/4 6/15/4
f 6/15/4 5/16/4 7/13/4
f 8/17/5 3/18/5 2/19/5
f 2/19/5 6/20/5 8/17/5
f 7/21/6 5/22/6 1/23/6
f 1/23/6 4/24/6 7/21/6
