g Body_16_(1)
v -0.7 -0.5 0.541764 0.627451 0.627451 0.643137
v -0.7 -0.5 0.6 0.627451 0.627451 0.643137
v -0.7 -0.54 0.6 0.627451 0.627451 0.643137
v -0.7 0.5 0.541764 0.627451 0.627451 0.643137
v -0.7 0.5 0.6 0.627451 0.627451 0.643137
v -0.7 -0.54 0.541764 0.627451 0.627451 0.643137
v -0.74 0.5 0.541764 0.627451 0.627451 0.643137
v -0.74 -0.54 0.541764 0.627451 0.627451 0.643137
v -0.74 0.5 0.6 0.627451 0.627451 0.643137
v -0.74 -0.54 0.6 0.627451 0.627451 0.643137
vn 1 -0 -0
vn -0 0 -1
vn -0 -0 1
vn 0 -1 0
vn 0 1 0
vn -1 0 0
vt -0.258236 -0.5
vt -0.2 -0.5
vt -0.2 -0.54
vt -0.258236 0.5
vt -0.2 0.5
vt -0.258236 -0.54
vt -0.74 -0.04
vt -0.7 -0.04
vt -0.7 -1.04
vt -0.74 -1.08
vt -0.7 -1.08
vt 0.74 -0.04
vt 0.74 -1.08
vt 0.7 -1.04
vt 0.7 -1.08
vt 0.7 -0.04
vt -0.74 0.271764
vt -0.7 0.271764
vt -0.7 0.33
vt -0.74 0.33
vt -0.258236 -0.74
vt -0.2 -0.74
vt -0.2 -0.7
vt -0.258236 -0.7
vt 0.54 0.271764
vt 0.54 0.33
vt -0.5 0.33
vt -0.5 0.271764
f 1/1/1 2/2/1 3/3/1
f 1/1/1 4/4/1 5/5/1
f 5/5/1 2/2/1 1/1/1
f 3/3/1 6/6/1 1/1/1
f 7/7/2 4/8/2 1/9/2
f 1/9/2 8/10/2 7/7/2
f 1/9/2 6/11/2 8/10/2
f 9/12/3 10/13/3 2/14/3
f 10/13/3 3/15/3 2/14/3
f 2/14/3 5/16/3 9/12/3
f 8/17/4 6/18/4 3/19/4
f 3/19/4 10/20/4 8/17/4
f 7/21/5 9/22/5 5/23/5
f 5/23/5 4/24/5 7/21/5
f 8/25/6 10/26/6 9/27/6
f 9/27/6 7/28/6 8/25/6
