g Body_25
v 0.05 0.1 0.355 0.627451 0.627451 0.643137
v 0.056 0.1 0.355 0.627451 0.627451 0.643137
v 0.056 0.1 0.371708 0.627451 0.627451 0.643137
v 0.05 0.1 0.371708 0.627451 0.627451 0.643137
v 0.056 0.266 0.355 0.627451 0.627451 0.643137
v 0.056 0.266 0.371708 0.627451 0.627451 0.643137
v 0.05 0.271 0.371708 0.627451 0.627451 0.643137
v 0.05 0.271 0.355 0.627451 0.627451 0.643137
v 0.49 0.271 0.355 0.627451 0.627451 0.643137
v 0.49 0.266 0.355 0.627451 0.627451 0.643137
v 0.49 0.271 0.371708 0.627451 0.627451 0.643137
v 0.49 0.266 0.371708 0.627451 0.627451 0.643137
v 0.494987 0.271 0.37336 0.627451 0.627451 0.643137
v 0.5 0.271 0.29 0.627451 0.627451 0.643137
v 0.49 0.271 0.29 0.627451 0.627451 0.643137
v 0.5 0.271 0.375 0.627451 0.627451 0.643137
v 0.5 0.26 0.375 0.627451 0.627451 0.643137
v 0.494987 0.26 0.37336 0.627451 0.627451 0.643137
v 0.49 0.26 0.371708 0.627451 0.627451 0.643137
v 0.5 0.266 0.29 0.627451 0.627451 0.643137
v 0.49 0.266 0.29 0.627451 0.627451 0.643137
v 0.5 0.266 0.355 0.627451 0.627451 0.643137
v 0.49 0.26 0.355 0.627451 0.627451 0.643137
v 0.5 0.26 0.355 0.627451 0.627451 0.643137
v 0.5 0.26 0.27 0.627451 0.627451 0.643137
v 0.49 0.26 0.27 0.627451 0.627451 0.643137
v 0.5 0.255 0.375 0.627451 0.627451 0.643137
v 0.5 0.255 0.27 0.627451 0.627451 0.643137
v 0.49 0.255 0.27 0.627451 0.627451 0.643137
v 0.49 0.26 0.356708 0.627451 0.627451 0.643137
v 0.49 0.255 0.356708 0.627451 0.627451 0.643137
v 0.41771 0.255 0.34521 0.627451 0.627451 0.643137
v 0.35739 0.26 0.318838 0.627451 0.627451 0.643137
v 0.35739 0.255 0.318838 0.627451 0.627451 0.643137
v 0.305874 0.26 0.292455 0.627451 0.627451 0.643137
v 0.305874 0.255 0.292455 0.627451 0.627451 0.643137
v 0.261422 0.26 0.266105 0.627451 0.627451 0.643137
v 0.261422 0.255 0.266105 0.627451 0.627451 0.643137
v 0.222714 0.255 0.239768 0.627451 0.627451 0.643137
v 0.188739 0.26 0.213378 0.627451 0.627451 0.643137
v 0.188739 0.255 0.213378 0.627451 0.627451 0.643137
v 0.158715 0.26 0.186835 0.627451 0.627451 0.643137
v 0.158715 0.255 0.186835 0.627451 0.627451 0.643137
v 0.132036 0.26 0.160015 0.627451 0.627451 0.643137
v 0.132036 0.255 0.160015 0.627451 0.627451 0.643137
v 0.108226 0.26 0.132764 0.627451 0.627451 0.643137
v 0.108226 0.255 0.132764 0.627451 0.627451 0.643137
v 0.0869207 0.26 0.104906 0.627451 0.627451 0.643137
v 0.0869207 0.255 0.104906 0.627451 0.627451 0.643137
v 0.0678416 0.26 0.07623 0.627451 0.627451 0.643137
v 0.0678416 0.255 0.07623 0.627451 0.627451 0.643137
v 0.05 0.26 0.045 0.627451 0.627451 0.643137
v 0.05 0.255 0.045 0.627451 0.627451 0.643137
v 0.222714 0.26 0.239768 0.627451 0.627451 0.643137
v 0.41771 0.26 0.34521 0.627451 0.627451 0.643137
v 0.470203 0.26 0.349938 0.627451 0.627451 0.643137
v 0.470203 0.255 0.349938 0.627451 0.627451 0.643137
v 0.450821 0.255 0.342966 0.627451 0.627451 0.643137
v 0.450821 0.26 0.342966 0.627451 0.627451 0.643137
v 0.45 0.255 0.24 0.627451 0.627451 0.643137
v 0.45 0.26 0.24 0.627451 0.627451 0.643137
v 0.44 0.255 0.24 0.627451 0.627451 0.643137
v 0.44 0.26 0.24 0.627451 0.627451 0.643137
v 0.05 0.26 0.03 0.627451 0.627451 0.643137
v 0.05 0.255 0.03 0.627451 0.627451 0.643137
v 0.0678416 0.26 0.06123 0.627451 0.627451 0.643137
v 0.0678416 0.255 0.06123 0.627451 0.627451 0.643137
v 0.0860246 0.255 0.0886464 0.627451 0.627451 0.643137
v 0.09 0.255 0.0941739 0.627451 0.627451 0.643137
v 0.0860246 0.26 0.0886464 0.627451 0.627451 0.643137
v 0.09 0.26 0.0941739 0.627451 0.627451 0.643137
v 0.09 0.255 0.03 0.627451 0.627451 0.643137
v 0.09 0.26 0.03 0.627451 0.627451 0.643137
v 0.1 0.26 0.03 0.627451 0.627451 0.643137
v 0.1 0.255 0.03 0.627451 0.627451 0.643137
v 0.0998133 0.26 0.10721 0.627451 0.627451 0.643137
v 0.0998133 0.255 0.10721 0.627451 0.627451 0.643137
v 0.124105 0.26 0.136329 0.627451 0.627451 0.643137
v 0.124105 0.255 0.136329 0.627451 0.627451 0.643137
v 0.14 0.26 0.153388 0.627451 0.627451 0.643137
v 0.14 0.255 0.153388 0.627451 0.627451 0.643137
v 0.14 0.255 0.06 0.627451 0.627451 0.643137
v 0.14 0.26 0.06 0.627451 0.627451 0.643137
v 0.15 0.26 0.06 0.627451 0.627451 0.643137
v 0.15 0.255 0.06 0.627451 0.627451 0.643137
v 0.150621 0.255 0.164056 0.627451 0.627451 0.643137
v 0.150621 0.26 0.164056 0.627451 0.627451 0.643137
v 0.169765 0.26 0.182005 0.627451 0.627451 0.643137
v 0.169765 0.255 0.182005 0.627451 0.627451 0.643137
v 0.19 0.255 0.199421 0.627451 0.627451 0.643137
v 0.19 0.26 0.199421 0.627451 0.627451 0.643137
v 0.19 0.255 0.09 0.627451 0.627451 0.643137
v 0.19 0.26 0.09 0.627451 0.627451 0.643137
v 0.2 0.26 0.09 0.627451 0.627451 0.643137
v 0.2 0.255 0.09 0.627451 0.627451 0.643137
v 0.200233 0.26 0.207696 0.627451 0.627451 0.643137
v 0.200233 0.255 0.207696 0.627451 0.627451 0.643137
v 0.219679 0.255 0.222546 0.627451 0.627451 0.643137
v 0.24 0.26 0.236969 0.627451 0.627451 0.643137
v 0.24 0.255 0.236969 0.627451 0.627451 0.643137
v 0.219679 0.26 0.222546 0.627451 0.627451 0.643137
v 0.24 0.255 0.12 0.627451 0.627451 0.643137
v 0.24 0.26 0.12 0.627451 0.627451 0.643137
v 0.25 0.26 0.12 0.627451 0.627451 0.643137
v 0.25 0.255 0.12 0.627451 0.627451 0.643137
v 0.250136 0.255 0.243786 0.627451 0.627451 0.643137
v 0.250136 0.26 0.243786 0.627451 0.627451 0.643137
v 0.269705 0.26 0.256304 0.627451 0.627451 0.643137
v 0.269705 0.255 0.256304 0.627451 0.627451 0.643137
v 0.29 0.26 0.268468 0.627451 0.627451 0.643137
v 0.29 0.255 0.268468 0.627451 0.627451 0.643137
v 0.29 0.26 0.15 0.627451 0.627451 0.643137
v 0.29 0.255 0.15 0.627451 0.627451 0.643137
v 0.3 0.26 0.15 0.627451 0.627451 0.643137
v 0.3 0.255 0.15 0.627451 0.627451 0.643137
v 0.300426 0.26 0.27442 0.627451 0.627451 0.643137
v 0.300426 0.255 0.27442 0.627451 0.627451 0.643137
v 0.319909 0.26 0.285045 0.627451 0.627451 0.643137
v 0.319909 0.255 0.285045 0.627451 0.627451 0.643137
v 0.34 0.26 0.295373 0.627451 0.627451 0.643137
v 0.34 0.255 0.295373 0.627451 0.627451 0.643137
v 0.34 0.26 0.18 0.627451 0.627451 0.643137
v 0.34 0.255 0.18 0.627451 0.627451 0.643137
v 0.35 0.26 0.18 0.627451 0.627451 0.643137
v 0.35 0.255 0.18 0.627451 0.627451 0.643137
v 0.349887 0.26 0.300237 0.627451 0.627451 0.643137
v 0.349887 0.255 0.300237 0.627451 0.627451 0.643137
v 0.369671 0.26 0.309569 0.627451 0.627451 0.643137
v 0.369671 0.255 0.309569 0.627451 0.627451 0.643137
v 0.39 0.26 0.318635 0.627451 0.627451 0.643137
v 0.39 0.255 0.318635 0.627451 0.627451 0.643137
v 0.39 0.26 0.21 0.627451 0.627451 0.643137
v 0.39 0.255 0.21 0.627451 0.627451 0.643137
v 0.4 0.26 0.21 0.627451 0.627451 0.643137
v 0.4 0.255 0.21 0.627451 0.627451 0.643137
v 0.44 0.255 0.338919 0.627451 0.627451 0.643137
v 0.419971 0.255 0.331118 0.627451 0.627451 0.643137
v 0.400413 0.255 0.323087 0.627451 0.627451 0.643137
v 0.419971 0.26 0.331118 0.627451 0.627451 0.643137
v 0.400413 0.26 0.323087 0.627451 0.627451 0.643137
v 0.44 0.26 0.338919 0.627451 0.627451 0.643137
vn 0 -1 -0
vn 1 0 -3.32246e-15
vn -1 -0 1.28042e-15
vn -1.28042e-15 0 -1
vn 1.28042e-15 0 1
vn 0 -1 -0
vn 0 1 0
vn -0.30913 -0 0.95102
vn -0.312704 -0 0.949851
vn -0.316299 -0 0.94866
vn -0 0 -1
vn -1 -0 1.28042e-15
vn -0 -1 -0
vn -0 0 -1
vn 0 1 0
vn 1 -0 -1.85037e-15
vn -0 0 -1
vn -1 -0 1.28042e-15
vn -0.373274 -0 0.927721
vn -0.30913 -0 0.95102
vn -0.316299 -0 0.94866
vn -0.312704 -0 0.949851
vn -0.30913 -0 0.95102
vn -0.42891 -0 0.903347
vn -0.483524 -0 0.875331
vn -0.536834 -0 0.843688
vn -0.588561 -0 0.808453
vn -0.638427 -0 0.769682
vn -0.686159 -0 0.727451
vn -0.731489 -0 0.681853
vn -0.774151 -0 0.633001
vn -0.813888 -0 0.581022
vn -0.850447 -0 0.52606
vn -0.885116 -0 0.46537
vn -0.588561 -0 0.808453
vn -0.373274 -0 0.927721
vn 0.330973 0 -0.94364
vn 0.345994 0 -0.938237
vn 0.316299 0 -0.94866
vn 0.999968 -0 -0.00797025
vn -0 0 -1
vn -1 -0 -0
vn 0.850447 0 -0.52606
vn 0.885116 0 -0.46537
vn 0.815587 0 -0.578634
vn 0.808065 0 -0.589093
vn 0.885116 0 -0.46537
vn -1 -0 -0
vn -0 0 -1
vn 0.999997 -0 0.00241815
vn 0.745476 0 -0.666532
vn 0.789681 0 -0.613517
vn 0.717675 0 -0.696379
vn -1 -0 2.67485e-15
vn -8.32667e-15 0 -1
vn 0.999982 -0 -0.00596648
vn 0.668186 0 -0.743994
vn 0.699625 0 -0.71451
vn 0.636498 0 -0.771278
vn -1 -0 -0
vn -0 0 -1
vn 0.999998 -0 -0.00198144
vn 0.592842 0 -0.805319
vn 0.621071 0 -0.783754
vn 0.564816 0 -0.825217
vn 0.592842 0 -0.805319
vn -1 -0 3.32205e-15
vn -5.55112e-15 0 -1
vn 0.999999 -0 -0.0010964
vn 0.526428 0 -0.850219
vn 0.551382 0 -0.834253
vn 0.501859 0 -0.864949
vn -1 -0 -0
vn -0 0 -1
vn 0.999994 -0 -0.0034271
vn 0.467928 0 -0.883767
vn 0.489732 0 -0.871873
vn 0.446553 0 -0.894757
vn -1 -0 -0
vn -0 0 -1
vn 1 -0 0.000939532
vn 0.416905 0 -0.90895
vn 0.436427 0 -0.89974
vn 0.397816 0 -0.917465
vn -1 -0 -0
vn -0 0 -1
vn -0 -1 -0
vn 0 1 0
vn 0.999993 -0 -0.00365615
vn 0.371342 0 -0.928496
vn 0.3884 0 -0.921491
vn 0.354677 0 -0.934989
vn -1 -0 -0
vt 0.05 0.355
vt 0.056 0.355
vt 0.056 0.371708
vt 0.05 0.371708
vt -0.00835393 0
vt 0.00835393 0
vt 0.00835393 0.166
vt -0.00835393 0.166
vt -0.1 0.371708
vt -0.271 0.371708
vt -0.271 0.355
vt -0.1 0.355
vt -5.55112e-17 -0.1685
vt 0 0.0025
vt -0.006 -0.0025
vt -0.44 0.0025
vt -0.44 -0.0025
vt -0.006 -0.1685
vt 0.44 0.0025
vt 0 0.0025
vt 0.006 -0.0025
vt 0 -0.1685
vt 0.006 -0.1685
vt 0.44 -0.0025
vt 0.00835393 0.44
vt -0.00835393 0.44
vt -0.00835393 0.006
vt 0.00835393 0.006
vt -0.49 0.355
vt -0.49 0.371708
vt -0.494987 0.37336
vt -0.05 0.371708
vt -0.05 0.355
vt -0.5 0.29
vt -0.49 0.29
vt -0.5 0.375
vt 1 1
vt 1 0
vt 0.99257 0
vt 0.99257 1
vt 0.985139 0.454545
vt 0.985139 0
vt 0.985139 1
vt 0.266 0.5
vt 0.266 0.49
vt 0.271 0.49
vt 0.271 0.5
vt 0.0233539 0.011
vt 0.0233539 0.006
vt -0.0416461 0.006
vt -0.0416461 0.011
vt 0 0.005
vt 0.065 0.005
vt 0.065 -0.005
vt 0 -0.005
vt -0.005 -0.011
vt -0.005 -0.005
vt 0.005 -0.005
vt 0.005 -0.011
vt -0.49 0.455
vt -0.5 0.455
vt -0.5 0.37
vt -0.49 0.37
vt 0.06 0
vt 0.04 0
vt 0.04 0.006
vt -0.025 0.011
vt 0.06 0.011
vt 0.06 -0.005
vt -0.045 -0.005
vt -0.045 0
vt -0.025 0.006
vt 0.005 0
vt 0.005 -0.005
vt -0.005 -0.005
vt -0.005 0
vt -0.0583539 0.006
vt -0.0416461 0.006
vt -0.0433539 0
vt -0.0416461 0
vt -0.0433539 -0.005
vt 0.0433539 -0.005
vt -0.0583539 0
vt 0.0433539 0
vt 0.872786 1
vt 1 1
vt 0.985139 0
vt 0.99257 0
vt 1 0
vt 0.771263 0
vt 0.771263 1
vt 0.677523 0
vt 0.677523 1
vt 0.590104 0
vt 0.590104 1
vt 0.507803 1
vt 0.429605 0
vt 0.429605 1
vt 0.354637 0
vt 0.354637 1
vt 0.282133 0
vt 0.282133 1
vt 0.211398 0
vt 0.211398 1
vt 0.141784 0
vt 0.141784 1
vt 0.0726634 0
vt 0.0726634 1
vt 0 0
vt 0 1
vt 0.507803 0
vt 0.872786 0
vt 0.955258 0
vt 0.955258 1
vt 0.925377 1
vt 0.985139 0
vt 0.985139 1
vt 0.925377 0
vt 0.0514848 0
vt 0.0514848 -0.005
vt -0.0514848 -0.005
vt -0.0514848 0
vt 0.005 0
vt 0.005 -0.005
vt -0.005 -0.005
vt -0.005 0
vt 0.0075 0
vt 0.0075 -0.005
vt -0.0075 -0.005
vt -0.0075 0
vt 0.0726634 0
vt 0.0726634 1
vt 0 1
vt 0.138697 1
vt 0.152285 1
vt 0.138697 0
vt 0.152285 0
vt 0 0
vt 0.0320869 -0.005
vt -0.0320869 -0.005
vt -0.0320869 5.55112e-17
vt 0.0320869 0
vt 0.005 0
vt 0.005 -0.005
vt -0.005 -0.005
vt -0.005 0
vt 0.0386053 0
vt 0.0386053 -0.005
vt -0.0386053 -0.005
vt -0.0386053 0
vt 0.259284 0
vt 0.259284 1
vt 0.184722 1
vt 0.304446 0
vt 0.304446 1
vt 0.184722 0
vt 0.0466942 -0.005
vt -0.0466942 -0.005
vt -0.0466942 0
vt 0.0466942 0
vt 0.005 0
vt 0.005 -0.005
vt -0.005 -0.005
vt -0.005 0
vt 0.0520291 -0.005
vt -0.0520291 -0.005
vt -0.0520291 0
vt 0.0520291 5.55112e-17
vt 0.382958 0
vt 0.382958 1
vt 0.333292 1
vt 0.432623 1
vt 0.432623 0
vt 0.333292 0
vt 0.0547105 -0.005
vt -0.0547105 -0.005
vt -0.0547105 0
vt 0.0547105 0
vt 0.005 0
vt 0.005 -0.005
vt -0.005 -0.005
vt -0.005 0
vt -0.0588481 -0.005
vt -0.0588481 0
vt 0.0588481 -5.55112e-17
vt 0.0588481 -0.005
vt 0.501064 1
vt 0.45677 1
vt 0.45677 0
vt 0.545357 0
vt 0.545357 1
vt 0.501064 0
vt 0.0584847 -0.005
vt -0.0584847 -0.005
vt -0.0584847 0
vt 0.0584847 0
vt 0.005 0
vt 0.005 -0.005
vt -0.005 -0.005
vt -0.005 0
vt 0.0618932 -0.005
vt -0.0618932 -0.005
vt -0.0618932 0
vt 0.0618932 5.55112e-17
vt 0.606919 0
vt 0.606919 1
vt 0.566763 1
vt 0.647075 0
vt 0.647075 1
vt 0.566763 0
vt 0.0592341 0
vt 0.0592341 -0.005
vt -0.0592341 -0.005
vt -0.0592341 0
vt 0.005 0
vt 0.005 -0.005
vt -0.005 -0.005
vt -0.005 0
vt 0.0622106 0
vt 0.0622106 -0.005
vt -0.0622106 -0.005
vt -0.0622106 0
vt 0.703793 0
vt 0.703793 1
vt 0.667164 1
vt 0.740423 0
vt 0.740423 1
vt 0.667164 0
vt 0.0576864 0
vt 0.0576864 -0.005
vt -0.0576864 -0.005
vt -0.0576864 0
vt 0.005 0
vt 0.005 -0.005
vt -0.005 -0.005
vt -0.005 0
vt 0.0601188 0
vt 0.0601188 -0.005
vt -0.0601188 -0.005
vt -0.0601188 0
vt 0.792592 0
vt 0.792592 1
vt 0.758052 1
vt 0.827133 0
vt 0.827133 1
vt 0.758052 0
vt 0.0543177 0
vt 0.0543177 -0.005
vt -0.0543177 -0.005
vt -0.0543177 0
vt 0.005 0
vt 0.005 -0.005
vt -0.005 -0.005
vt -0.005 0
vt -0.5 0.475
vt -0.44 0.438919
vt -0.450821 0.442966
vt -0.470203 0.449938
vt -0.45 0.34
vt -0.41771 0.44521
vt -0.419971 0.431118
vt -0.39 0.418635
vt -0.400413 0.423087
vt -0.5 0.37
vt -0.49 0.456708
vt -0.44 0.34
vt -0.4 0.31
vt -0.35739 0.418838
vt -0.369671 0.409569
vt -0.34 0.395373
vt -0.349887 0.400237
vt -0.39 0.31
vt -0.35 0.28
vt -0.305874 0.392455
vt -0.319909 0.385045
vt -0.29 0.368468
vt -0.300426 0.37442
vt -0.34 0.28
vt -0.3 0.25
vt -0.261422 0.366105
vt -0.269705 0.356304
vt -0.24 0.336969
vt -0.250136 0.343786
vt -0.29 0.25
vt -0.25 0.22
vt -0.222714 0.339768
vt -0.219679 0.322546
vt -0.19 0.299421
vt -0.200233 0.307696
vt -0.158715 0.286835
vt -0.169765 0.282005
vt -0.24 0.22
vt -0.2 0.19
vt -0.188739 0.313378
vt -0.14 0.253388
vt -0.150621 0.264056
vt -0.132036 0.260015
vt -0.108226 0.232764
vt -0.124105 0.236329
vt -0.19 0.19
vt -0.15 0.16
vt -0.09 0.194174
vt -0.0998133 0.20721
vt -0.14 0.16
vt -0.1 0.13
vt -0.0869207 0.204906
vt -0.0860246 0.188646
vt -0.0678416 0.17623
vt -0.0678416 0.16123
vt -0.09 0.13
vt -0.05 0.145
vt -0.05 0.13
vt -0.49 0.37
vt -0.41771 0.44521
vt -0.419971 0.431118
vt -0.400413 0.423087
vt -0.49 0.471708
vt -0.44 0.438919
vt -0.470203 0.449938
vt -0.450821 0.442966
vt -0.35739 0.418838
vt -0.369671 0.409569
vt -0.349887 0.400237
vt -0.39 0.418635
vt -0.4 0.31
vt -0.39 0.31
vt -0.45 0.34
vt -0.44 0.34
vt -0.49 0.456708
vt -0.305874 0.392455
vt -0.319909 0.385045
vt -0.300426 0.37442
vt -0.34 0.395373
vt -0.35 0.28
vt -0.34 0.28
vt -0.261422 0.366105
vt -0.269705 0.356304
vt -0.250136 0.343786
vt -0.29 0.368468
vt -0.3 0.25
vt -0.29 0.25
vt -0.158715 0.286835
vt -0.188739 0.313378
vt -0.19 0.299421
vt -0.222714 0.339768
vt -0.219679 0.322546
vt -0.200233 0.307696
vt -0.24 0.336969
vt -0.25 0.22
vt -0.24 0.22
vt -0.132036 0.260015
vt -0.14 0.253388
vt -0.124105 0.236329
vt -0.169765 0.282005
vt -0.150621 0.264056
vt -0.2 0.19
vt -0.19 0.19
vt -0.108226 0.232764
vt -0.0998133 0.20721
vt -0.15 0.16
vt -0.14 0.16
vt -0.0678416 0.17623
vt -0.0869207 0.204906
vt -0.0860246 0.188646
vt -0.09 0.194174
vt -0.1 0.13
vt -0.09 0.13
vt -0.05 0.145
vt -0.0678416 0.16123
vt -0.05 0.13
vt 0.056544 0
vt 0.056544 -0.005
vt -0.056544 -0.005
vt -0.056544 0
vt 0.876444 0
vt 0.876444 1
vt 0.844476 1
vt 0.908412 0
vt 0.908412 1
vt 0.844476 0
vt 0.0494596 0
vt 0.0494596 -0.005
vt -0.0494596 -0.005
vt -0.0494596 0
f 1/1/1 2/2/1 3/3/1
f 3/3/1 4/4/1 1/1/1
f 3/5/2 2/6/2 5/7/2
f 5/7/2 6/8/2 3/5/2
f 4/9/3 7/10/3 8/11/3
f 8/11/3 1/12/3 4/9/3
f 1/13/4 8/14/4 5/15/4
f 9/16/4 10/17/4 5/15/4
f 5/15/4 8/14/4 9/16/4
f 5/15/4 2/18/4 1/13/4
f 11/19/5 7/20/5 6/21/5
f 4/22/5 3/23/5 6/21/5
f 6/21/5 7/20/5 4/22/5
f 6/21/5 12/24/5 11/19/5
f 10/25/6 12/26/6 6/27/6
f 6/27/6 5/28/6 10/25/6
f 9/29/7 11/30/7 13/31/7
f 7/32/7 11/30/7 9/29/7
f 9/29/7 8/33/7 7/32/7
f 14/34/7 15/35/7 9/29/7
f 9/29/7 16/36/7 14/34/7
f 13/31/7 16/36/7 9/29/7
f 17/37/8 16/38/8 13/39/9
f 18/40/9 13/39/9 12/41/10
f 13/39/9 11/42/10 12/41/10
f 12/41/10 19/43/10 18/40/9
f 13/39/9 18/40/9 17/37/8
f 20/44/11 21/45/11 15/46/11
f 15/46/11 14/47/11 20/44/11
f 15/48/12 21/49/12 10/50/12
f 10/50/12 9/51/12 15/48/12
f 20/52/13 22/53/13 10/54/13
f 10/54/13 21/55/13 20/52/13
f 23/56/14 10/57/14 22/58/14
f 22/58/14 24/59/14 23/56/14
f 23/60/15 24/61/15 25/62/15
f 25/62/15 26/63/15 23/60/15
f 17/64/16 24/65/16 22/66/16
f 14/67/16 16/68/16 22/66/16
f 22/66/16 16/68/16 17/64/16
f 17/64/16 27/69/16 24/65/16
f 28/70/16 25/71/16 24/65/16
f 24/65/16 27/69/16 28/70/16
f 22/66/16 20/72/16 14/67/16
f 25/73/17 28/74/17 29/75/17
f 29/75/17 26/76/17 25/73/17
f 12/77/18 10/78/18 30/79/18
f 23/80/18 31/81/18 30/79/18
f 29/82/18 31/81/18 23/80/18
f 30/79/18 10/78/18 23/80/18
f 30/79/18 19/83/18 12/77/18
f 23/80/18 26/84/18 29/82/18
f 32/85/19 27/86/20 19/87/21
f 27/86/20 18/88/22 19/87/21
f 27/86/20 17/89/23 18/88/22
f 33/90/24 34/91/24 32/85/19
f 35/92/25 36/93/25 34/91/24
f 37/94/26 38/95/26 36/93/25
f 39/96/27 38/95/26 37/94/26
f 40/97/28 41/98/28 39/96/27
f 42/99/29 43/100/29 41/98/28
f 44/101/30 45/102/30 43/100/29
f 46/103/31 47/104/31 45/102/30
f 48/105/32 49/106/32 47/104/31
f 50/107/33 51/108/33 49/106/32
f 52/109/34 53/110/34 51/108/33
f 51/108/33 50/107/33 52/109/34
f 49/106/32 48/105/32 50/107/33
f 47/104/31 46/103/31 48/105/32
f 45/102/30 44/101/30 46/103/31
f 43/100/29 42/99/29 44/101/30
f 41/98/28 40/97/28 42/99/29
f 39/96/27 54/111/35 40/97/28
f 37/94/26 54/111/35 39/96/27
f 36/93/25 35/92/25 37/94/26
f 34/91/24 33/90/24 35/92/25
f 32/85/19 55/112/36 33/90/24
f 19/87/21 55/112/36 32/85/19
f 56/113/37 57/114/37 58/115/38
f 30/116/39 31/117/39 57/114/37
f 57/114/37 56/113/37 30/116/39
f 58/115/38 59/118/38 56/113/37
f 59/119/40 58/120/40 60/121/40
f 60/121/40 61/122/40 59/119/40
f 61/123/41 60/124/41 62/125/41
f 62/125/41 63/126/41 61/123/41
f 64/127/42 65/128/42 53/129/42
f 53/129/42 52/130/42 64/127/42
f 66/131/43 67/132/43 65/133/44
f 68/134/45 67/132/43 66/131/43
f 69/135/46 68/134/45 70/136/45
f 70/136/45 71/137/46 69/135/46
f 66/131/43 70/136/45 68/134/45
f 65/133/44 64/138/47 66/131/43
f 72/139/48 69/140/48 71/141/48
f 71/141/48 73/142/48 72/139/48
f 74/143/49 75/144/49 72/145/49
f 72/145/49 73/146/49 74/143/49
f 76/147/50 77/148/50 75/149/50
f 75/149/50 74/150/50 76/147/50
f 78/151/51 79/152/51 77/153/52
f 80/154/53 81/155/53 79/152/51
f 79/152/51 78/151/51 80/154/53
f 77/153/52 76/156/52 78/151/51
f 82/157/54 81/158/54 80/159/54
f 80/159/54 83/160/54 82/157/54
f 84/161/55 85/162/55 82/163/55
f 82/163/55 83/164/55 84/161/55
f 86/165/56 85/166/56 84/167/56
f 84/167/56 87/168/56 86/165/56
f 88/169/57 89/170/57 86/171/58
f 90/172/59 89/170/57 88/169/57
f 88/169/57 91/173/59 90/172/59
f 86/171/58 87/174/58 88/169/57
f 92/175/60 90/176/60 91/177/60
f 91/177/60 93/178/60 92/175/60
f 94/179/61 95/180/61 92/181/61
f 92/181/61 93/182/61 94/179/61
f 95/183/62 94/184/62 96/185/62
f 96/185/62 97/186/62 95/183/62
f 98/187/63 97/188/64 96/189/64
f 99/190/65 100/191/65 98/187/63
f 98/187/63 101/192/66 99/190/65
f 96/189/64 101/192/66 98/187/63
f 102/193/67 100/194/67 99/195/67
f 99/195/67 103/196/67 102/193/67
f 104/197/68 105/198/68 102/199/68
f 102/199/68 103/200/68 104/197/68
f 106/201/69 105/202/69 104/203/69
f 104/203/69 107/204/69 106/201/69
f 108/205/70 109/206/70 106/207/71
f 110/208/72 111/209/72 109/206/70
f 109/206/70 108/205/70 110/208/72
f 106/207/71 107/210/71 108/205/70
f 112/211/73 113/212/73 111/213/73
f 111/213/73 110/214/73 112/211/73
f 114/215/74 115/216/74 113/217/74
f 113/217/74 112/218/74 114/215/74
f 116/219/75 117/220/75 115/221/75
f 115/221/75 114/222/75 116/219/75
f 118/223/76 119/224/76 117/225/77
f 120/226/78 121/227/78 119/224/76
f 119/224/76 118/223/76 120/226/78
f 117/225/77 116/228/77 118/223/76
f 122/229/79 123/230/79 121/231/79
f 121/231/79 120/232/79 122/229/79
f 124/233/80 125/234/80 123/235/80
f 123/235/80 122/236/80 124/233/80
f 126/237/81 127/238/81 125/239/81
f 125/239/81 124/240/81 126/237/81
f 128/241/82 129/242/82 127/243/83
f 130/244/84 131/245/84 129/242/82
f 129/242/82 128/241/82 130/244/84
f 127/243/83 126/246/83 128/241/82
f 132/247/85 133/248/85 131/249/85
f 131/249/85 130/250/85 132/247/85
f 134/251/86 135/252/86 133/253/86
f 133/253/86 132/254/86 134/251/86
f 27/255/87 136/256/87 58/257/87
f 58/257/87 57/258/87 27/255/87
f 60/259/87 58/257/87 136/256/87
f 32/260/87 137/261/87 136/256/87
f 32/260/87 131/262/87 138/263/87
f 28/264/87 27/255/87 31/265/87
f 136/256/87 62/266/87 60/259/87
f 138/263/87 137/261/87 32/260/87
f 135/267/87 138/263/87 131/262/87
f 34/268/87 129/269/87 131/262/87
f 34/268/87 121/270/87 127/271/87
f 57/258/87 31/265/87 27/255/87
f 131/262/87 133/272/87 135/267/87
f 127/271/87 129/269/87 34/268/87
f 125/273/87 127/271/87 121/270/87
f 36/274/87 119/275/87 121/270/87
f 36/274/87 111/276/87 117/277/87
f 136/256/87 27/255/87 32/260/87
f 121/270/87 123/278/87 125/273/87
f 117/277/87 119/275/87 36/274/87
f 115/279/87 117/277/87 111/276/87
f 38/280/87 109/281/87 111/276/87
f 38/280/87 100/282/87 106/283/87
f 131/262/87 32/260/87 34/268/87
f 111/276/87 113/284/87 115/279/87
f 106/283/87 109/281/87 38/280/87
f 105/285/87 106/283/87 100/282/87
f 39/286/87 98/287/87 100/282/87
f 39/286/87 90/288/87 97/289/87
f 43/290/87 89/291/87 90/288/87
f 121/270/87 34/268/87 36/274/87
f 100/282/87 102/292/87 105/285/87
f 97/289/87 98/287/87 39/286/87
f 95/293/87 97/289/87 90/288/87
f 90/288/87 39/286/87 41/294/87
f 43/290/87 81/295/87 86/296/87
f 45/297/87 47/298/87 79/299/87
f 111/276/87 36/274/87 38/280/87
f 90/288/87 92/300/87 95/293/87
f 86/296/87 89/291/87 43/290/87
f 85/301/87 86/296/87 81/295/87
f 81/295/87 43/290/87 45/297/87
f 47/298/87 69/302/87 77/303/87
f 100/282/87 38/280/87 39/286/87
f 81/295/87 82/304/87 85/301/87
f 77/303/87 79/299/87 47/298/87
f 75/305/87 77/303/87 69/302/87
f 49/306/87 68/307/87 69/302/87
f 51/308/87 67/309/87 68/307/87
f 90/288/87 41/294/87 43/290/87
f 69/302/87 72/310/87 75/305/87
f 68/307/87 49/306/87 51/308/87
f 53/311/87 65/312/87 67/309/87
f 79/299/87 81/295/87 45/297/87
f 67/309/87 51/308/87 53/311/87
f 69/302/87 47/298/87 49/306/87
f 31/265/87 29/313/87 28/264/87
f 55/314/88 139/315/88 140/316/88
f 55/314/88 19/317/88 141/318/88
f 19/317/88 56/319/88 59/320/88
f 33/321/88 128/322/88 126/323/88
f 33/321/88 55/314/88 130/324/88
f 134/325/88 132/326/88 130/324/88
f 141/318/88 139/315/88 55/314/88
f 61/327/88 63/328/88 141/318/88
f 19/317/88 30/329/88 56/319/88
f 35/330/88 118/331/88 116/332/88
f 35/330/88 33/321/88 120/333/88
f 124/334/88 122/335/88 120/333/88
f 130/324/88 128/322/88 33/321/88
f 140/316/88 130/324/88 55/314/88
f 59/320/88 141/318/88 19/317/88
f 37/336/88 108/337/88 107/338/88
f 37/336/88 35/330/88 110/339/88
f 114/340/88 112/341/88 110/339/88
f 120/333/88 118/331/88 35/330/88
f 126/323/88 120/333/88 33/321/88
f 141/318/88 59/320/88 61/327/88
f 42/342/88 40/343/88 91/344/88
f 54/345/88 101/346/88 96/347/88
f 54/345/88 37/336/88 99/348/88
f 104/349/88 103/350/88 99/348/88
f 110/339/88 108/337/88 37/336/88
f 116/332/88 110/339/88 35/330/88
f 130/324/88 140/316/88 134/325/88
f 44/351/88 80/352/88 78/353/88
f 42/342/88 88/354/88 87/355/88
f 91/344/88 88/354/88 42/342/88
f 94/356/88 93/357/88 91/344/88
f 99/348/88 101/346/88 54/345/88
f 107/338/88 99/348/88 37/336/88
f 120/333/88 126/323/88 124/334/88
f 46/358/88 78/353/88 76/359/88
f 78/353/88 46/358/88 44/351/88
f 84/360/88 83/361/88 80/352/88
f 40/343/88 54/345/88 91/344/88
f 96/347/88 91/344/88 54/345/88
f 110/339/88 116/332/88 114/340/88
f 50/362/88 48/363/88 70/364/88
f 48/363/88 46/358/88 71/365/88
f 74/366/88 73/367/88 71/365/88
f 44/351/88 42/342/88 80/352/88
f 87/355/88 80/352/88 42/342/88
f 99/348/88 107/338/88 104/349/88
f 52/368/88 50/362/88 66/369/88
f 71/365/88 70/364/88 48/363/88
f 76/359/88 71/365/88 46/358/88
f 91/344/88 96/347/88 94/356/88
f 70/364/88 66/369/88 50/362/88
f 80/352/88 87/355/88 84/360/88
f 71/365/88 76/359/88 74/366/88
f 66/369/88 64/370/88 52/368/88
f 140/371/89 138/372/89 135/373/89
f 135/373/89 134/374/89 140/371/89
f 139/375/90 137/376/90 138/377/91
f 141/378/92 136/379/92 137/376/90
f 137/376/90 139/375/90 141/378/92
f 138/377/91 140/380/91 139/375/90
f 63/381/93 62/382/93 136/383/93
f 136/383/93 141/384/93 63/381/93
