g Body_14_(1)
v 0.05 0 0.29 0.627451 0.627451 0.643137
v 0.05 0 0.285 0.627451 0.627451 0.643137
v 0.05 0.26 0.285 0.627451 0.627451 0.643137
v 0.05 0.26 0.29 0.627451 0.627451 0.643137
v 0.6 0 0.29 0.627451 0.627451 0.643137
v 0.6 0 0.285 0.627451 0.627451 0.643137
v 0.6 -0.4 0.29 0.627451 0.627451 0.643137
v 0.6 -0.4 0.285 0.627451 0.627451 0.643137
v -0.6 -0.4 0.29 0.627451 0.627451 0.643137
v -0.6 -0.4 0.285 0.627451 0.627451 0.643137
v -0.6 0 0.29 0.627451 0.627451 0.643137
v -0.6 0 0.285 0.627451 0.627451 0.643137
v -0.35 0 0.29 0.627451 0.627451 0.643137
v -0.35 0 0.285 0.627451 0.627451 0.643137
v -0.35 0.1 0.29 0.627451 0.627451 0.643137
v -0.35 0.1 0.285 0.627451 0.627451 0.643137
v -0.6 0.1 0.29 0.627451 0.627451 0.643137
v -0.6 0.1 0.285 0.627451 0.627451 0.643137
v -0.6 0.4 0.29 0.627451 0.627451 0.643137
v -0.6 0.4 0.285 0.627451 0.627451 0.643137
v -0.45 0.4 0.29 0.627451 0.627451 0.643137
v -0.45 0.4 0.285 0.627451 0.627451 0.643137
v -0.45 0.25 0.29 0.627451 0.627451 0.643137
v -0.45 0.25 0.285 0.627451 0.627451 0.643137
v -0.35 0.25 0.29 0.627451 0.627451 0.643137
v -0.35 0.25 0.285 0.627451 0.627451 0.643137
v -0.35 0.4 0.29 0.627451 0.627451 0.643137
v -0.35 0.4 0.285 0.627451 0.627451 0.643137
v 0.6 0.4 0.285 0.627451 0.627451 0.643137
v 0.6 0.26 0.285 0.627451 0.627451 0.643137
v 0.6 0.4 0.29 0.627451 0.627451 0.643137
v 0.6 0.26 0.29 0.627451 0.627451 0.643137
vn 1 0 -0
vn 0 1 0
vn 0 -1 0
vn -1 0 0
vn 0 1 0
vn -0 -1 -0
vn -1 0 0
vn 0 1 0
vn 1 0 -0
vn -1 0 0
vn -0 -0 -1
vn 0 0 1
vn 0 1 0
vn 1 0 -0
vn 0 -1 0
vt -0 -0.05
vt 0.005 -0.05
vt 0.005 0.21
vt 0 0.21
vt 0 0.275
vt -0.005 0.275
vt -0.005 -0.275
vt 0 -0.275
vt -0 -0.2
vt 0.005 -0.2
vt 0.005 0.2
vt 0 0.2
vt -0 -0.6
vt 0.005 -0.6
vt 0.005 0.6
vt 0 0.6
vt 0 0.2
vt -0.005 0.2
vt -0.005 -0.2
vt 0 -0.2
vt 0 0.125
vt -0.005 0.125
vt -0.005 -0.125
vt 0 -0.125
vt 0.05 0
vt 0.05 -0.005
vt -0.05 -0.005
vt -0.05 0
vt 0 -0.125
vt -0.005 -0.125
vt -0.005 0.125
vt 0 0.125
vt 0 0.15
vt -0.005 0.15
vt -0.005 -0.15
vt 0 -0.15
vt 0 0.075
vt -0.005 0.075
vt -0.005 -0.075
vt 0 -0.075
vt -0 -0.075
vt 0.005 -0.075
vt 0.005 0.075
vt 0 0.075
vt 0 0.05
vt -0.005 0.05
vt -0.005 -0.05
vt 0 -0.05
vt 0 0.075
vt -0.005 0.075
vt -0.005 -0.075
vt 0 -0.075
vt 0.6 -0.4
vt -0.35 0.25
vt 0.05 0
vt 0.05 0.26
vt -0.35 0.4
vt 0.6 0.4
vt 0.6 0.26
vt -0.35 0.1
vt -0.6 0.1
vt -0.45 0.25
vt -0.35 0
vt -0.6 0.4
vt -0.45 0.4
vt -0.6 -0.4
vt -0.6 0
vt 0.6 0
vt 0.05 0
vt -0.35 0.25
vt -0.35 0.1
vt -0.45 0.25
vt -0.6 0.4
vt -0.6 0.1
vt -0.35 0
vt 0.05 0.26
vt -0.35 0.4
vt 0.6 0.4
vt -0.45 0.4
vt 0.6 -0.4
vt 0.6 0
vt -0.6 -0.4
vt 0.6 0.26
vt -0.6 0
vt 0 0.475
vt -0.005 0.475
vt -0.005 -0.475
vt 0 -0.475
vt 0 0.15
vt 0 0.01
vt 0.005 0.01
vt 0.005 0.15
vt -0 -0.025
vt 0.005 -0.025
vt 0.005 0.525
vt 0 0.525
f 1/1/1 2/2/1 3/3/1
f 3/3/1 4/4/1 1/1/1
f 5/5/2 6/6/2 2/7/2
f 2/7/2 1/8/2 5/5/2
f 7/9/1 8/10/1 6/11/1
f 6/11/1 5/12/1 7/9/1
f 9/13/3 10/14/3 8/15/3
f 8/15/3 7/16/3 9/13/3
f 11/17/4 12/18/4 10/19/4
f 10/19/4 9/20/4 11/17/4
f 13/21/5 14/22/5 12/23/5
f 12/23/5 11/24/5 13/21/5
f 15/25/4 16/26/4 14/27/4
f 14/27/4 13/28/4 15/25/4
f 17/29/6 18/30/6 16/31/6
f 16/31/6 15/32/6 17/29/6
f 19/33/7 20/34/7 18/35/7
f 18/35/7 17/36/7 19/33/7
f 21/37/8 22/38/8 20/39/8
f 20/39/8 19/40/8 21/37/8
f 23/41/9 24/42/9 22/43/9
f 22/43/9 21/44/9 23/41/9
f 25/45/8 26/46/8 24/47/8
f 24/47/8 23/48/8 25/45/8
f 27/49/10 28/50/10 26/51/10
f 26/51/10 25/52/10 27/49/10
f 8/53/11 26/54/11 2/55/11
f 3/56/11 2/55/11 26/54/11
f 26/54/11 28/57/11 3/56/11
f 29/58/11 30/59/11 3/56/11
f 16/60/11 18/61/11 24/62/11
f 8/53/11 14/63/11 16/60/11
f 3/56/11 28/57/11 29/58/11
f 16/60/11 26/54/11 8/53/11
f 24/62/11 26/54/11 16/60/11
f 20/64/11 22/65/11 24/62/11
f 24/62/11 18/61/11 20/64/11
f 10/66/11 12/67/11 14/63/11
f 14/63/11 8/53/11 10/66/11
f 2/55/11 6/68/11 8/53/11
f 1/69/12 25/70/12 15/71/12
f 15/71/12 25/70/12 23/72/12
f 19/73/12 17/74/12 23/72/12
f 23/72/12 17/74/12 15/71/12
f 15/71/12 13/75/12 1/69/12
f 4/76/12 27/77/12 25/70/12
f 31/78/12 27/77/12 4/76/12
f 25/70/12 1/69/12 4/76/12
f 23/72/12 21/79/12 19/73/12
f 7/80/12 5/81/12 1/69/12
f 9/82/12 7/80/12 13/75/12
f 1/69/12 13/75/12 7/80/12
f 4/76/12 32/83/12 31/78/12
f 13/75/12 11/84/12 9/82/12
f 31/85/13 29/86/13 28/87/13
f 28/87/13 27/88/13 31/85/13
f 31/89/14 32/90/14 30/91/14
f 30/91/14 29/92/14 31/89/14
f 4/93/15 3/94/15 30/95/15
f 30/95/15 32/96/15 4/93/15
