g Body_14
v -0.6 -0.5 0.005 0.627451 0.627451 0.643137
v -0.6 -0.5 -6.15827e-17 0.627451 0.627451 0.643137
v 0.6 -0.5 0 0.627451 0.627451 0.643137
v 0.6 -0.5 0.005 0.627451 0.627451 0.643137
v 0.6 0 0 0.627451 0.627451 0.643137
v 0.6 0 0.005 0.627451 0.627451 0.643137
v 0.05 0 0 0.627451 0.627451 0.643137
v 0.05 0 0.005 0.627451 0.627451 0.643137
v 0.05 0.26 0 0.627451 0.627451 0.643137
v 0.05 0.26 0.005 0.627451 0.627451 0.643137
v -0.6 0 0.005 0.627451 0.627451 0.643137
v -0.6 0 0 0.627451 0.627451 0.643137
v -0.35 0 0.005 0.627451 0.627451 0.643137
v -0.35 0 0 0.627451 0.627451 0.643137
v -0.35 0.1 0.005 0.627451 0.627451 0.643137
v -0.35 0.1 0 0.627451 0.627451 0.643137
v -0.6 0.1 0.005 0.627451 0.627451 0.643137
v -0.6 0.1 0 0.627451 0.627451 0.643137
v -0.6 0.4 0.005 0.627451 0.627451 0.643137
v -0.6 0.4 0 0.627451 0.627451 0.643137
v -0.45 0.4 0.005 0.627451 0.627451 0.643137
v -0.45 0.4 0 0.627451 0.627451 0.643137
v -0.45 0.25 0.005 0.627451 0.627451 0.643137
v -0.45 0.25 0 0.627451 0.627451 0.643137
v -0.35 0.25 0.005 0.627451 0.627451 0.643137
v -0.35 0.25 0 0.627451 0.627451 0.643137
v -0.35 0.4 0.005 0.627451 0.627451 0.643137
v -0.35 0.4 0 0.627451 0.627451 0.643137
v 0.6 0.4 0.005 0.627451 0.627451 0.643137
v 0.6 0.4 0 0.627451 0.627451 0.643137
v 0.6 0.1 0.005 0.627451 0.627451 0.643137
v 0.6 0.1 0 0.627451 0.627451 0.643137
v 0.1 0.26 0 0.627451 0.627451 0.643137
v 0.1 0.1 0 0.627451 0.627451 0.643137
v 0.1 0.26 0.005 0.627451 0.627451 0.643137
v 0.1 0.1 0.005 0.627451 0.627451 0.643137
vn 0 -1 0
vn 1 0 -0
vn 0 1 0
vn -1 0 0
vn -0 -1 -0
vn 0 1 0
vn 1 0 -0
vn -1 0 0
vn 0 1 0
vn 1 0 -0
vn -0 -0 -1
vn 0 0 1
vn -0 -1 -0
vn -1 -0 0
vt -0.6 0.005
vt -0.6 -6.15827e-17
vt 0.6 0
vt 0.6 0.005
vt -0 -0.3
vt 0.005 -0.3
vt 0.005 0.2
vt 0 0.2
vt 0 0.275
vt -0.005 0.275
vt -0.005 -0.275
vt 0 -0.275
vt -0 -0.05
vt 0.005 -0.05
vt 0.005 0.21
vt 0 0.21
vt 0 -0.3
vt 0 0.2
vt -0.005 0.2
vt -0.005 -0.3
vt 0 0.125
vt -0.005 0.125
vt -0.005 -0.125
vt 0 -0.125
vt 0.05 0
vt 0.05 -0.005
vt -0.05 -0.005
vt -0.05 0
vt 0 -0.125
vt -0.005 -0.125
vt -0.005 0.125
vt 0 0.125
vt 0 0.15
vt -0.005 0.15
vt -0.005 -0.15
vt 0 -0.15
vt 0 0.075
vt -0.005 0.075
vt -0.005 -0.075
vt 0 -0.075
vt -0 -0.075
vt 0.005 -0.075
vt 0.005 0.075
vt 0 0.075
vt 0 0.05
vt -0.005 0.05
vt -0.005 -0.05
vt 0 -0.05
vt 0 0.075
vt -0.005 0.075
vt -0.005 -0.075
vt 0 -0.075
vt 0 0.475
vt -0.005 0.475
vt -0.005 -0.475
vt 0 -0.475
vt -0 -0.15
vt 0.005 -0.15
vt 0.005 0.15
vt 0 0.15
vt 0.6 -0.5
vt -0.35 0.25
vt 0.05 0
vt 0.05 0.26
vt -0.35 0.4
vt 0.6 0.4
vt 0.1 0.26
vt 0.6 0.1
vt 0.1 0.1
vt -0.35 0.1
vt -0.6 0.1
vt -0.45 0.25
vt -0.35 0
vt -0.6 0.4
vt -0.45 0.4
vt -0.6 -0.5
vt -0.6 0
vt 0.6 0
vt 0.05 0
vt -0.35 0.25
vt -0.35 0.1
vt -0.45 0.25
vt -0.6 0.4
vt -0.6 0.1
vt 0.6 0.1
vt 0.6 0.4
vt 0.1 0.26
vt -0.35 0.4
vt 0.05 0.26
vt -0.35 0
vt -0.45 0.4
vt 0.6 -0.5
vt 0.6 0
vt -0.6 -0.5
vt 0.1 0.1
vt -0.6 0
vt 0 -0.225
vt -0.005 -0.225
vt -0.005 0.275
vt 0 0.275
vt 0 0.08
vt 0.005 0.08
vt 0.005 -0.08
vt -0 -0.08
vt -0 -0.025
vt 0.005 -0.025
vt 0.005 0.025
vt 0 0.025
f 1/1/1 2/2/1 3/3/1
f 3/3/1 4/4/1 1/1/1
f 4/5/2 3/6/2 5/7/2
f 5/7/2 6/8/2 4/5/2
f 6/9/3 5/10/3 7/11/3
f 7/11/3 8/12/3 6/9/3
f 8/13/2 7/14/2 9/15/2
f 9/15/2 10/16/2 8/13/2
f 1/17/4 11/18/4 12/19/4
f 12/19/4 2/20/4 1/17/4
f 13/21/3 14/22/3 12/23/3
f 12/23/3 11/24/3 13/21/3
f 15/25/4 16/26/4 14/27/4
f 14/27/4 13/28/4 15/25/4
f 17/29/5 18/30/5 16/31/5
f 16/31/5 15/32/5 17/29/5
f 19/33/4 20/34/4 18/35/4
f 18/35/4 17/36/4 19/33/4
f 21/37/6 22/38/6 20/39/6
f 20/39/6 19/40/6 21/37/6
f 23/41/7 24/42/7 22/43/7
f 22/43/7 21/44/7 23/41/7
f 25/45/6 26/46/6 24/47/6
f 24/47/6 23/48/6 25/45/6
f 27/49/8 28/50/8 26/51/8
f 26/51/8 25/52/8 27/49/8
f 29/53/9 30/54/9 28/55/9
f 28/55/9 27/56/9 29/53/9
f 31/57/10 32/58/10 30/59/10
f 30/59/10 29/60/10 31/57/10
f 3/61/11 26/62/11 7/63/11
f 9/64/11 7/63/11 26/62/11
f 26/62/11 28/65/11 9/64/11
f 28/65/11 30/66/11 33/67/11
f 33/67/11 9/64/11 28/65/11
f 32/68/11 34/69/11 33/67/11
f 16/70/11 18/71/11 24/72/11
f 3/61/11 14/73/11 16/70/11
f 33/67/11 30/66/11 32/68/11
f 16/70/11 26/62/11 3/61/11
f 24/72/11 26/62/11 16/70/11
f 20/74/11 22/75/11 24/72/11
f 24/72/11 18/71/11 20/74/11
f 2/76/11 12/77/11 14/73/11
f 14/73/11 3/61/11 2/76/11
f 7/63/11 5/78/11 3/61/11
f 8/79/12 25/80/12 15/81/12
f 15/81/12 25/80/12 23/82/12
f 19/83/12 17/84/12 23/82/12
f 23/82/12 17/84/12 15/81/12
f 31/85/12 29/86/12 35/87/12
f 27/88/12 10/89/12 35/87/12
f 15/81/12 13/90/12 8/79/12
f 10/89/12 27/88/12 25/80/12
f 35/87/12 29/86/12 27/88/12
f 25/80/12 8/79/12 10/89/12
f 23/82/12 21/91/12 19/83/12
f 4/92/12 6/93/12 8/79/12
f 1/94/12 4/92/12 13/90/12
f 8/79/12 13/90/12 4/92/12
f 35/87/12 36/95/12 31/85/12
f 13/90/12 11/96/12 1/94/12
f 36/97/13 34/98/13 32/99/13
f 32/99/13 31/100/13 36/97/13
f 35/101/14 33/102/14 34/103/14
f 34/103/14 36/104/14 35/101/14
f 10/105/13 9/106/13 33/107/13
f 33/107/13 35/108/13 10/105/13
