g Body_16
v -0.3 -0.5 1.39519e-05 0.627451 0.627451 0.643137
v -0.26 -0.5 1.39519e-05 0.627451 0.627451 0.643137
v -0.26 -0.54 1.39519e-05 0.627451 0.627451 0.643137
v -0.3 -0.54 1.39519e-05 0.627451 0.627451 0.643137
v -0.3 -0.54 0.271764 0.627451 0.627451 0.643137
v -0.3 -0.5 0.271764 0.627451 0.627451 0.643137
v -0.26 -0.5 0.271764 0.627451 0.627451 0.643137
v -0.26 -0.54 0.271764 0.627451 0.627451 0.643137
v -0.7 -0.54 0.271764 0.627451 0.627451 0.643137
v -0.7 -0.5 0.271764 0.627451 0.627451 0.643137
v 0.7 -0.5 0.271764 0.627451 0.627451 0.643137
v 0.7 -0.54 0.271764 0.627451 0.627451 0.643137
v 0.7 -0.54 1.39519e-05 0.627451 0.627451 0.643137
v 0.7 -0.5 1.39519e-05 0.627451 0.627451 0.643137
v 0.74 -0.5 1.39519e-05 0.627451 0.627451 0.643137
v 0.74 -0.54 1.39519e-05 0.627451 0.627451 0.643137
v 0.74 -0.5 0.54175 0.627451 0.627451 0.643137
v 0.74 -0.54 0.54175 0.627451 0.627451 0.643137
v 0.7 -0.5 0.54175 0.627451 0.627451 0.643137
v 0.7 -0.54 0.54175 0.627451 0.627451 0.643137
v 0.7 -0.5 0.33 0.627451 0.627451 0.643137
v 0.7 -0.54 0.33 0.627451 0.627451 0.643137
v -0.7 -0.5 0.33 0.627451 0.627451 0.643137
v -0.7 -0.54 0.33 0.627451 0.627451 0.643137
v -0.7 -0.5 1.39519e-05 0.627451 0.627451 0.643137
v -0.7 -0.54 1.39519e-05 0.627451 0.627451 0.643137
v -0.74 -0.54 1.39519e-05 0.627451 0.627451 0.643137
v -0.74 -0.5 1.39519e-05 0.627451 0.627451 0.643137
v -0.74 -0.54 0.54175 0.627451 0.627451 0.643137
v -0.7 -0.54 0.54175 0.627451 0.627451 0.643137
v -0.74 -0.5 0.271764 0.627451 0.627451 0.643137
v -0.74 -0.5 0.54175 0.627451 0.627451 0.643137
v -0.7 -0.5 0.54175 0.627451 0.627451 0.643137
v -0.74 -0.5 0.33 0.627451 0.627451 0.643137
v -0.7 0.5 0.33 0.627451 0.627451 0.643137
v -0.7 0.5 0.271764 0.627451 0.627451 0.643137
v -0.74 0.5 0.33 0.627451 0.627451 0.643137
v -0.74 0.5 0.271764 0.627451 0.627451 0.643137
v -0.7 0.5 1.39519e-05 0.627451 0.627451 0.643137
v -0.74 0.5 1.39519e-05 0.627451 0.627451 0.643137
v -0.7 0.54 1.39519e-05 0.627451 0.627451 0.643137
v -0.74 0.54 1.39519e-05 0.627451 0.627451 0.643137
v -0.74 0.54 0.54175 0.627451 0.627451 0.643137
v -0.74 0.5 0.54175 0.627451 0.627451 0.643137
v -0.7 0.54 0.271764 0.627451 0.627451 0.643137
v -0.7 0.54 0.54175 0.627451 0.627451 0.643137
v -0.7 0.5 0.54175 0.627451 0.627451 0.643137
v -0.7 0.54 0.33 0.627451 0.627451 0.643137
v 0.7 0.54 0.271764 0.627451 0.627451 0.643137
v 0.7 0.5 0.271764 0.627451 0.627451 0.643137
v 0.7 0.5 1.39519e-05 0.627451 0.627451 0.643137
v 0.7 0.54 1.39519e-05 0.627451 0.627451 0.643137
v 0.74 0.54 1.39519e-05 0.627451 0.627451 0.643137
v 0.74 0.5 1.39519e-05 0.627451 0.627451 0.643137
v 0.74 0.54 0.54175 0.627451 0.627451 0.643137
v 0.74 0.5 0.54175 0.627451 0.627451 0.643137
v 0.7 0.54 0.33 0.627451 0.627451 0.643137
v 0.7 0.54 0.54175 0.627451 0.627451 0.643137
v 0.7 0.5 0.33 0.627451 0.627451 0.643137
v 0.7 0.5 0.54175 0.627451 0.627451 0.643137
vn -0 0 -1
vn -1 0 0
vn 1 0 -0
vn -0 0 -1
vn -1 0 0
vn 1 0 0
vn -0 -0 1
vn -1 -5.55112e-15 -0
vn -0 1 -0
vn -0 -0 1
vn 1 0 -0
vn -0 0 -1
vn 0 -1 0
vn 0 1 0
vn -0 -0 1
vn 1 0 0
vn -0 1 0
vn -0 -0 1
vn -0 0 -1
vn 0 -1 -0
vn -1 0 0
vn 1 0 -0
vn -0 -0 1
vn 0 -1 -0
vn 1 -0 -0
vn -0 0 -1
vn -1 0 0
vn 1 0 0
vn 0 1 0
vn -0 -1 -0
vn -0 -0 1
vn -1 5.55112e-15 0
vt -0.3 0.5
vt -0.26 0.5
vt -0.26 0.54
vt -0.3 0.54
vt 0 -0.02
vt 0.27175 -0.02
vt 0.27175 0.02
vt 0 0.02
vt 0 0.02
vt -0.27175 0.02
vt -0.27175 -0.02
vt -0 -0.02
vt -0.7 -1.08
vt -0.7 -1.04
vt -0.3 -1.04
vt -0.3 -1.08
vt 0.7 -1.04
vt 0.7 -1.08
vt -0.26 -1.08
vt -0.26 -1.04
vt 0 -0.02
vt 0.27175 -0.02
vt 0.27175 0.02
vt 0 0.02
vt 0.5 -0.74
vt 0.54 -0.74
vt 0.54 -0.7
vt 0.5 -0.7
vt 0.54 -1.39519e-05
vt 0.5 -1.39519e-05
vt 0.5 -0.54175
vt 0.54 -0.54175
vt 0.5 0.74
vt 0.5 0.7
vt 0.54 0.7
vt 0.54 0.74
vt 0.02 0
vt 0.02 -0.21175
vt -0.02 -0.21175
vt -0.02 0
vt 0.2 -0.7
vt 0.258236 -0.26
vt 0.258236 -0.3
vt 0.529986 -0.3
vt -0.01175 0.74
vt 0.258236 0.7
vt 0.2 0.7
vt 0.529986 -0.26
vt -0.01175 0.7
vt 0.529986 0.74
vt 0.529986 0.7
vt 0.258236 -0.7
vt 0.7 -1.08
vt -0.7 -1.08
vt -0.7 -1.04
vt 0.7 -1.04
vt 0 0.02
vt -0.27175 0.02
vt -0.27175 -0.02
vt -0 -0.02
vt 0.5 0.7
vt 0.54 0.7
vt 0.54 0.74
vt 0.5 0.74
vt 0.7 0.33
vt -0.3 0.271764
vt -0.26 0.271764
vt -0.26 1.39519e-05
vt -0.3 1.39519e-05
vt -0.7 0.33
vt -0.7 0.271764
vt -0.74 1.39519e-05
vt -0.7 1.39519e-05
vt -0.74 0.54175
vt 0.7 0.271764
vt 0.74 0.54175
vt 0.7 0.54175
vt 0.74 1.39519e-05
vt -0.7 0.54175
vt 0.7 1.39519e-05
vt 0.27175 0.02
vt 0 0.02
vt 0 -0.02
vt 0.27175 -0.02
vt 0.5 -0.74
vt 0.54 -0.74
vt 0.54 -0.7
vt 0.5 -0.7
vt 0 -0.02
vt 0.21175 -0.02
vt 0.21175 0.02
vt 0 0.02
vt 0 0.02
vt -0.21175 0.02
vt -0.21175 -0.02
vt 0 -0.02
vt -0.2 0.5
vt -0.2 -0.5
vt -0.258236 -0.5
vt -0.258236 0.5
vt 0.7 -1.04
vt 0.7 -0.04
vt 0.74 -0.04
vt 0.74 -1.04
vt -0.7 -1.04
vt -0.74 -1.04
vt -0.74 -0.04
vt -0.7 -0.04
vt 0 0.02
vt -0.27175 0.02
vt -0.27175 -0.02
vt 0 -0.02
vt -0.54 0.7
vt -0.5 0.7
vt -0.5 0.74
vt -0.54 0.74
vt 0.5 0.33
vt -0.5 0.33
vt -0.5 0.271764
vt -0.54 1.39519e-05
vt -0.5 1.39519e-05
vt -0.54 0.54175
vt 0.5 0.271764
vt 0.54 0.54175
vt 0.5 0.54175
vt 0.54 1.39519e-05
vt -0.5 0.54175
vt 0.5 1.39519e-05
vt 0 0.02
vt -0.27175 0.02
vt -0.27175 -0.02
vt -0 -0.02
vt -0.54 -0.7
vt -0.54 -0.74
vt -0.5 -0.74
vt -0.5 -0.7
vt 0 -0.02
vt -0.21175 -0.02
vt -0.21175 0.02
vt 0 0.02
vt 0 -0.02
vt -0.21175 -0.02
vt -0.21175 0.02
vt 0 0.02
vt 0.7 0
vt 0.7 -0.04
vt -0.7 -0.04
vt -0.7 0
vt 0 -0.02
vt 0.27175 -0.02
vt 0.27175 0.02
vt 0 0.02
vt -0.54 -0.74
vt -0.5 -0.74
vt -0.5 -0.7
vt -0.54 -0.7
vt -0.54 -0.54175
vt -0.5 -0.54175
vt -0.5 -1.39519e-05
vt -0.54 -1.39519e-05
vt 0.74 -0.54175
vt 0.7 -0.271764
vt 0.7 -0.33
vt -0.7 -0.271764
vt -0.7 -0.33
vt -0.74 -1.39519e-05
vt 0.7 -0.54175
vt 0.74 -1.39519e-05
vt 0.7 -1.39519e-05
vt -0.74 -0.54175
vt -0.7 -0.54175
vt -0.7 -1.39519e-05
vt -0.258236 -0.7
vt -0.258236 0.7
vt -0.2 0.7
vt 0.01175 0.74
vt 0.01175 0.7
vt -0.529986 0.74
vt -0.2 -0.7
vt -0.529986 0.7
vt -0.5 0.74
vt -0.54 0.74
vt -0.54 0.7
vt -0.5 0.7
vt 0.02 -0.21175
vt 0.02 0
vt -0.02 0
vt -0.02 -0.21175
vt 0.7 0
vt 0.7 -0.04
vt -0.7 -0.04
vt -0.7 0
f 1/1/1 2/2/1 3/3/1
f 3/3/1 4/4/1 1/1/1
f 4/5/2 5/6/2 6/7/2
f 6/7/2 1/8/2 4/5/2
f 2/9/3 7/10/3 8/11/3
f 8/11/3 3/12/3 2/9/3
f 9/13/4 10/14/4 6/15/4
f 6/15/4 5/16/4 9/13/4
f 11/17/4 12/18/4 8/19/4
f 8/19/4 7/20/4 11/17/4
f 13/21/5 12/22/5 11/23/5
f 11/23/5 14/24/5 13/21/5
f 15/25/4 16/26/4 13/27/4
f 13/27/4 14/28/4 15/25/4
f 16/29/6 15/30/6 17/31/6
f 17/31/6 18/32/6 16/29/6
f 17/33/7 19/34/7 20/35/7
f 20/35/7 18/36/7 17/33/7
f 19/37/8 21/38/8 22/39/8
f 22/39/8 20/40/8 19/37/8
f 23/41/9 7/42/9 6/43/9
f 1/44/9 6/43/9 7/42/9
f 17/45/9 11/46/9 21/47/9
f 21/47/9 11/46/9 7/42/9
f 7/42/9 2/48/9 1/44/9
f 7/42/9 23/41/9 21/47/9
f 21/47/9 19/49/9 17/45/9
f 15/50/9 14/51/9 11/46/9
f 11/46/9 17/45/9 15/50/9
f 6/43/9 10/52/9 23/41/9
f 24/53/10 22/54/10 21/55/10
f 21/55/10 23/56/10 24/53/10
f 25/57/11 10/58/11 9/59/11
f 9/59/11 26/60/11 25/57/11
f 25/61/12 26/62/12 27/63/12
f 27/63/12 28/64/12 25/61/12
f 22/65/13 5/66/13 8/67/13
f 3/68/13 8/67/13 5/66/13
f 5/66/13 4/69/13 3/68/13
f 24/70/13 9/71/13 5/66/13
f 5/66/13 22/65/13 24/70/13
f 27/72/13 26/73/13 9/71/13
f 29/74/13 27/72/13 24/70/13
f 9/71/13 24/70/13 27/72/13
f 8/67/13 12/75/13 22/65/13
f 18/76/13 20/77/13 22/65/13
f 16/78/13 18/76/13 12/75/13
f 22/65/13 12/75/13 18/76/13
f 24/70/13 30/79/13 29/74/13
f 12/75/13 13/80/13 16/78/13
f 10/81/14 25/82/14 28/83/14
f 28/83/14 31/84/14 10/81/14
f 32/85/15 29/86/15 30/87/15
f 30/87/15 33/88/15 32/85/15
f 30/89/16 24/90/16 23/91/16
f 23/91/16 33/92/16 30/89/16
f 33/93/17 23/94/17 34/95/17
f 34/95/17 32/96/17 33/93/17
f 35/97/16 23/98/16 10/99/16
f 10/99/16 36/100/16 35/97/16
f 23/101/18 35/102/18 37/103/18
f 37/103/18 34/104/18 23/101/18
f 10/105/19 31/106/19 38/107/19
f 38/107/19 36/108/19 10/105/19
f 39/109/20 36/110/20 38/111/20
f 38/111/20 40/112/20 39/109/20
f 41/113/19 39/114/19 40/115/19
f 40/115/19 42/116/19 41/113/19
f 34/117/21 37/118/21 38/119/21
f 42/120/21 40/121/21 38/119/21
f 43/122/21 42/120/21 37/118/21
f 38/119/21 37/118/21 42/120/21
f 38/119/21 31/123/21 34/117/21
f 29/124/21 32/125/21 34/117/21
f 27/126/21 29/124/21 31/123/21
f 34/117/21 31/123/21 29/124/21
f 37/118/21 44/127/21 43/122/21
f 31/123/21 28/128/21 27/126/21
f 41/129/22 45/130/22 36/131/22
f 36/131/22 39/132/22 41/129/22
f 46/133/23 43/134/23 44/135/23
f 44/135/23 47/136/23 46/133/23
f 44/137/24 37/138/24 35/139/24
f 35/139/24 47/140/24 44/137/24
f 47/141/25 35/142/25 48/143/25
f 48/143/25 46/144/25 47/141/25
f 49/145/26 50/146/26 36/147/26
f 36/147/26 45/148/26 49/145/26
f 51/149/27 50/150/27 49/151/27
f 49/151/27 52/152/27 51/149/27
f 53/153/26 54/154/26 51/155/26
f 51/155/26 52/156/26 53/153/26
f 55/157/28 56/158/28 54/159/28
f 54/159/28 53/160/28 55/157/28
f 55/161/29 49/162/29 57/163/29
f 45/164/29 48/165/29 57/163/29
f 42/166/29 48/165/29 45/164/29
f 57/163/29 49/162/29 45/164/29
f 57/163/29 58/167/29 55/161/29
f 53/168/29 52/169/29 49/162/29
f 49/162/29 55/161/29 53/168/29
f 43/170/29 46/171/29 48/165/29
f 48/165/29 42/166/29 43/170/29
f 45/164/29 41/172/29 42/166/29
f 36/173/30 50/174/30 59/175/30
f 56/176/30 60/177/30 59/175/30
f 54/178/30 56/176/30 50/174/30
f 59/175/30 50/174/30 56/176/30
f 59/175/30 35/179/30 36/173/30
f 50/174/30 51/180/30 54/178/30
f 56/181/31 55/182/31 58/183/31
f 58/183/31 60/184/31 56/181/31
f 59/185/32 60/186/32 58/187/32
f 58/187/32 57/188/32 59/185/32
f 48/189/31 35/190/31 59/191/31
f 59/191/31 57/192/31 48/189/31
