g Body_12
v 0.6 0.26 0.29 0.627451 0.627451 0.643137
v 0.5 0.26 0.29 0.627451 0.627451 0.643137
v 0.5 0.1 0.29 0.627451 0.627451 0.643137
v 0.6 0.1 0.29 0.627451 0.627451 0.643137
v 0.5 0.1 0.27 0.627451 0.627451 0.643137
v 0.6 0.1 0.27 0.627451 0.627451 0.643137
v 0.6 0.26 0.27 0.627451 0.627451 0.643137
v 0.5 0.26 0.27 0.627451 0.627451 0.643137
vn 0 0 1
vn -0 -1 -0
vn 1 -0 -3.70074e-15
vn -5.55112e-15 0 -1
vn -1 -0 1.85037e-15
vn 0 1 0
vt -0.26 0.6
vt -0.26 0.5
vt -0.1 0.5
vt -0.1 0.6
vt -0.5 0.29
vt -0.5 0.27
vt -0.6 0.27
vt -0.6 0.29
vt -0.015 -0.16
vt -0.015 0
vt 0.005 0
vt 0.005 -0.16
vt 0.05 0
vt 0.05 -0.16
vt -0.05 -0.16
vt -0.05 0
vt 0.015 -0.16
vt -0.005 -0.16
vt -0.005 0
vt 0.015 0
vt -0.5 0.29
vt -0.6 0.29
vt -0.6 0.27
vt -0.5 0.27
f 1/1/1 2/2/1 3/3/1
f 3/3/1 4/4/1 1/1/1
f 3/5/2 5/6/2 6/7/2
f 6/7/2 4/8/2 3/5/2
f 6/9/3 7/10/3 1/11/3
f 1/11/3 4/12/3 6/9/3
f 7/13/4 6/14/4 5/15/4
f 5/15/4 8/16/4 7/13/4
f 5/17/5 3/18/5 2/19/5
f 2/19/5 8/20/5 5/17/5
f 2/21/6 1/22/6 7/23/6
f 7/23/6 8/24/6 2/21/6
